<svg xmlns="http://www.w3.org/2000/svg" viewBox="0 0 550.11 352.3"><defs><style>.cls-1{fill:#999;}.cls-2{fill:#52a470;}.cls-3{fill:#316243;}.cls-4{fill:#f4c416;}.cls-5{fill:#ab890f;}</style></defs><title>Broken Laurel</title><g id="Layer_2" data-name="Layer 2"><g id="Layer_1-2" data-name="Layer 1"><path class="cls-1" d="M206.73,348.15c-.9.19-1,1.18-.16,1.46,5.11,1.67,16.17,4.48,25.06,1.12,11.67-4.42,11.66-9.61,22.74-15.91a.92.92,0,0,0-.07-1.73c-4-1.67-14-4.94-23.3-.39C220.26,338,217.24,346,206.73,348.15Z"/><path class="cls-1" d="M231.36,342.13a36.09,36.09,0,0,0,11.06-5,16.48,16.48,0,0,1,12.44-3"/><path class="cls-1" d="M261.88,312.67c-.79.58-1.76-.42-1.43-1.47,2-6.28,7.06-19,16.08-22.78,11.57-4.83,15.87,1,28.11-1.17.87-.15,1.57.89,1.32,1.95-1.22,5.05-5,16.76-14.65,19.62C279.91,312.2,270.94,306,261.88,312.67Z"/><path class="cls-1" d="M277.24,298.6A30.61,30.61,0,0,1,292,295.23a14.77,14.77,0,0,0,13.65-7.57"/><path class="cls-1" d="M294.86,250.84c.86-.15.9-1.13.06-1.44-5.05-1.82-15.94-5-24.34-1.88-11,4-10.63,9.21-20.93,15.14a.93.93,0,0,0,.2,1.72c4,1.77,13.89,5.31,22.59,1.07C282.46,260.56,284.84,252.66,294.86,250.84Z"/><path class="cls-1" d="M271.44,256.08a30.85,30.85,0,0,0-10.36,4.64,14.92,14.92,0,0,1-11.85,2.59"/><path class="cls-1" d="M356.8,351.92c.75.45,1.42-.26,1-1.05-2.63-4.68-8.82-14.21-17.18-17.41-11-4.19-14.07,0-25.74-2.33-.84-.17-1.36.59-1,1.42,1.85,3.94,7.05,13.13,16.4,15.65C341.06,351.1,348,346.7,356.8,351.92Z"/><path class="cls-1" d="M335.65,340.48a30.9,30.9,0,0,0-10.88-3.31,15,15,0,0,1-10.66-5.83"/><path class="cls-1" d="M345.79,305.25c.4.89-.78,1.63-1.73,1.07-5.69-3.3-17-11-18.73-20.66-2.23-12.37,4.38-15.33,4.89-27.79,0-.88,1.2-1.34,2.18-.86,4.66,2.27,15.25,8.52,16,18.58C349.2,287.48,341.23,294.93,345.79,305.25Z"/><path class="cls-1" d="M379.68,248.16c.87,0,1-1,.24-1.42-4.76-2.46-15.16-7-23.89-5-11.44,2.59-11.73,7.76-22.71,12.31a.93.93,0,0,0,0,1.73c3.7,2.27,13.1,7.06,22.26,4C366.13,256.19,369.51,248.66,379.68,248.16Z"/><path class="cls-1" d="M335.39,287.16a30.89,30.89,0,0,1-.12-15.16,14.82,14.82,0,0,0-4.44-15"/><path class="cls-1" d="M355.78,250.32a30.87,30.87,0,0,0-10.88,3.26,14.93,14.93,0,0,1-12.09,1"/><path class="cls-1" d="M383.56,315.44c.57.8-.33,1.7-1.33,1.33-6-2.25-18.15-7.82-22.06-16.9-5-11.71.32-15.71-2.24-28-.18-.88.79-1.53,1.8-1.22,4.85,1.46,16.1,5.81,19.15,15.55C382.48,297.64,377,306.21,383.56,315.44Z"/><path class="cls-1" d="M401.23,253.93c.8-.19.72-1.17-.11-1.44-5-1.63-15.66-4.37-23.25-1-10,4.49-9,9.65-18,16-.65.46-.44,1.37.39,1.71,4,1.61,13.77,4.75,21.48.18C390.63,264.15,392,256.14,401.23,253.93Z"/><path class="cls-1" d="M369.75,299.64A33.68,33.68,0,0,1,366,284.86c.14-9.52-7.72-14-7.72-14"/><path class="cls-1" d="M379.69,260.09a26.11,26.11,0,0,0-9.26,5.05,13,13,0,0,1-10.89,3.06"/><path class="cls-1" d="M420.34,319c.71.67.09,1.7-.9,1.5-6-1.17-18.33-4.51-24-12.64-7.35-10.53-3.39-15.32-8.63-26.93-.38-.83.36-1.63,1.36-1.5,4.8.62,16.15,3,21.21,12C415.29,301.94,412.21,311.16,420.34,319Z"/><path class="cls-1" d="M422.44,256c.69-.33.4-1.29-.43-1.42-5-.77-15.46-1.68-21.66,3-8.12,6.1-6,11-12.81,18.77-.49.56-.08,1.42.77,1.61,4,.92,13.76,2.34,19.77-3.43C415,267.86,414.41,259.75,422.44,256Z"/><path class="cls-1" d="M404.12,306a37,37,0,0,1-6.87-13.74,17.89,17.89,0,0,0-10.37-12.38"/><path class="cls-1" d="M404,265.71a22.17,22.17,0,0,0-7.33,6.52,11.08,11.08,0,0,1-9.3,4.83"/><path class="cls-1" d="M454.6,316.24a.86.86,0,0,1-.5,1.6c-5.67-.14-17.67-1.29-24.68-8.19-9.1-9-6.57-14.29-14-24.73a1.05,1.05,0,0,1,.91-1.69c4.53-.2,15.48.22,22.14,8.15C446.21,300.63,445.47,310.07,454.6,316.24Z"/><path class="cls-1" d="M442.45,254.51c.56-.43.07-1.33-.72-1.32-4.75.07-14.62.93-19.26,6.57-6.07,7.38-3,11.86-7.45,20.59-.32.63.26,1.4,1.08,1.45,3.89.22,13.14,0,17.35-6.67C438.32,267.42,435.91,259.54,442.45,254.51Z"/><path class="cls-1" d="M436.94,306.44a40,40,0,0,1-9.38-12.19,18.66,18.66,0,0,0-12.33-10.32"/><path class="cls-1" d="M427.72,267.15a19.68,19.68,0,0,0-5.24,7.63,9.51,9.51,0,0,1-7.42,6.29"/><path class="cls-1" d="M484.63,306.26a.92.92,0,0,1-.08,1.74c-5,1.4-15.74,3.48-23.32-1.41-9.77-6.32-8.88-12.24-17.58-20.41a1.16,1.16,0,0,1,.36-1.93c3.76-1.51,13.16-4.3,20.76,1.69C473.69,293,475.18,302.62,484.63,306.26Z"/><path class="cls-1" d="M459.64,247.09a.77.77,0,0,0-.94-1.13c-4.13,1.65-12.44,5.75-15.05,13-3.35,9.3.3,12.84-1.37,22.85a1,1,0,0,0,1.23,1.12c3.32-.92,11.11-3.87,13.16-11.83C459.08,261.71,455.13,254.42,459.64,247.09Z"/><path class="cls-1" d="M466.94,301.37a35.6,35.6,0,0,1-10.85-9.44c-5.47-7.5-12.8-6.69-12.8-6.69"/><path class="cls-1" d="M449.81,264.59a18.69,18.69,0,0,0-3.1,8.37,8.46,8.46,0,0,1-5.39,7.4"/><path class="cls-1" d="M511.13,294.77c.83.24,1,1.32.24,1.59-4.54,1.65-14.5,4.37-22.85.36-10.92-5.23-11.11-10.85-21.43-18a1,1,0,0,1,0-1.84c3.55-1.62,12.49-4.7,21.1.46C498.2,283.3,501.42,292.08,511.13,294.77Z"/><path class="cls-1" d="M476.09,241.83c.28-.59-.5-1.28-1.14-1-3.82,1.59-11.46,5.57-12.81,12.35-1.75,8.81,2.64,12,2.74,21.46a1.15,1.15,0,0,0,1.47,1c3.22-1,10.54-4.19,11.13-11.66C478.18,255.24,472.92,248.65,476.09,241.83Z"/><path class="cls-1" d="M493.18,291.47a41.91,41.91,0,0,1-12.46-8.1c-6.87-6.69-14.16-5.54-14.16-5.54"/><path class="cls-1" d="M469.52,258.37a19,19,0,0,0-1,8.75c.79,5.83-3.31,8.15-3.31,8.15"/><path class="cls-1" d="M532.07,277.68c.81.09,1.18,1.11.55,1.51-3.8,2.36-12.31,6.66-20.76,4.16-11.07-3.28-12.44-8.73-23.41-14a1.07,1.07,0,0,1-.39-1.8c2.91-2.19,10.44-6.7,19.42-3.09C517.88,268.63,522.65,276.67,532.07,277.68Z"/><path class="cls-1" d="M488.73,231.44a.86.86,0,0,0-1.28-.82c-3.17,2.22-9.34,7.46-9.1,14.4.32,9,5,11.38,7.19,20.68a1.11,1.11,0,0,0,1.56.72c2.72-1.55,8.75-5.86,7.69-13.32C493.56,244.39,487.29,238.75,488.73,231.44Z"/><path class="cls-1" d="M515,277.45a40.5,40.5,0,0,1-13.1-5.82c-7.71-5.41-14.14-3.06-14.14-3.06"/><path class="cls-1" d="M486.27,248.93a20.29,20.29,0,0,0,1,8.79c2,5.6-1.27,8.56-1.27,8.56"/><path class="cls-1" d="M547.68,257.47c.76-.05,1.31.9.81,1.39-3,2.95-9.88,8.58-18.12,7.54-10.8-1.36-13.19-6.48-24.37-9.84a1.13,1.13,0,0,1-.73-1.71c2.19-2.63,8.15-8.35,17.15-6.29C532.83,251,538.86,258.05,547.68,257.47Z"/><path class="cls-1" d="M498.14,219c0-.65-.94-1.06-1.35-.6-2.46,2.75-7,9-5.29,15.87,2.24,8.86,7.09,10.43,11.06,19.25a1.06,1.06,0,0,0,1.59.45c2.16-2,6.78-7.26,4.23-14.45C505.38,231,498.39,226.49,498.14,219Z"/><path class="cls-1" d="M532,260.1a37.35,37.35,0,0,1-13.2-3.53c-8.21-4-13.61-.64-13.61-.64"/><path class="cls-1" d="M499.64,236.78a22.28,22.28,0,0,0,2.79,8.54c3,5.19.66,8.65.66,8.65"/><path class="cls-1" d="M516.21,224.32a21.63,21.63,0,0,1,2.71-2.49c4.72-3.54,9.57-3.07,15.34-6.42a.85.85,0,0,1,1.18.91c-1.62,6.49.12,11-2,16.48a20.2,20.2,0,0,1-1.63,3.26c-3.33,5.5-11.22,7.27-16.28,7.82l-.8.07a1.28,1.28,0,0,1-1.29-.95c-.06-.26-.12-.53-.16-.81C512.38,237.18,511.81,229.1,516.21,224.32Z"/><line class="cls-1" x1="525.91" y1="227.78" x2="513.95" y2="243.7"/><path class="cls-1" d="M28,238a75,75,0,0,0-6,4.73c-9.22,8.14-11.33,15.29-21.28,25.47-.95,1-.31,2,1,1.52,13.26-5,20.63-4,31.88-9.21a75.49,75.49,0,0,0,6.8-3.64C51.89,250,58.87,238.1,62.22,230.86c.17-.37.34-.75.49-1.12a1,1,0,0,0-1-1.46c-.42,0-.85,0-1.3,0C52.34,228.58,38.72,230.32,28,238Z"/><path class="cls-1" d="M10.91,211.74c-1-.15-2.21,1-1.73,1.7C12,217.57,19,225.51,30.61,224.92c14.79-.75,19.92-7,35.37-10,1.1-.22,1.92-1.3,1.56-2-1.75-3.45-7.05-11.08-19.29-9.57C33.72,205.09,22.7,213.42,10.91,211.74Z"/><path class="cls-1" d="M89.07,171.09c.25-.75,1.47-1.09,1.79-.5,1.94,3.53,5.13,11.38.75,19.14-5.75,10.19-12.15,11.52-20.21,21.74-.58.73-1.72.94-2.13.38-2-2.64-5.73-9.57.12-18C76.14,184.21,86.15,179.79,89.07,171.09Z"/><path class="cls-1" d="M31,216.72a58.07,58.07,0,0,0,18.72-3.11c12-4.13,17.47.58,17.47.58"/><path class="cls-1" d="M81,191.74a33.37,33.37,0,0,1-6.45,9.86c-5.63,6-4,10.42-4,10.42"/><path class="cls-1" d="M6.7,181.75c-.87-.33-2.21.64-2,1.41C6.2,187.78,10.4,197,20.83,198.39c13.39,1.82,19.55-3.57,34.2-4,1,0,2.06-1,1.91-1.77-.71-3.8-3.55-12.43-14.91-13C28.62,179,16.71,185.45,6.7,181.75Z"/><path class="cls-1" d="M86.85,154c.42-.71,1.61-.85,1.76-.2.87,3.89,1.82,12.37-4.1,19.5-7.76,9.35-13.89,9.59-23.74,18.55-.71.65-1.78.66-2,0-1.1-3-2.75-10.68,4.62-18.16C71.89,165.11,82,162.33,86.85,154Z"/><path class="cls-1" d="M23.26,190.2a48.24,48.24,0,0,0,17.49.09c11.8-2.1,15.55,3.62,15.55,3.62"/><path class="cls-1" d="M74.41,173.54a38.67,38.67,0,0,1-8.31,8.88c-6.57,5.06-6.22,9.87-6.22,9.87"/><path class="cls-1" d="M10.57,151.06a1.53,1.53,0,0,0-2.08,1.08C8.61,157,10,166.88,18.86,170c11.43,4.09,18.28-.28,31.48,1.78a2,2,0,0,0,2.16-1.47c.32-3.95-.06-13.11-10.06-15.57C30.67,151.88,18.48,156.4,10.57,151.06Z"/><path class="cls-1" d="M89.1,136.45c.55-.65,1.67-.6,1.64.08-.18,4.06-1.43,12.78-8.57,19-9.35,8.14-14.93,7.35-26,14.73-.8.53-1.77.36-1.81-.32-.23-3.23.21-11.21,8.7-17.51C72.83,145.14,82.68,144,89.1,136.45Z"/><path class="cls-1" d="M23.08,162.25a38.06,38.06,0,0,0,15.54,3c11.07-.13,13,6.26,13,6.26"/><path class="cls-1" d="M73,154.05a42.33,42.33,0,0,1-9.7,7.56c-7.17,4-8.06,8.89-8.06,8.89"/><path class="cls-1" d="M21.72,121.16c-.49-.57-1.93-.06-2.11.74-1.12,4.84-2.38,14.89,4.65,19.48,9.11,6,16.29,2.71,27.56,6.94a2,2,0,0,0,2.3-1.12c1.27-3.9,3.22-13.14-5.09-17.23C39.29,125.19,27.36,127.74,21.72,121.16Z"/><path class="cls-1" d="M95.5,119.14c.66-.56,1.65-.33,1.46.35-1.17,4.05-4.47,12.61-12.46,17.69-10.46,6.65-15.29,4.94-27.1,10.51-.85.41-1.68.07-1.55-.61A23.19,23.19,0,0,1,68,130.94C78.66,125.24,87.82,125.71,95.5,119.14Z"/><path class="cls-1" d="M30,134.3a29.62,29.62,0,0,0,13,5.54c9.91,1.68,10,8.4,10,8.4"/><path class="cls-1" d="M76.58,134.21a43.68,43.68,0,0,1-10.61,6c-7.42,2.83-9.45,7.6-9.45,7.6"/><path class="cls-1" d="M36.75,92.61a.91.91,0,0,0-1.64.53c0,5.25.83,16.17,7.55,22.2,8.66,7.77,14.11,5.33,24.28,11.58a1.17,1.17,0,0,0,1.76-.86c.45-4,.63-13.88-7.14-19.64C52.42,99.66,42.76,100.78,36.75,92.61Z"/><path class="cls-1" d="M100.22,101.05a.78.78,0,0,1,1.34.62c-.48,4.43-2.21,13.56-8.45,18-8,5.72-12.41,3.12-21.57,7.41a1,1,0,0,1-1.4-.9c0-3.46.76-11.78,7.85-15.88C86.33,105.48,94.39,107.37,100.22,101.05Z"/><path class="cls-1" d="M50.71,109.29a23.22,23.22,0,0,0,10.2,7.57c8.42,3.26,6.85,10,6.85,10"/><path class="cls-1" d="M92,116.46a43.08,43.08,0,0,1-11,4.32c-7.36,1.64-10.37,6.08-10.37,6.08"/><path class="cls-1" d="M61.31,68.38c-.1-.68-1.41-.61-1.92.09-3.09,4.23-8.73,13.31-5.64,19.7,4,8.32,11,7.37,17.5,14.78.47.53,1.68.32,2.27-.38,2.82-3.36,8.65-11.61,4.24-18C72.62,77.23,62.45,76.19,61.31,68.38Z"/><path class="cls-1" d="M118.73,88c.78-.35,1.45.18,1,.77-2.82,3.57-9.44,10.85-18.08,13.34-11.24,3.24-14.16.13-25.84,1.92-.84.12-1.31-.44-.89-1.06,2-3,7.57-9.83,16.93-11.81C102.72,88.85,109.63,92,118.73,88Z"/><path class="cls-1" d="M61.34,83.13a19.54,19.54,0,0,0,7.21,9.09c6.73,4.55,3.65,11,3.65,11"/><path class="cls-1" d="M96.9,96.85a40.41,40.41,0,0,1-11,2.58,17.33,17.33,0,0,0-10.82,4.44"/><path class="cls-1" d="M87.3,47.08c.08-.68-1.11-.8-1.74-.18-3.8,3.71-11.07,11.85-9.89,18.62,1.54,8.85,8,9,12,17.33.29.6,1.43.58,2.14,0,3.35-2.91,10.64-10.23,8.23-17.21C95.26,57.52,86.4,55,87.3,47.08Z"/><path class="cls-1" d="M134.34,75.22c.8-.23,1.28.4.71.92-3.45,3.14-11.27,9.41-19.72,10.56-11,1.49-12.85-2.06-23.82-2.08-.79,0-1.07-.64-.54-1.19,2.53-2.63,9.23-8.63,18.17-9.18C119.57,73.61,125.06,77.86,134.34,75.22Z"/><path class="cls-1" d="M83.69,61.68a18,18,0,0,0,4.23,10.09c4.92,5.55.55,11.51.55,11.51"/><path class="cls-1" d="M112.32,80.71a35.63,35.63,0,0,1-10.59.88,16.57,16.57,0,0,0-10.84,2.76"/><path class="cls-1" d="M115.84,29.83c.24-.66-.8-.95-1.52-.43-4.32,3.12-12.85,10.11-13.45,17-.79,9,5,10.07,6.57,19,.11.64,1.15.8,1.94.3,3.74-2.39,12.13-8.58,11.65-15.88C120.48,41.32,113.11,37.5,115.84,29.83Z"/><path class="cls-1" d="M151.74,64.8c.79-.11,1.08.59.42,1-3.92,2.62-12.6,7.71-20.6,7.56-10.36-.18-11.18-4-21.11-5.7-.71-.12-.81-.79-.19-1.26,2.94-2.24,10.47-7.2,18.71-6.4C138.62,61,142.6,66,151.74,64.8Z"/><path class="cls-1" d="M109,43.75a18.42,18.42,0,0,0,1.33,10.63C113.45,60.63,108,65.9,108,65.9"/><path class="cls-1" d="M130.29,67a30.68,30.68,0,0,1-9.84-.72A15,15,0,0,0,110,67.34"/><path class="cls-1" d="M145.87,16.86c.38-.62-.49-1.07-1.27-.65-4.69,2.47-14.11,8.17-16.33,14.88-2.9,8.81,2.06,10.71,1.33,19.81,0,.66.85,1,1.69.59,4-1.83,13.13-6.75,14.47-14.09C147.31,28.92,141.53,24.07,145.87,16.86Z"/><path class="cls-1" d="M170.26,57c.75,0,.85.76.14,1.1-4.25,2-13.47,5.82-20.77,4.47-9.42-1.75-9.24-5.7-17.86-8.87-.62-.22-.55-.91.13-1.29,3.22-1.79,11.28-5.61,18.62-3.59C159.13,51.17,161.55,56.85,170.26,57Z"/><path class="cls-1" d="M136.3,29.67s-2.4,5.41-1.37,10.75c1.28,6.67-4.92,11.12-4.92,11.12"/><path class="cls-1" d="M150,55.91a25.27,25.27,0,0,1-8.81-2.19,13.17,13.17,0,0,0-9.82-.46"/><path class="cls-1" d="M176.44,8.25c.5-.56-.2-1.12-1-.82-4.89,1.79-14.89,6.11-18.54,12.46-4.78,8.33-.71,10.94-3.58,19.9-.21.64.54,1.09,1.4.83,4.09-1.23,13.68-4.8,16.68-11.93C174.85,20.46,170.72,14.8,176.44,8.25Z"/><path class="cls-1" d="M189.27,51.92c.7.13.61.9-.14,1.13-4.42,1.41-13.87,3.82-20.27,1.36-8.24-3.16-7.11-7.09-14.25-11.53-.5-.31-.27-1,.44-1.27,3.38-1.31,11.7-3.94,18-.84C180.38,44.42,181.24,50.48,189.27,51.92Z"/><path class="cls-1" d="M164.58,19.63s-3.51,5-3.86,10.5c-.44,6.83-7.19,10.35-7.19,10.35"/><path class="cls-1" d="M170.84,47.82a20.57,20.57,0,0,1-7.56-3.5c-3.82-3.13-8.89-1.92-8.89-1.92"/><path class="cls-1" d="M206.71,4c.59-.49.09-1.15-.74-1-5,1.09-15.23,4-20.12,9.78-6.41,7.62-3.29,10.82-8.1,19.35-.34.61.24,1.16,1.1,1,4.07-.63,13.78-2.8,18.28-9.49C202.31,16,199.84,9.74,206.71,4Z"/><path class="cls-1" d="M208.17,49.69c.62.23.35,1-.39,1.12-4.47.75-13.84,1.75-19.18-1.68-6.86-4.41-4.87-8.17-10.39-13.67-.39-.39,0-1,.71-1.2,3.43-.82,11.76-2.23,16.81,1.79C201.69,40.81,201,47,208.17,49.69Z"/><path class="cls-1" d="M193,13.68s-4.45,4.51-6.09,9.92c-2,6.77-9.13,9.3-9.13,9.3"/><path class="cls-1" d="M192,42.81a17,17,0,0,1-6.16-4.64c-2.77-3.69-7.74-3.22-7.74-3.22"/><path class="cls-1" d="M235.94,4.07c.67-.41.35-1.14-.47-1.07-4.91.39-15.18,1.82-21.11,6.93-7.79,6.7-5.65,10.36-12.16,18.2-.47.57-.06,1.21.76,1.2,3.94,0,13.51-.79,19.31-6.86C229,15.45,228.14,8.83,235.94,4.07Z"/><path class="cls-1" d="M226.41,50.28c.52.33.09,1.06-.64,1.07-4.38.09-13.38-.31-17.55-4.58-5.33-5.45-2.57-9-6.39-15.28-.27-.45.24-1,.95-1.1,3.39-.32,11.48-.51,15.23,4.28C222.45,40.35,220.35,46.52,226.41,50.28Z"/><path class="cls-1" d="M220.82,11.8a32.41,32.41,0,0,0-8,9.07c-3.53,6.49-10.72,8-10.72,8"/><path class="cls-1" d="M212.93,40.92a14.45,14.45,0,0,1-4.63-5.58c-1.7-4.12-6.43-4.38-6.43-4.38"/><path class="cls-1" d="M263.44,8.31c.73-.31.6-1.1-.19-1.15-4.73-.3-14.75-.34-21.55,3.95-8.9,5.61-7.77,9.6-15.74,16.54-.58.5-.35,1.2.43,1.32,3.7.54,12.87,1.19,19.78-4.09C254.15,18.79,254.94,12,263.44,8.31Z"/><path class="cls-1" d="M243.44,53.65c.42.41-.16,1.08-.86,1-4.15-.59-12.54-2.35-15.43-7.3-3.7-6.31-.28-9.42-2.33-16.36-.15-.5.46-1,1.15-1,3.25.18,10.89,1.18,13.28,6.57C242.08,43,238.62,48.92,243.44,53.65Z"/><path class="cls-1" d="M247.34,13.92a36.58,36.58,0,0,0-9.73,8,18.26,18.26,0,0,1-12,6.48"/><path class="cls-1" d="M233,42.13a13.08,13.08,0,0,1-3-6.32c-.61-4.4-5-5.36-5-5.36"/><path class="cls-1" d="M288.59,16.59c.77-.22.83-1,.09-1.2-4.44-1-14-2.49-21.45.86-9.75,4.38-9.63,8.57-18.82,14.41-.66.42-.61,1.16.1,1.39,3.36,1.1,11.9,3.12,19.71-1.2C277.26,25.85,279.62,19.07,288.59,16.59Z"/><path class="cls-1" d="M258.79,59.67c.3.48-.42,1.08-1.05.87-3.81-1.23-11.34-4.31-12.9-9.76-2-7,2-9.59,1.7-16.93,0-.52.69-1,1.32-.81,3,.66,10,2.81,11,8.64C260,48.61,255.34,54.12,258.79,59.67Z"/><path class="cls-1" d="M271.92,19.92a39.77,39.77,0,0,0-11.11,6.63A18.56,18.56,0,0,1,248,31.34"/><path class="cls-1" d="M251.6,46.37a13,13,0,0,1-1.35-6.86,6,6,0,0,0-3.43-6.16"/><path class="cls-1" d="M274.22,49.94a31.16,31.16,0,0,0,4,.93c6.63,1,11.33-.88,19-.33.73.05,1.21-.65.72-1-5.15-4.19-5.79-8-10.78-11.23a25.34,25.34,0,0,0-3.33-1.77c-6.14-2.77-14.83-1.44-20.09-.19-.28.06-.56.14-.82.21-.59.15-1,.64-.8,1.07.07.2.15.41.23.62C264,42,267.4,47.93,274.22,49.94Z"/><line class="cls-1" x1="282.2" y1="44.31" x2="262.29" y2="36.94"/><path class="cls-1" d="M58.76,284.68c-.27,1.08-1.89,1.72-2.38.94-2.89-4.66-7.75-15-2.57-25.73,6.52-13.57,14.47-15.84,23.32-28.9.62-.92,2-1.26,2.54-.64,2.71,3,8.24,10.92,2.1,21.86C74.39,265.37,61.82,272.4,58.76,284.68Z"/><path class="cls-1" d="M129.63,226.69c.88.06,1.66-.95,1.16-1.49-3-3.18-9.95-9.14-19.39-8.06-12.26,1.41-15.91,6.75-28.92,10.22-.93.24-1.56,1.2-1.17,1.79,1.85,2.83,7.25,9.06,17.82,6.95C111.42,233.63,119.57,226,129.63,226.69Z"/><path class="cls-1" d="M61.88,263a57.6,57.6,0,0,1,10.31-16.41c8.6-9.51,6.07-16.41,6.07-16.41"/><path class="cls-1" d="M105.55,226.13a36.77,36.77,0,0,0-12.22,2.13c-8,2.87-11.7-.35-11.7-.35"/><path class="cls-1" d="M87.6,303.07c0,1.06-1.55,2-2.26,1.34-4.23-3.76-12-12.4-9.29-23.46,3.41-13.94,11.21-17.58,17.2-31.49a2,2,0,0,1,2.52-1.08c3.59,2.26,11.41,8.66,7.74,20C99.1,282.08,87.69,291.06,87.6,303.07Z"/><path class="cls-1" d="M147,235.66c.91-.11,1.48-1.2.83-1.61-3.89-2.41-12.58-6.7-22.15-4-12.47,3.58-15,9.26-27.73,14.94-.92.41-1.33,1.43-.77,1.91,2.66,2.29,9.91,7.11,20.42,3.15C129.82,245.5,136.4,236.87,147,235.66Z"/><path class="cls-1" d="M85.35,282.27A48.74,48.74,0,0,1,92,265c6.62-10.53,2.21-16.52,2.21-16.52"/><path class="cls-1" d="M121.83,239.59a41,41,0,0,0-12.24,4.27c-7.62,4.18-12.38,1.86-12.38,1.86"/><path class="cls-1" d="M122.32,314.39a1.6,1.6,0,0,1-2,1.68c-5.33-2.63-15.58-9.08-15.54-19.84.06-13.6,7.3-18.48,10.07-32.56a2,2,0,0,1,2.35-1.49c4.31,1.43,14,5.89,13,17.13C129,292.8,119.43,303.31,122.32,314.39Z"/><path class="cls-1" d="M167.12,240.79c.92-.27,1.24-1.39.47-1.64-4.58-1.53-14.6-3.92-23.83.41-12.06,5.65-13.23,11.41-25.12,19.1-.86.55-1,1.58-.34,1.92a23.23,23.23,0,0,0,22-.92C151.81,253.11,156.49,243.88,167.12,240.79Z"/><path class="cls-1" d="M114.8,295.64a40.59,40.59,0,0,1,2.62-17.31c4.27-11.05-1.82-15.78-1.82-15.78"/><path class="cls-1" d="M142.1,249.11a43.48,43.48,0,0,0-11.65,6.26c-6.89,5.33-12.43,4.06-12.43,4.06"/><path class="cls-1" d="M160.87,318c.49.84-.64,2.15-1.66,1.92-6.1-1.35-18.22-5.24-20.82-15.13-3.29-12.54,3-18.44,2.39-32a2,2,0,0,1,2.07-1.82c4.8.5,15.92,2.78,17.63,13.33C162.52,296.88,155.22,308.38,160.87,318Z"/><path class="cls-1" d="M189,241.83c.87-.41.93-1.51.08-1.6-5.05-.57-15.89-.94-24.32,4.78-11,7.47-10.84,13-21.24,22.4-.75.67-.68,1.66.13,1.84a26.42,26.42,0,0,0,22.45-5C176.27,256,178.84,246.65,189,241.83Z"/><path class="cls-1" d="M148.59,302.24a34.37,34.37,0,0,1-1.53-16.43c1.69-11-5.76-14.23-5.76-14.23"/><path class="cls-1" d="M165.34,254.16a43.21,43.21,0,0,0-10.46,8c-5.81,6.22-11.84,6.1-11.84,6.1"/><path class="cls-1" d="M200.92,313.67c.7.67-.13,2.07-1.22,2.07-6.49,0-19.72-1.23-24.73-9.74-6.38-10.83-1.38-17.45-5.26-29.77a1.84,1.84,0,0,1,1.68-2.07c5-.45,16.92-.45,21.17,8.89C197.63,294.18,192.94,306.06,200.92,313.67Z"/><path class="cls-1" d="M211.43,238.79c.79-.54.59-1.56-.29-1.49-5.26.39-16.37,2-23.61,8.87-9.49,9-7.95,14-16.34,24.62-.6.76-.29,1.65.58,1.67,4.16.08,14.42-.65,21.72-8.83C201.91,254.2,202.29,245.08,211.43,238.79Z"/><path class="cls-1" d="M184.76,301.75a30.83,30.83,0,0,1-5.5-14.74c-.9-10.42-9.3-12-9.3-12"/><path class="cls-1" d="M190.34,254.49a40.73,40.73,0,0,0-8.77,9.3c-4.43,6.82-10.63,7.85-10.63,7.85"/><path class="cls-1" d="M240.15,302.08c.85.47.34,1.9-.74,2.1-6.5,1.21-20,2.68-27.07-4.08-9-8.64-5.48-15.63-12.32-26.16-.48-.74.17-1.92,1.22-2.2,5-1.36,17-3.59,23.46,4.13C232.36,285.05,230.42,296.72,240.15,302.08Z"/><path class="cls-1" d="M233.4,231.9c.66-.64.23-1.53-.64-1.31-5.2,1.31-16,4.85-21.77,12.45-7.51,10-4.74,14.37-10.75,25.64a.91.91,0,0,0,1,1.42c4.24-.7,14.44-3.29,19.89-12.13C227.39,247.78,225.66,239.34,233.4,231.9Z"/><path class="cls-1" d="M221.2,294.37a29.73,29.73,0,0,1-9-12.37A13.32,13.32,0,0,0,200,272.81"/><path class="cls-1" d="M215.79,250.17a36.18,36.18,0,0,0-6.68,10.16,16.59,16.59,0,0,1-8.93,9.18"/><line class="cls-1" x1="62.66" y1="228.71" x2="28.71" y2="250.96"/><path class="cls-2" d="M207.11,345.23c-.91.19-1,1.18-.16,1.45,5.12,1.66,16.22,4.45,25.14,1.06,11.7-4.44,11.69-9.63,22.8-16a.92.92,0,0,0-.07-1.73c-4-1.65-14-4.91-23.37-.33C220.68,335,217.65,343.06,207.11,345.23Z"/><path class="cls-3" d="M231.81,339.15c2-.79,3.89-1.68,5.75-2.62a42.19,42.19,0,0,0,5.34-3.24A16,16,0,0,1,249,330.8a13.27,13.27,0,0,1,6.42.31,19.56,19.56,0,0,0-6.18.75,18.83,18.83,0,0,0-5.52,2.58,27,27,0,0,1-5.67,3.07A25.8,25.8,0,0,1,231.81,339.15Z"/><path class="cls-2" d="M261.66,308.13c-.82.53-1.73-.53-1.33-1.55,2.4-6.14,8.28-18.51,17.56-21.68,11.89-4.07,15.83,2,28.22.67.88-.1,1.52,1,1.19,2-1.54,5-6.09,16.4-15.92,18.62C279.75,308.84,271.16,302.06,261.66,308.13Z"/><path class="cls-3" d="M278,295.1a26.25,26.25,0,0,1,15.61-3.05,14.45,14.45,0,0,0,7.41-1.24,17.33,17.33,0,0,0,6.1-4.77,13.82,13.82,0,0,1-5.61,5.73,13.34,13.34,0,0,1-3.88,1.44,15.38,15.38,0,0,1-4.14.22,31.64,31.64,0,0,0-7.78,0A42.26,42.26,0,0,0,278,295.1Z"/><path class="cls-2" d="M295.49,247.66c.87-.16.9-1.14.06-1.44-5.06-1.8-16-4.89-24.41-1.77-11,4.09-10.65,9.26-21,15.25a.92.92,0,0,0,.2,1.71c4,1.75,13.94,5.24,22.65,1C283.08,257.44,285.45,249.52,295.49,247.66Z"/><path class="cls-3" d="M272,253c-1.87.75-3.69,1.55-5.44,2.46a35.4,35.4,0,0,0-5,3.1,13.71,13.71,0,0,1-5.77,2.29,12.34,12.34,0,0,1-6.07-.51,17.39,17.39,0,0,0,11.05-2.92l1.24-.85c.44-.27.87-.56,1.32-.8a24.2,24.2,0,0,1,2.78-1.3A22.15,22.15,0,0,1,272,253Z"/><path class="cls-2" d="M357.63,348.65c.76.45,1.44-.27,1-1-2.63-4.68-8.84-14.19-17.23-17.37-11-4.16-14.11,0-25.82-2.28-.85-.16-1.37.6-1,1.43,1.85,3.93,7.07,13.11,16.44,15.61C341.85,347.87,348.84,343.46,357.63,348.65Z"/><path class="cls-3" d="M336.42,337.26c-1.9-.66-3.8-1.25-5.71-1.72a36.34,36.34,0,0,0-5.8-.94,13.73,13.73,0,0,1-5.86-2.06,12.4,12.4,0,0,1-4.23-4.38,17.3,17.3,0,0,0,10.24,5.06l1.5.18c.51.08,1,.14,1.52.27a21,21,0,0,1,2.94.84A21.82,21.82,0,0,1,336.42,337.26Z"/><path class="cls-2" d="M346.6,302c.4.9-.79,1.64-1.74,1.08-5.71-3.29-17.05-11-18.79-20.61-2.23-12.38,4.39-15.35,4.91-27.81,0-.88,1.2-1.34,2.18-.87,4.68,2.27,15.3,8.49,16,18.54C350,284.23,342,291.7,346.6,302Z"/><path class="cls-2" d="M380.59,244.84c.88-.05,1-1,.24-1.42-4.78-2.45-15.21-6.95-24-5-11.48,2.6-11.77,7.78-22.78,12.35a.93.93,0,0,0,0,1.73c3.71,2.26,13.13,7,22.33,3.93C367,252.9,370.39,245.36,380.59,244.84Z"/><path class="cls-3" d="M336.16,283.94a25.6,25.6,0,0,1-1.56-7.86,26.12,26.12,0,0,1,.89-8,14.39,14.39,0,0,0-.11-7.51,17.45,17.45,0,0,0-3.79-6.75,13.81,13.81,0,0,1,4.82,6.41,13.3,13.3,0,0,1,.84,4.05,12.06,12.06,0,0,1-.07,2.08,11.74,11.74,0,0,1-.34,2,32,32,0,0,0-1.16,7.7A43.45,43.45,0,0,0,336.16,283.94Z"/><path class="cls-3" d="M356.61,247.06c-1.95.5-3.85,1.05-5.71,1.72a35.23,35.23,0,0,0-5.36,2.42,13.75,13.75,0,0,1-6,1.51,12.25,12.25,0,0,1-5.94-1.31A17.28,17.28,0,0,0,344.91,250l1.35-.67c.47-.21.93-.45,1.41-.62a23.57,23.57,0,0,1,2.92-.93A22.31,22.31,0,0,1,356.61,247.06Z"/><path class="cls-2" d="M384.48,312.1c.57.8-.33,1.71-1.33,1.34-6-2.23-18.21-7.77-22.13-16.85-5.06-11.7.32-15.71-2.24-28-.18-.88.78-1.53,1.8-1.23,4.86,1.45,16.15,5.78,19.21,15.51C383.4,294.31,377.85,302.89,384.48,312.1Z"/><path class="cls-2" d="M402.2,250.56c.8-.19.73-1.18-.1-1.45-5-1.61-15.72-4.33-23.33-.89-10,4.51-9,9.67-18.06,16-.65.45-.44,1.37.39,1.7,4,1.6,13.81,4.72,21.54.13C391.57,260.8,392.91,252.79,402.2,250.56Z"/><path class="cls-3" d="M370.63,296.34a27.49,27.49,0,0,1-3.35-7.35,25.8,25.8,0,0,1-.87-4c-.12-.68-.14-1.37-.2-2.05s0-1.4-.06-2a15.89,15.89,0,0,0-1.95-7.36,19.66,19.66,0,0,0-5.07-6,15.49,15.49,0,0,1,7.76,9.18,13,13,0,0,1,.45,2c.05.35.11.69.15,1l.05,1a34.09,34.09,0,0,0,.78,7.82A48.7,48.7,0,0,0,370.63,296.34Z"/><path class="cls-3" d="M380.6,256.77a52,52,0,0,0-4.89,2.66,30.08,30.08,0,0,0-4.38,3.3,12.1,12.1,0,0,1-2.47,1.59,11.54,11.54,0,0,1-2.79.91,11.08,11.08,0,0,1-5.69-.31,14.91,14.91,0,0,0,10.07-3.26l1.08-.89c.38-.3.76-.6,1.16-.86a19.41,19.41,0,0,1,2.5-1.43A19.16,19.16,0,0,1,380.6,256.77Z"/><path class="cls-2" d="M421.38,315.55c.7.68.09,1.7-.91,1.51-6-1.16-18.39-4.47-24.09-12.59C389,294,393,289.16,387.72,277.56c-.38-.83.36-1.63,1.37-1.5,4.81.61,16.19,3,21.27,11.94C416.31,298.53,413.22,307.77,421.38,315.55Z"/><path class="cls-2" d="M423.48,252.6c.69-.33.4-1.29-.44-1.42-5-.76-15.5-1.64-21.72,3-8.15,6.12-6,11-12.85,18.8-.49.56-.08,1.42.77,1.61,4,.9,13.8,2.31,19.84-3.47C416.05,264.46,415.43,256.35,423.48,252.6Z"/><path class="cls-3" d="M405.11,302.63a30.54,30.54,0,0,1-7.74-14.17,17.67,17.67,0,0,0-3.49-6.86,20.94,20.94,0,0,0-6.07-5,16.52,16.52,0,0,1,9.35,7.67,13.67,13.67,0,0,1,.89,1.9c.12.32.26.64.37,1l.29,1a38.33,38.33,0,0,0,2.55,7.5A55.87,55.87,0,0,0,405.11,302.63Z"/><path class="cls-3" d="M405,262.33a42.92,42.92,0,0,0-3.89,3.43,26.13,26.13,0,0,0-3.22,3.93,10.65,10.65,0,0,1-1.91,2,10.32,10.32,0,0,1-2.38,1.38,9.66,9.66,0,0,1-5.29.65,12.59,12.59,0,0,0,8.47-4.85c.24-.3.51-.68.78-1.05s.55-.71.86-1a17,17,0,0,1,2-1.83A16.36,16.36,0,0,1,405,262.33Z"/><path class="cls-2" d="M455.73,312.75a.85.85,0,0,1-.49,1.6c-5.69-.13-17.72-1.25-24.75-8.14-9.14-8.94-6.6-14.27-14.09-24.69a1.05,1.05,0,0,1,.91-1.69c4.55-.21,15.52.18,22.21,8.09C447.33,297.16,446.58,306.6,455.73,312.75Z"/><path class="cls-2" d="M443.55,251c.56-.43.07-1.33-.72-1.32-4.77.08-14.67,1-19.32,6.62-6.09,7.39-3,11.86-7.47,20.61-.32.63.25,1.4,1.08,1.44,3.91.21,13.19,0,17.4-6.7C439.41,264,437,256.09,443.55,251Z"/><path class="cls-3" d="M438,303a31.18,31.18,0,0,1-5.91-5.51,31.68,31.68,0,0,1-4.39-6.85,19.54,19.54,0,0,0-4.7-6.1,21.29,21.29,0,0,0-6.78-4,16.06,16.06,0,0,1,7.46,3.16A17.81,17.81,0,0,1,429,290a42.2,42.2,0,0,0,4,6.81A61.39,61.39,0,0,0,438,303Z"/><path class="cls-3" d="M428.78,263.72a37.06,37.06,0,0,0-2.77,4,23.87,23.87,0,0,0-2,4.31,9,9,0,0,1-3.17,4.08,8.31,8.31,0,0,1-4.76,1.57,10.68,10.68,0,0,0,6.64-6.16l.47-1.14a11.06,11.06,0,0,1,.55-1.15,15.18,15.18,0,0,1,1.39-2.12A14.18,14.18,0,0,1,428.78,263.72Z"/><path class="cls-2" d="M485.86,302.7a.91.91,0,0,1-.07,1.73c-5.06,1.42-15.8,3.53-23.4-1.35-9.8-6.29-8.9-12.22-17.63-20.37a1.16,1.16,0,0,1,.36-1.93c3.77-1.52,13.2-4.33,20.82,1.64C474.89,289.44,476.38,299.08,485.86,302.7Z"/><path class="cls-2" d="M460.8,243.59a.78.78,0,0,0-.95-1.13c-4.15,1.65-12.48,5.78-15.09,13-3.37,9.31.3,12.84-1.38,22.85a1,1,0,0,0,1.24,1.12c3.33-.92,11.14-3.9,13.2-11.86C460.24,258.21,456.27,250.93,460.8,243.59Z"/><path class="cls-3" d="M468.12,297.85a26.67,26.67,0,0,1-6.39-3.84,28.41,28.41,0,0,1-5.23-5.39,17.81,17.81,0,0,0-5.24-4.73,15.71,15.71,0,0,0-6.86-2.12,12.4,12.4,0,0,1,7.36,1.16,16,16,0,0,1,5.85,4.86,39.92,39.92,0,0,0,4.82,5.41A54.84,54.84,0,0,0,468.12,297.85Z"/><path class="cls-3" d="M450.93,261.11a35.07,35.07,0,0,0-1.61,4.34,22.05,22.05,0,0,0-.85,4.44,8.54,8.54,0,0,1-1.94,4.54,7.12,7.12,0,0,1-4.11,2.46,10.06,10.06,0,0,0,3.24-3.11,9.34,9.34,0,0,0,1.43-4.06,15.08,15.08,0,0,1,1.21-4.64A13.15,13.15,0,0,1,450.93,261.11Z"/><path class="cls-2" d="M512.44,291.15c.84.23,1,1.31.25,1.59-4.56,1.66-14.55,4.4-22.93.41-10.95-5.21-11.14-10.83-21.49-18a1,1,0,0,1,0-1.83c3.56-1.63,12.53-4.73,21.16.41C499.47,279.7,502.7,288.47,512.44,291.15Z"/><path class="cls-2" d="M477.3,238.28c.27-.59-.51-1.28-1.15-1-3.83,1.6-11.49,5.6-12.84,12.38-1.76,8.81,2.64,12,2.74,21.45a1.16,1.16,0,0,0,1.48,1c3.22-1,10.56-4.21,11.16-11.68C479.39,251.69,474.12,245.12,477.3,238.28Z"/><path class="cls-3" d="M494.44,287.89a31,31,0,0,1-7.07-3.13,33.18,33.18,0,0,1-6.19-4.69,21.94,21.94,0,0,0-6.13-4.12,18.94,18.94,0,0,0-7.32-1.64,14.32,14.32,0,0,1,7.71.64,18.9,18.9,0,0,1,6.69,4.11,47.81,47.81,0,0,0,5.83,4.8A69.7,69.7,0,0,0,494.44,287.89Z"/><path class="cls-3" d="M470.71,254.84a37,37,0,0,0-.5,4.48,24.9,24.9,0,0,0,.2,4.4,8.73,8.73,0,0,1-.71,4.75,6.51,6.51,0,0,1-3.32,3.28,8.87,8.87,0,0,0,2.32-3.69,9.82,9.82,0,0,0,.33-4.18,15.31,15.31,0,0,1,.11-4.68A12.74,12.74,0,0,1,470.71,254.84Z"/><path class="cls-2" d="M533.44,274c.82.09,1.2,1.11.56,1.51-3.81,2.37-12.35,6.68-20.82,4.2-11.1-3.25-12.48-8.7-23.49-14a1.07,1.07,0,0,1-.38-1.8c2.91-2.19,10.46-6.73,19.47-3.13C519.21,265,524,273,533.44,274Z"/><path class="cls-2" d="M490,227.86a.86.86,0,0,0-1.27-.81c-3.19,2.23-9.38,7.48-9.14,14.42.32,9,5.05,11.37,7.21,20.67a1.13,1.13,0,0,0,1.57.72c2.73-1.56,8.78-5.89,7.72-13.34C494.82,240.8,488.53,235.18,490,227.86Z"/><path class="cls-3" d="M516.33,273.82a29.37,29.37,0,0,1-7.17-1.87,32.53,32.53,0,0,1-6.59-3.5,21.74,21.74,0,0,0-6.4-3A16.91,16.91,0,0,0,489,265a13,13,0,0,1,7.39-.63,18.68,18.68,0,0,1,7,2.93A47.06,47.06,0,0,0,509.6,271,63.81,63.81,0,0,0,516.33,273.82Z"/><path class="cls-3" d="M487.51,245.37a42.4,42.4,0,0,0,.55,4.44,26.78,26.78,0,0,0,1.12,4.22,9.48,9.48,0,0,1,.42,4.73,6.22,6.22,0,0,1-2.38,3.95,8.43,8.43,0,0,0,1.31-4.09,11.3,11.3,0,0,0-.66-4.14,15.75,15.75,0,0,1-.88-4.55A13.21,13.21,0,0,1,487.51,245.37Z"/><path class="cls-2" d="M549.1,253.77c.76-.06,1.32.89.82,1.38-3,3-9.91,8.6-18.17,7.58-10.84-1.33-13.24-6.45-24.45-9.78a1.13,1.13,0,0,1-.74-1.71c2.21-2.64,8.18-8.37,17.21-6.33C534.21,247.28,540.26,254.37,549.1,253.77Z"/><path class="cls-2" d="M499.41,215.36c0-.65-.94-1.06-1.35-.59-2.47,2.76-7,9-5.3,15.88,2.24,8.86,7.11,10.42,11.09,19.22a1.06,1.06,0,0,0,1.59.45c2.17-2,6.8-7.27,4.24-14.45C506.67,227.43,499.66,222.89,499.41,215.36Z"/><path class="cls-3" d="M533.41,256.43a26.79,26.79,0,0,1-7-.65,30.79,30.79,0,0,1-6.71-2.31,20.49,20.49,0,0,0-6.43-1.92,14.57,14.57,0,0,0-6.74.77,11.39,11.39,0,0,1,6.81-1.85,17.49,17.49,0,0,1,7,1.75,45.12,45.12,0,0,0,6.39,2.52A61.48,61.48,0,0,0,533.41,256.43Z"/><path class="cls-3" d="M500.92,233.19a38.49,38.49,0,0,0,3.41,8.2,10.32,10.32,0,0,1,1.41,4.54,6.39,6.39,0,0,1-1.36,4.44,8.64,8.64,0,0,0,.29-4.32,12.94,12.94,0,0,0-1.54-4,17,17,0,0,1-1.75-4.32A13.93,13.93,0,0,1,500.92,233.19Z"/><path class="cls-2" d="M517.54,220.69a21.06,21.06,0,0,1,2.72-2.5c4.73-3.55,9.6-3.1,15.39-6.45a.85.85,0,0,1,1.18.9c-1.63,6.49.12,11-2,16.49a20.62,20.62,0,0,1-1.63,3.26c-3.35,5.51-11.26,7.29-16.34,7.86l-.8.07a1.28,1.28,0,0,1-1.29-.95c-.06-.26-.12-.53-.17-.81C513.7,233.55,513.13,225.47,517.54,220.69Z"/><path class="cls-3" d="M527.27,224.12a45.36,45.36,0,0,1-2.57,4.31c-.91,1.4-1.89,2.75-2.88,4.08s-2,2.64-3.12,3.9a45.45,45.45,0,0,1-3.43,3.66,45.36,45.36,0,0,1,2.57-4.31c.91-1.4,1.89-2.74,2.88-4.08s2-2.63,3.12-3.89A45.57,45.57,0,0,1,527.27,224.12Z"/><path class="cls-4" d="M27.8,235.53a73.74,73.74,0,0,0-6,4.74c-9.24,8.16-11.37,15.31-21.34,25.52-1,1-.32,2,1,1.51,13.29-5,20.69-4,32-9.28,2.1-1,4.35-2.18,6.82-3.65,11.58-6.91,18.58-18.86,21.94-26.1.18-.38.34-.76.5-1.12a1,1,0,0,0-1-1.47l-1.3,0C52.25,226,38.58,227.78,27.8,235.53Z"/><path class="cls-2" d="M10.69,209.26c-1-.14-2.22,1-1.74,1.71,2.85,4.12,9.9,12.05,21.5,11.43,14.84-.79,20-7,35.48-10.11,1.1-.22,1.93-1.3,1.56-2-1.76-3.44-7.07-11.06-19.35-9.53C33.57,202.56,22.52,210.92,10.69,209.26Z"/><path class="cls-2" d="M89.08,168.43c.25-.75,1.48-1.09,1.81-.5,1.94,3.52,5.14,11.36.75,19.14-5.77,10.21-12.19,11.55-20.28,21.78-.58.74-1.72,1-2.13.39-2-2.64-5.75-9.55.12-18C76.12,181.59,86.16,177.14,89.08,168.43Z"/><path class="cls-3" d="M30.85,214.2A84.69,84.69,0,0,0,40,212.89,71.64,71.64,0,0,0,49,210.54a43.19,43.19,0,0,1,4.56-1.26,24.26,24.26,0,0,1,4.74-.47,13.73,13.73,0,0,1,8.9,2.78,12.34,12.34,0,0,0-4.33-1.5,19.73,19.73,0,0,0-4.54-.2,33.49,33.49,0,0,0-8.89,2,49.12,49.12,0,0,1-9.17,2.1A42,42,0,0,1,30.85,214.2Z"/><path class="cls-3" d="M81,189.1a21.24,21.24,0,0,1-2.32,5.47,27.18,27.18,0,0,1-3.57,4.8,20,20,0,0,0-3.36,4.54,9.72,9.72,0,0,0-1.23,5.49,7.88,7.88,0,0,1,.25-5.93,13.68,13.68,0,0,1,1.43-2.7c.29-.41.6-.82.91-1.21l1-1.14A49,49,0,0,0,77.78,194C78.92,192.41,80,190.8,81,189.1Z"/><path class="cls-2" d="M6.46,179.28c-.87-.32-2.21.64-2,1.42,1.47,4.62,5.69,13.8,16.14,15.19,13.44,1.79,19.62-3.61,34.31-4.06,1,0,2.06-1,1.92-1.79-.72-3.79-3.56-12.42-15-13C28.45,176.43,16.51,183,6.46,179.28Z"/><path class="cls-2" d="M86.87,151.37c.41-.71,1.61-.85,1.76-.2.87,3.88,1.82,12.36-4.12,19.5C76.73,180,70.58,180.3,60.7,189.28c-.71.65-1.79.66-2,0-1.1-3-2.76-10.67,4.64-18.17C71.85,162.49,82,159.69,86.87,151.37Z"/><path class="cls-3" d="M23.08,187.69c1.43.14,2.85.26,4.28.27s2.85,0,4.27,0a59.71,59.71,0,0,0,8.44-.83,24.26,24.26,0,0,1,8.75-.15A13.77,13.77,0,0,1,53,188.42a8.69,8.69,0,0,1,3.22,2.91,12.34,12.34,0,0,0-7.56-3.28,28,28,0,0,0-8.35.45,42.08,42.08,0,0,1-8.68.54A34.2,34.2,0,0,1,23.08,187.69Z"/><path class="cls-3" d="M74.38,170.92A24.14,24.14,0,0,1,71,176a30,30,0,0,1-4.45,4.28,23,23,0,0,0-4.22,4.08,11.89,11.89,0,0,0-2.51,5.31,9.26,9.26,0,0,1,1.62-5.93,17.93,17.93,0,0,1,4.26-4.55,54.23,54.23,0,0,0,4.51-3.93C71.64,173.9,73,172.45,74.38,170.92Z"/><path class="cls-2" d="M10.35,148.58a1.55,1.55,0,0,0-2.09,1.09c.12,4.85,1.51,14.73,10.4,17.88,11.47,4.06,18.34-.33,31.58,1.7a2,2,0,0,0,2.17-1.48c.32-3.94-.06-13.1-10.1-15.54C30.51,149.36,18.28,153.91,10.35,148.58Z"/><path class="cls-2" d="M89.12,133.79c.55-.65,1.67-.6,1.64.08-.17,4.06-1.44,12.78-8.59,19-9.38,8.16-15,7.39-26.12,14.79-.8.53-1.78.36-1.82-.32-.23-3.22.21-11.21,8.73-17.52C72.8,142.52,82.68,141.38,89.12,133.79Z"/><path class="cls-3" d="M22.9,159.74a38.86,38.86,0,0,0,3.77,1q1.89.44,3.81.72a48.2,48.2,0,0,0,7.67.56A19.13,19.13,0,0,1,46,163.38,9.08,9.08,0,0,1,51.51,169a10.06,10.06,0,0,0-5.86-4.57,22.08,22.08,0,0,0-7.49-1,34.34,34.34,0,0,1-7.89-.89A27.14,27.14,0,0,1,22.9,159.74Z"/><path class="cls-3" d="M73,151.43A25.87,25.87,0,0,1,68.71,156a31.4,31.4,0,0,1-5.13,3.62,25.79,25.79,0,0,0-4.87,3.47,14.52,14.52,0,0,0-3.57,4.85,10.76,10.76,0,0,1,2.79-5.6,18.93,18.93,0,0,1,5-3.93,56.92,56.92,0,0,0,5.14-3.26C69.71,154,71.34,152.73,73,151.43Z"/><path class="cls-2" d="M21.53,118.66c-.49-.57-1.93-.06-2.12.75-1.11,4.84-2.39,14.89,4.67,19.46,9.14,5.93,16.34,2.67,27.64,6.88A2,2,0,0,0,54,144.63c1.28-3.91,3.23-13.15-5.11-17.22C39.15,122.65,27.19,125.22,21.53,118.66Z"/><path class="cls-2" d="M95.53,116.47c.67-.57,1.66-.33,1.47.34-1.17,4.06-4.48,12.63-12.5,17.72-10.49,6.68-15.34,5-27.18,10.58-.86.4-1.68.07-1.55-.61A23.2,23.2,0,0,1,68,128.34C78.64,122.61,87.83,123.06,95.53,116.47Z"/><path class="cls-3" d="M29.8,131.78a38.94,38.94,0,0,0,6.37,3,37.33,37.33,0,0,0,6.71,1.79l1.79.39c.59.17,1.18.36,1.76.56a12.26,12.26,0,0,1,3.23,1.82,8,8,0,0,1,3.27,6.32,8.85,8.85,0,0,0-3.9-5.45A16.48,16.48,0,0,0,42.65,138a27.29,27.29,0,0,1-6.9-2.17A21.75,21.75,0,0,1,29.8,131.78Z"/><path class="cls-3" d="M76.56,131.58a26.46,26.46,0,0,1-4.88,3.87,32.18,32.18,0,0,1-5.58,2.84A25.71,25.71,0,0,0,60.79,141a17.3,17.3,0,0,0-4.35,4.19,12,12,0,0,1,3.69-5A19.37,19.37,0,0,1,65.6,137,77.92,77.92,0,0,0,76.56,131.58Z"/><path class="cls-2" d="M36.61,90.07a.91.91,0,0,0-1.65.54c0,5.25.84,16.16,7.58,22.18,8.68,7.75,14.15,5.3,24.35,11.52a1.16,1.16,0,0,0,1.76-.86c.45-4,.63-13.88-7.16-19.62C52.33,97.09,42.64,98.23,36.61,90.07Z"/><path class="cls-2" d="M100.28,98.37a.78.78,0,0,1,1.34.61c-.48,4.44-2.22,13.57-8.48,18-8.06,5.74-12.45,3.16-21.64,7.46a1,1,0,0,1-1.4-.89c0-3.46.76-11.79,7.88-15.9C86.34,102.83,94.42,104.7,100.28,98.37Z"/><path class="cls-3" d="M50.61,106.72a30.17,30.17,0,0,0,5,4.09,29.48,29.48,0,0,0,5.65,2.88,11.65,11.65,0,0,1,5.41,4.07,7.7,7.7,0,0,1,1.06,6.49,8.75,8.75,0,0,0-1.93-5.85A12.3,12.3,0,0,0,60.73,115a22.25,22.25,0,0,1-5.78-3.3A17.57,17.57,0,0,1,50.61,106.72Z"/><path class="cls-3" d="M92,113.8a26.27,26.27,0,0,1-5.27,3.09,30.45,30.45,0,0,1-5.82,2,25,25,0,0,0-5.51,2,19.77,19.77,0,0,0-4.87,3.42,12.81,12.81,0,0,1,4.33-4.36,18.91,18.91,0,0,1,5.74-2.38A78.52,78.52,0,0,0,92,113.8Z"/><path class="cls-2" d="M61.24,65.78c-.1-.67-1.41-.6-1.93.11-3.09,4.23-8.75,13.33-5.65,19.7,4,8.32,11,7.35,17.55,14.74.47.53,1.69.32,2.28-.38,2.82-3.36,8.68-11.63,4.25-18C72.59,74.61,62.39,73.59,61.24,65.78Z"/><path class="cls-2" d="M118.84,85.28c.78-.35,1.46.17,1,.77-2.83,3.57-9.47,10.86-18.13,13.37-11.28,3.27-14.2.16-25.92,2-.84.13-1.32-.44-.89-1.06,2-3,7.59-9.84,17-11.85C102.78,86.16,109.71,89.34,118.84,85.28Z"/><path class="cls-3" d="M61.27,80.54a26.24,26.24,0,0,0,3.49,4.91,24.53,24.53,0,0,0,4.5,3.86A9.3,9.3,0,0,1,73,94.48a8.08,8.08,0,0,1-.85,6.13A9.72,9.72,0,0,0,72,94.8a12.56,12.56,0,0,0-.6-1.29,10.14,10.14,0,0,0-.83-1.15l-.46-.54-.52-.49a9.72,9.72,0,0,0-1.12-.89c-.36-.29-.82-.62-1.24-.93s-.82-.66-1.2-1a17.3,17.3,0,0,1-2.09-2.36A15,15,0,0,1,61.27,80.54Z"/><path class="cls-3" d="M96.94,94.18a25.24,25.24,0,0,1-5.45,2.25,28.14,28.14,0,0,1-5.82,1.07,22.74,22.74,0,0,0-5.51,1.16A21.08,21.08,0,0,0,75,101.25a13,13,0,0,1,4.71-3.59,17.14,17.14,0,0,1,5.8-1.54,49.47,49.47,0,0,0,5.69-.74C93.14,95,95,94.62,96.94,94.18Z"/><path class="cls-2" d="M87.31,44.43c.08-.68-1.11-.8-1.75-.18C81.76,48,74.46,56.13,75.65,62.9c1.54,8.85,8,8.94,12,17.29.29.6,1.44.58,2.15,0,3.36-2.92,10.67-10.25,8.25-17.23C95.29,54.85,86.41,52.32,87.31,44.43Z"/><path class="cls-2" d="M134.5,72.46c.8-.23,1.28.39.71.92-3.46,3.14-11.3,9.43-19.78,10.6-11,1.52-12.9-2-23.9-2-.79,0-1.07-.64-.54-1.19,2.54-2.64,9.26-8.65,18.23-9.22C119.68,70.89,125.19,75.12,134.5,72.46Z"/><path class="cls-3" d="M83.69,59a25.75,25.75,0,0,0,2,5.47A23.76,23.76,0,0,0,87.09,67c.29.38.55.77.85,1.13s.61.71,1,1.14A9.75,9.75,0,0,1,90.42,72a8.75,8.75,0,0,1,.39,3.12,9.24,9.24,0,0,1-2.32,5.53,12.22,12.22,0,0,0,1.24-5.54,8.29,8.29,0,0,0-1.93-5l-.43-.55-.48-.6A14.08,14.08,0,0,1,86,67.67a15.7,15.7,0,0,1-1.34-2.73A14.62,14.62,0,0,1,83.69,59Z"/><path class="cls-3" d="M112.41,78A22.46,22.46,0,0,1,107,79.41a24.69,24.69,0,0,1-5.63.17,19.31,19.31,0,0,0-5.3.36,22.61,22.61,0,0,0-5.16,1.75,12.65,12.65,0,0,1,4.88-2.79,14.93,14.93,0,0,1,5.68-.7,44.76,44.76,0,0,0,5.43.14C108.72,78.28,110.55,78.15,112.41,78Z"/><path class="cls-2" d="M115.94,27.11c.24-.66-.8-.95-1.52-.43-4.34,3.14-12.89,10.14-13.5,17-.79,9,5,10.05,6.59,19,.12.64,1.16.8,1.95.29,3.75-2.39,12.17-8.6,11.69-15.9C120.59,38.59,113.2,34.79,115.94,27.11Z"/><path class="cls-2" d="M151.94,62c.8-.11,1.09.59.43,1-3.93,2.63-12.64,7.73-20.66,7.61-10.39-.16-11.22-4-21.17-5.65-.72-.12-.82-.8-.2-1.27,3-2.24,10.5-7.22,18.77-6.44C138.79,58.19,142.78,63.26,151.94,62Z"/><path class="cls-3" d="M109.11,41.05a28.18,28.18,0,0,0,.44,5.76,20.54,20.54,0,0,0,.73,2.72c.18.43.31.88.52,1.3s.4.87.61,1.36a8.77,8.77,0,0,1,.14,6.14,10.69,10.69,0,0,1-3.43,4.87A15.36,15.36,0,0,0,110.51,58a8.81,8.81,0,0,0-.39-5.33c-.3-.8-.81-1.81-1.08-2.77a16,16,0,0,1-.56-3A15,15,0,0,1,109.11,41.05Z"/><path class="cls-3" d="M130.43,64.2a19.91,19.91,0,0,1-5.22.58,20.8,20.8,0,0,1-5.23-.7,16,16,0,0,0-4.93-.4,22.23,22.23,0,0,0-5,.95,12,12,0,0,1,4.88-2,12.69,12.69,0,0,1,5.38.12,35.77,35.77,0,0,0,5,1C127,63.93,128.69,64.07,130.43,64.2Z"/><path class="cls-2" d="M146.07,14.07c.37-.62-.5-1.06-1.29-.64-4.69,2.48-14.15,8.2-16.37,14.92-2.92,8.81,2.07,10.7,1.33,19.8-.05.66.85,1,1.7.58,4-1.83,13.17-6.77,14.51-14.11C147.5,26.13,141.71,21.29,146.07,14.07Z"/><path class="cls-2" d="M170.52,54.14c.76,0,.86.76.14,1.1-4.26,2-13.5,5.85-20.83,4.51-9.45-1.72-9.26-5.68-17.92-8.82-.61-.22-.54-.91.14-1.29,3.22-1.8,11.32-5.64,18.67-3.64C159.36,48.35,161.79,54,170.52,54.14Z"/><path class="cls-3" d="M136.47,26.91a33.61,33.61,0,0,0-1,5.8,25,25,0,0,0,0,2.87c.07,1,.25,1.81.39,2.92a9.82,9.82,0,0,1-1.42,6,12.23,12.23,0,0,1-4.31,4.24A18.4,18.4,0,0,0,133.51,44a10.76,10.76,0,0,0,.87-2.66,12.88,12.88,0,0,0,.19-1.37,10.62,10.62,0,0,0-.06-1.38c-.08-.86-.3-2-.32-3a17.38,17.38,0,0,1,.24-3.06A16.9,16.9,0,0,1,136.47,26.91Z"/><path class="cls-3" d="M150.24,53.12a17,17,0,0,1-4.88-.21,18.31,18.31,0,0,1-2.4-.6c-.4-.12-.78-.29-1.17-.44l-1.11-.49a12.82,12.82,0,0,0-4.4-1.09,21,21,0,0,0-4.73.21,10.93,10.93,0,0,1,4.75-1.29,11.8,11.8,0,0,1,2.51.15,11.67,11.67,0,0,1,2.44.75,29,29,0,0,0,4.36,1.75C147.12,52.33,148.66,52.73,150.24,53.12Z"/><path class="cls-2" d="M176.73,5.4c.49-.57-.2-1.13-1-.83-4.91,1.81-14.93,6.15-18.59,12.5-4.8,8.35-.71,11-3.6,19.92-.21.64.55,1.08,1.41.82,4.1-1.24,13.72-4.83,16.73-12C175.13,17.61,171,12,176.73,5.4Z"/><path class="cls-2" d="M189.59,49c.7.12.61.89-.13,1.13-4.44,1.41-13.91,3.85-20.34,1.4-8.26-3.14-7.13-7.07-14.29-11.49-.51-.32-.27-1,.44-1.27,3.39-1.32,11.74-4,18-.89C180.67,41.56,181.54,47.61,189.59,49Z"/><path class="cls-3" d="M164.83,16.8a42.55,42.55,0,0,0-2.24,5.63,27,27,0,0,0-.7,2.89c-.18,1-.22,1.87-.36,3a11.27,11.27,0,0,1-2.74,5.75,13.59,13.59,0,0,1-5,3.61,21.31,21.31,0,0,0,4.2-4.29,13.42,13.42,0,0,0,1.42-2.53c.22-.43.33-.9.51-1.35a13.33,13.33,0,0,0,.28-1.4c.14-.89.21-2,.45-3.05a18.42,18.42,0,0,1,1-3A19,19,0,0,1,164.83,16.8Z"/><path class="cls-3" d="M171.11,45A15.24,15.24,0,0,1,164.59,43a11.59,11.59,0,0,1-1-.63l-.89-.65a10.49,10.49,0,0,0-3.77-1.7,18.69,18.69,0,0,0-4.34-.46,9.59,9.59,0,0,1,4.52-.61,9.05,9.05,0,0,1,4.4,1.65l.89.68c.28.21.57.41.86.61.59.41,1.22.75,1.85,1.11C168.4,43.74,169.74,44.36,171.11,45Z"/><path class="cls-2" d="M207.09,1.09c.59-.5.08-1.15-.75-1-5,1.11-15.27,4-20.18,9.84-6.43,7.63-3.29,10.82-8.12,19.36-.34.61.24,1.16,1.1,1,4.08-.64,13.83-2.83,18.34-9.54C202.68,13.07,200.2,6.83,207.09,1.09Z"/><path class="cls-2" d="M208.56,46.76c.62.23.35,1-.4,1.12-4.48.76-13.88,1.79-19.24-1.63C182,41.86,184,38.08,178.5,32.6c-.39-.39,0-1,.71-1.21,3.44-.82,11.8-2.25,16.86,1.76C202.06,37.9,201.4,44.12,208.56,46.76Z"/><path class="cls-3" d="M193.34,10.78A53.37,53.37,0,0,0,190,16.07a30.81,30.81,0,0,0-1.34,2.78c-.18.47-.39.94-.54,1.42s-.32,1-.51,1.51a13,13,0,0,1-3.83,5.3,14.55,14.55,0,0,1-5.68,3A23.31,23.31,0,0,0,183,26.29a14.4,14.4,0,0,0,3.27-5c.18-.45.35-.93.54-1.46a13.29,13.29,0,0,1,.62-1.51,21.06,21.06,0,0,1,1.61-2.81A22.18,22.18,0,0,1,193.34,10.78Z"/><path class="cls-3" d="M192.36,39.92a12.63,12.63,0,0,1-5.59-3,8.13,8.13,0,0,1-.76-.79l-.35-.42-.32-.36a8.4,8.4,0,0,0-3-2.22,16,16,0,0,0-3.89-1.07,8.28,8.28,0,0,1,4.25,0,7.55,7.55,0,0,1,3.73,2.34l.36.43.3.38c.2.25.42.49.64.73a17,17,0,0,0,1.43,1.38C190.13,38.28,191.22,39.1,192.36,39.92Z"/><path class="cls-2" d="M236.4,1.08c.68-.41.36-1.14-.47-1.08-4.91.41-15.22,1.86-21.17,7-7.81,6.72-5.67,10.37-12.2,18.23-.47.56-.06,1.2.77,1.19,3.95,0,13.55-.82,19.37-6.9C229.42,12.48,228.59,5.86,236.4,1.08Z"/><path class="cls-2" d="M226.85,47.31c.52.33.09,1.06-.65,1.07-4.38.1-13.42-.28-17.6-4.53-5.35-5.45-2.58-9-6.4-15.27-.28-.45.23-1,1-1.11,3.39-.32,11.51-.54,15.27,4.25C222.88,37.39,220.77,43.57,226.85,47.31Z"/><path class="cls-3" d="M221.24,8.84a63.07,63.07,0,0,0-4.33,4.81c-.65.84-1.32,1.67-1.89,2.56-.29.44-.58.88-.84,1.33s-.52.92-.82,1.42a15.47,15.47,0,0,1-2.1,2.66,16.08,16.08,0,0,1-2.65,2.08A15.18,15.18,0,0,1,202.42,26,24,24,0,0,0,208,22.81a16.87,16.87,0,0,0,4.18-4.58c.27-.42.55-.89.84-1.38s.6-1,.93-1.39a23.73,23.73,0,0,1,2.15-2.53A24.67,24.67,0,0,1,221.24,8.84Z"/><path class="cls-3" d="M213.33,38a10.09,10.09,0,0,1-3.24-2.3,10.28,10.28,0,0,1-1.28-1.58,8.73,8.73,0,0,1-.51-.9c-.15-.32-.3-.63-.42-.86a7,7,0,0,0-2.26-2.65,12.85,12.85,0,0,0-3.39-1.64,7,7,0,0,1,4,.71A7.27,7.27,0,0,1,207.89,30a6.69,6.69,0,0,1,1.23,1.74c.16.34.29.62.4.89s.27.54.41.8a15.28,15.28,0,0,0,1,1.57A32.87,32.87,0,0,0,213.33,38Z"/><path class="cls-2" d="M264,5.26c.73-.32.6-1.1-.19-1.15-4.74-.3-14.8-.31-21.61,4-8.93,5.64-7.79,9.62-15.79,16.58-.58.5-.35,1.2.43,1.32,3.71.53,12.91,1.16,19.84-4.13C254.68,15.75,255.47,9,264,5.26Z"/><path class="cls-2" d="M243.93,50.64c.43.41-.16,1.08-.86,1-4.16-.57-12.58-2.32-15.48-7.26-3.71-6.3-.28-9.42-2.34-16.36-.15-.49.47-1,1.15-1,3.26.18,10.93,1.16,13.33,6.54C242.57,40,239.1,45.92,243.93,50.64Z"/><path class="cls-3" d="M247.84,10.9q-2.7,2-5.14,4.19a40.65,40.65,0,0,0-4.52,4.75,17.14,17.14,0,0,1-2.54,2.35,17.35,17.35,0,0,1-3,1.74,15.12,15.12,0,0,1-6.58,1.47A23.64,23.64,0,0,0,232.18,23a19,19,0,0,0,4.95-4l1.1-1.26c.39-.41.77-.84,1.19-1.23A26.91,26.91,0,0,1,242,14.26,27.33,27.33,0,0,1,247.84,10.9Z"/><path class="cls-3" d="M233.44,39.15a9.15,9.15,0,0,1-2.52-2.87,9.53,9.53,0,0,1-.81-1.78,7.9,7.9,0,0,1-.27-1l-.18-.92a6.3,6.3,0,0,0-1.41-3,10.16,10.16,0,0,0-2.84-2.18A6,6,0,0,1,229,28.89a5.75,5.75,0,0,1,2,3.48l.16.91c0,.28.11.57.18.85a17.19,17.19,0,0,0,.53,1.68A29.33,29.33,0,0,0,233.44,39.15Z"/><path class="cls-2" d="M289.22,13.48c.77-.22.84-1,.09-1.2-4.46-1-14-2.46-21.51.91-9.79,4.39-9.66,8.59-18.88,14.45-.66.42-.61,1.16.1,1.39,3.37,1.09,11.93,3.1,19.77-1.25C277.85,22.76,280.22,16,289.22,13.48Z"/><path class="cls-2" d="M259.33,56.62c.3.49-.42,1.09-1.06.88-3.81-1.22-11.37-4.28-12.93-9.74-2-6.94,2-9.59,1.7-16.92,0-.52.69-1,1.33-.82,3,.66,10.06,2.79,11,8.61C260.58,45.56,255.87,51.08,259.33,56.62Z"/><path class="cls-3" d="M272.5,16.84c-2,1.08-3.93,2.25-5.8,3.47a45.86,45.86,0,0,0-5.3,4.05,17.48,17.48,0,0,1-6.1,3.36,15,15,0,0,1-6.84.6,22.27,22.27,0,0,0,6.47-1.62,20.77,20.77,0,0,0,5.57-3.4,30.31,30.31,0,0,1,5.65-3.92A28.76,28.76,0,0,1,272.5,16.84Z"/><path class="cls-3" d="M252.12,43.34A8.77,8.77,0,0,1,250.41,40a10.41,10.41,0,0,1-.33-3.8,6.2,6.2,0,0,0-.54-3.18,7.8,7.8,0,0,0-2.22-2.69,5.27,5.27,0,0,1,3.15,2.13,5.9,5.9,0,0,1,1,3.84,16.29,16.29,0,0,0,0,3.49A27.16,27.16,0,0,0,252.12,43.34Z"/><path class="cls-2" d="M274.81,46.86a31.16,31.16,0,0,0,4,.92c6.65,1,11.36-.91,19.1-.37.73.05,1.21-.66.72-1.06-5.17-4.18-5.81-8-10.81-11.2a25.51,25.51,0,0,0-3.34-1.77c-6.16-2.75-14.88-1.4-20.16-.14l-.82.21c-.59.16-.95.65-.8,1.08.07.2.15.41.23.61C264.5,39,268,44.87,274.81,46.86Z"/><path class="cls-3" d="M282.81,41.21a50.41,50.41,0,0,1-5.18-1.33c-1.7-.5-3.37-1.08-5-1.68s-3.32-1.26-4.94-2a53.28,53.28,0,0,1-4.81-2.34A53.08,53.08,0,0,1,268,35.21c1.7.51,3.38,1.09,5,1.69s3.32,1.26,4.94,2A53.28,53.28,0,0,1,282.81,41.21Z"/><path class="cls-2" d="M58.69,282.1c-.27,1.08-1.9,1.72-2.39.94-2.9-4.65-7.77-15-2.58-25.73,6.54-13.58,14.51-15.87,23.39-28.95.62-.92,2-1.26,2.55-.64,2.71,2.95,8.27,10.9,2.11,21.85C74.36,262.74,61.76,269.81,58.69,282.1Z"/><path class="cls-2" d="M129.77,223.94c.88.06,1.67-1,1.16-1.49-3-3.17-10-9.12-19.45-8-12.29,1.43-16,6.78-29,10.27-.94.26-1.57,1.22-1.18,1.81,1.86,2.81,7.28,9,17.87,6.9C111.51,230.92,119.68,223.28,129.77,223.94Z"/><path class="cls-3" d="M61.82,260.38a41.38,41.38,0,0,1,3.85-8.66A48.4,48.4,0,0,1,71.21,244a32.57,32.57,0,0,0,5.34-7.5,18.47,18.47,0,0,0,1.54-4.33,11.58,11.58,0,0,0,.15-4.62,13.13,13.13,0,0,1-.71,9.39,27.52,27.52,0,0,1-5.28,8,68,68,0,0,0-5.66,7.4A80.6,80.6,0,0,0,61.82,260.38Z"/><path class="cls-3" d="M105.62,223.44q-3.08.42-6,1.08a49.94,49.94,0,0,0-5.83,1.68l-1.51.48c-.51.14-1,.26-1.54.38a15.57,15.57,0,0,1-3.19.27,8.73,8.73,0,0,1-5.88-2.06,10.92,10.92,0,0,0,5.85,1,21.76,21.76,0,0,0,5.8-1.36,29.32,29.32,0,0,1,6.11-1.43A23.63,23.63,0,0,1,105.62,223.44Z"/><path class="cls-2" d="M87.61,300.42c0,1.06-1.55,2-2.27,1.34-4.24-3.75-12-12.37-9.31-23.43,3.42-14,11.24-17.62,17.25-31.54a2,2,0,0,1,2.53-1.08c3.6,2.25,11.45,8.63,7.76,20C99.15,279.4,87.7,288.41,87.61,300.42Z"/><path class="cls-2" d="M147.2,232.87c.92-.11,1.49-1.2.84-1.61-3.9-2.4-12.63-6.67-22.22-3.9-12.51,3.6-15,9.3-27.81,15-.92.41-1.34,1.43-.78,1.91,2.67,2.29,9.94,7.1,20.49,3.11C130,242.75,136.56,234.11,147.2,232.87Z"/><path class="cls-3" d="M85.36,279.62a35.4,35.4,0,0,1,1.92-8.89,41.73,41.73,0,0,1,3.88-8.29,27.26,27.26,0,0,0,3.65-8,14.84,14.84,0,0,0,.49-4.35,10.15,10.15,0,0,0-1-4.3A9.52,9.52,0,0,1,96,250a13.9,13.9,0,0,1-.11,4.64,23.89,23.89,0,0,1-3.53,8.5,58.3,58.3,0,0,0-4.06,7.95A65.16,65.16,0,0,0,85.36,279.62Z"/><path class="cls-3" d="M122,236.86c-2.09.63-4.11,1.38-6.1,2.17a53.6,53.6,0,0,0-5.79,2.71,19,19,0,0,1-6.3,2.19,10.45,10.45,0,0,1-6.51-.89,13.57,13.57,0,0,0,6.31-.17,24.07,24.07,0,0,0,5.83-2.35,31.72,31.72,0,0,1,6.1-2.51A26.32,26.32,0,0,1,122,236.86Z"/><path class="cls-2" d="M122.44,311.66c.25,1-1.13,2.12-2,1.68-5.35-2.61-15.63-9-15.59-19.8,0-13.6,7.32-18.5,10.09-32.59a2.06,2.06,0,0,1,2.36-1.49c4.33,1.42,14.09,5.86,13.09,17.1C129.18,290.05,119.54,300.58,122.44,311.66Z"/><path class="cls-2" d="M167.38,238c.92-.27,1.24-1.38.47-1.64-4.6-1.52-14.65-3.88-23.91.47-12.09,5.67-13.26,11.44-25.19,19.16-.86.55-1,1.58-.34,1.92a23.39,23.39,0,0,0,22.09-1C152,250.31,156.72,241.07,167.38,238Z"/><path class="cls-3" d="M114.89,292.92a30.4,30.4,0,0,1-.17-8.68,35.65,35.65,0,0,1,2-8.51,21.71,21.71,0,0,0,1.73-8.15,11.61,11.61,0,0,0-2.77-7.75,10.43,10.43,0,0,1,3.85,7.7,16.61,16.61,0,0,1-.26,4.45c-.17.72-.32,1.45-.55,2.15l-.7,2.08a48,48,0,0,0-2.26,8.19c-.26,1.39-.47,2.8-.61,4.23A40.83,40.83,0,0,0,114.89,292.92Z"/><path class="cls-3" d="M142.28,246.33c-2,1-4,2.07-5.86,3.19a58,58,0,0,0-5.46,3.69,19.88,19.88,0,0,1-6.07,3.21,12.09,12.09,0,0,1-6.76.29,16.31,16.31,0,0,0,6.4-1.31,25.18,25.18,0,0,0,5.59-3.29,34,34,0,0,1,5.79-3.54A29.4,29.4,0,0,1,142.28,246.33Z"/><path class="cls-2" d="M161.11,315.13c.49.84-.64,2.15-1.67,1.93-6.12-1.34-18.27-5.21-20.88-15.09-3.3-12.53,3-18.44,2.39-32a2,2,0,0,1,2.08-1.83c4.82.49,16,2.75,17.68,13.29C162.77,294.06,155.44,305.57,161.11,315.13Z"/><path class="cls-2" d="M189.29,239c.88-.42.93-1.51.09-1.61-5.07-.55-15.94-.9-24.4,4.84-11.08,7.5-10.87,13.06-21.31,22.45-.75.67-.68,1.66.13,1.84a26.66,26.66,0,0,0,22.53-5.06C176.56,253.19,179.13,243.79,189.29,239Z"/><path class="cls-3" d="M148.79,299.45a26.4,26.4,0,0,1-2.29-8,30.38,30.38,0,0,1,.05-8.41,17.64,17.64,0,0,0-.36-7.89,11.7,11.7,0,0,0-4.71-6.33,10.4,10.4,0,0,1,5.73,6,16.49,16.49,0,0,1,.71,8.46,39.12,39.12,0,0,0-.35,8.1c.08,1.35.22,2.71.42,4.06A35.35,35.35,0,0,0,148.79,299.45Z"/><path class="cls-3" d="M165.59,251.33c-1.84,1.3-3.6,2.68-5.31,4.09a53.23,53.23,0,0,0-4.83,4.54,19.51,19.51,0,0,1-5.56,4.1,13.26,13.26,0,0,1-6.66,1.4,18.58,18.58,0,0,0,6.15-2.36,24.07,24.07,0,0,0,5.06-4.09,32.37,32.37,0,0,1,5.19-4.45A29.13,29.13,0,0,1,165.59,251.33Z"/><path class="cls-2" d="M201.28,310.76c.7.66-.13,2.07-1.22,2.07-6.51,0-19.78-1.18-24.81-9.68-6.4-10.82-1.38-17.45-5.28-29.76-.27-.87.63-2,1.69-2.07,5.05-.46,17-.49,21.23,8.83C198,291.28,193.28,303.17,201.28,310.76Z"/><path class="cls-2" d="M211.82,235.85c.79-.54.59-1.56-.29-1.49-5.27.41-16.42,2.08-23.68,8.92-9.52,9-8,14.06-16.39,24.66-.6.77-.3,1.66.58,1.67,4.17.07,14.47-.67,21.79-8.87C202.27,251.28,202.66,242.16,211.82,235.85Z"/><path class="cls-3" d="M185.07,298.87a24.42,24.42,0,0,1-4.25-6.89,27.16,27.16,0,0,1-2-7.93,15,15,0,0,0-2.46-7.19,12.9,12.9,0,0,0-6.15-4.66,11,11,0,0,1,7,4,14.3,14.3,0,0,1,3,7.7,34.4,34.4,0,0,0,1.61,7.69,38.68,38.68,0,0,0,1.43,3.7A33.22,33.22,0,0,0,185.07,298.87Z"/><path class="cls-3" d="M190.67,251.6c-1.58,1.56-3.07,3.17-4.5,4.81a48.34,48.34,0,0,0-3.92,5.19,17.86,17.86,0,0,1-4.79,4.82,13.49,13.49,0,0,1-6.25,2.37,19.54,19.54,0,0,0,5.61-3.24,21.82,21.82,0,0,0,4.28-4.72,30.23,30.23,0,0,1,4.29-5.16A27.74,27.74,0,0,1,190.67,251.6Z"/><path class="cls-2" d="M240.63,299.08c.85.46.34,1.9-.75,2.1-6.51,1.22-20.09,2.73-27.14-4-9-8.62-5.5-15.61-12.36-26.13-.48-.74.17-1.92,1.22-2.21,5-1.37,17.05-3.62,23.53,4.09C232.82,282.07,230.87,293.74,240.63,299.08Z"/><path class="cls-2" d="M233.86,228.92c.67-.65.23-1.54-.65-1.32-5.21,1.33-16.08,4.89-21.83,12.51-7.53,10-4.75,14.38-10.78,25.66a.91.91,0,0,0,1,1.42c4.25-.72,14.49-3.32,19.95-12.18C227.83,244.8,226.09,236.37,233.86,228.92Z"/><path class="cls-3" d="M221.62,291.41a24.46,24.46,0,0,1-5.87-5.44,25.31,25.31,0,0,1-3.93-7.05,14.15,14.15,0,0,0-.79-1.72l-.45-.83-.54-.78a15.18,15.18,0,0,0-1.18-1.47,17,17,0,0,0-1.42-1.26,14.69,14.69,0,0,0-7.09-3,12.29,12.29,0,0,1,7.73,2.08,13.45,13.45,0,0,1,5,6.44,31.94,31.94,0,0,0,3.51,6.92,37.05,37.05,0,0,0,2.34,3.14A35,35,0,0,0,221.62,291.41Z"/><path class="cls-3" d="M216.2,247.23c-1.25,1.72-2.4,3.49-3.47,5.29a40.92,40.92,0,0,0-2.79,5.58,15.76,15.76,0,0,1-3.8,5.33,13.18,13.18,0,0,1-5.6,3.17,20,20,0,0,0,4.84-3.93,18.87,18.87,0,0,0,3.29-5.13,27.07,27.07,0,0,1,3.16-5.62A25.26,25.26,0,0,1,216.2,247.23Z"/><path class="cls-5" d="M62.6,226.11c-5.34,4.24-10.94,8.08-16.6,11.82s-11.45,7.31-17.46,10.52c5.33-4.24,10.93-8.09,16.6-11.83S56.59,229.32,62.6,226.11Z"/></g></g></svg>