<svg xmlns="http://www.w3.org/2000/svg" viewBox="0 0 339.42 369.37"><defs><style>.cls-1{fill:#f4c416;}.cls-2{fill:#52a470;}.cls-3{fill:#316243;}.cls-4{fill:#ab890f;}.cls-5{fill:#39734e;}</style></defs><title>EIR Logo_2</title><g id="Layer_2" data-name="Layer 2"><g id="Layer_1-2" data-name="Layer 1"><path class="cls-1" d="M162.47,262.91a22,22,0,0,0,.47,3.26c1.18,5.16,4.26,7.51,6.2,13.22a.59.59,0,0,0,1.12,0c2-5.71,5-8.06,6.21-13.22a22,22,0,0,0,.47-3.26c.43-5.77-3.48-11.23-6.21-14.27l-.44-.46a.8.8,0,0,0-1.16,0c-.16.15-.31.31-.46.48C165.93,251.71,162,257.15,162.47,262.91Z"/><path class="cls-2" d="M141.75,262.84a.58.58,0,0,0,.36,1.05c3.35-.06,10.3-.72,14.06-5.09,4.84-5.62,3.22-9.08,7.07-15.66a.74.74,0,0,0-.57-1.11c-2.58-.24-8.86-.25-12.43,4.79C146,252.74,146.88,258.9,141.75,262.84Z"/><path class="cls-2" d="M146.32,222.14a.49.49,0,0,1,.37-.86c2.84.26,8.68,1.26,11.59,5.2,3.75,5.08,2.15,7.9,5,13.72a.63.63,0,0,1-.55.91c-2.21,0-7.52-.36-10.23-4.85C149.32,231,150.42,225.81,146.32,222.14Z"/><path class="cls-3" d="M151.71,256.65a33.94,33.94,0,0,0,2.63-3.88,24.91,24.91,0,0,0,2-4.18,10.22,10.22,0,0,1,2.69-4,8,8,0,0,1,4.29-2.05,10,10,0,0,0-3.81,2.55,11.35,11.35,0,0,0-2.34,3.85A18.38,18.38,0,0,1,151.71,256.65Z"/><path class="cls-3" d="M155.52,231.17a10.19,10.19,0,0,1,2.25,2.29,12.12,12.12,0,0,1,1.53,2.86,7.43,7.43,0,0,0,4,4.34,5.09,5.09,0,0,1-3-1.29,6.86,6.86,0,0,1-1.86-2.74A24,24,0,0,0,155.52,231.17Z"/><path class="cls-2" d="M122.61,257a.59.59,0,0,0,.15,1.1c3.3.61,10.24,1.31,14.79-2.23,5.85-4.57,4.93-8.28,10-14a.74.74,0,0,0-.34-1.2c-2.49-.75-8.64-2-13.13,2.26C128.81,248,128.42,254.16,122.61,257Z"/><path class="cls-2" d="M135.07,218a.5.5,0,0,1,.54-.77c2.73.81,8.26,2.94,10.35,7.37,2.68,5.71.56,8.17,2.21,14.43a.63.63,0,0,1-.72.78c-2.17-.39-7.31-1.82-9.08-6.75C136.29,227.25,138.38,222.4,135.07,218Z"/><path class="cls-3" d="M133.6,252.89a35.69,35.69,0,0,0,3.34-3.28,25.52,25.52,0,0,0,2.75-3.72,10.29,10.29,0,0,1,3.42-3.43,8.07,8.07,0,0,1,4.61-1.17,10,10,0,0,0-4.23,1.75,11.24,11.24,0,0,0-3.05,3.32A18.31,18.31,0,0,1,133.6,252.89Z"/><path class="cls-3" d="M142.33,228.66a10.21,10.21,0,0,1,1.75,2.69,11.58,11.58,0,0,1,.94,3.1,7.48,7.48,0,0,0,3.06,5,5.15,5.15,0,0,1-2.64-1.85,6.73,6.73,0,0,1-1.29-3A24,24,0,0,0,142.33,228.66Z"/><path class="cls-2" d="M105,247.55a.58.58,0,0,0-.07,1.1c3.12,1.24,9.79,3.3,14.94.71,6.63-3.33,6.46-7.15,12.55-11.73a.75.75,0,0,0-.1-1.25c-2.29-1.22-8.09-3.63-13.32-.36C112.84,239.87,111.25,245.89,105,247.55Z"/><path class="cls-2" d="M124.86,211.74a.5.5,0,0,1,.68-.66c2.51,1.33,7.52,4.51,8.7,9.26,1.51,6.13-1.06,8.12-.66,14.59a.63.63,0,0,1-.86.62c-2.05-.81-6.81-3.22-7.58-8.41C124.23,221.05,127.24,216.69,124.86,211.74Z"/><path class="cls-3" d="M116.57,245.66a34.82,34.82,0,0,0,3.92-2.57,24.55,24.55,0,0,0,3.42-3.1,10.22,10.22,0,0,1,4-2.69,7.89,7.89,0,0,1,4.75-.24,9.93,9.93,0,0,0-4.5.88,11.49,11.49,0,0,0-3.64,2.65A18.21,18.21,0,0,1,116.57,245.66Z"/><path class="cls-3" d="M129.88,223.61a9.92,9.92,0,0,1,1.2,3,11.63,11.63,0,0,1,.31,3.22,7.42,7.42,0,0,0,2,5.54,5.11,5.11,0,0,1-2.24-2.33,6.69,6.69,0,0,1-.66-3.24A24.15,24.15,0,0,0,129.88,223.61Z"/><path class="cls-2" d="M89.57,234.81a.58.58,0,0,0-.28,1.07c2.8,1.83,8.94,5.15,14.5,3.63,7.16-2,7.74-5.75,14.61-9a.75.75,0,0,0,.14-1.25c-2-1.64-7.21-5.14-13-3C98.77,228.82,96,234.41,89.57,234.81Z"/><path class="cls-2" d="M116.07,203.59a.5.5,0,0,1,.79-.51c2.21,1.8,6.5,5.89,6.72,10.78.28,6.31-2.63,7.76-3.51,14.18a.62.62,0,0,1-1,.44c-1.86-1.19-6-4.49-5.79-9.73C113.63,212.6,117.43,208.92,116.07,203.59Z"/><path class="cls-3" d="M101.29,235.23a33.76,33.76,0,0,0,4.35-1.75,25.24,25.24,0,0,0,4-2.37,10.19,10.19,0,0,1,4.48-1.85,8,8,0,0,1,4.7.69,10.12,10.12,0,0,0-4.58,0,11.48,11.48,0,0,0-4.09,1.89A18.32,18.32,0,0,1,101.29,235.23Z"/><path class="cls-3" d="M118.67,216.22a10.21,10.21,0,0,1,.59,3.15,11.71,11.71,0,0,1-.33,3.23,7.46,7.46,0,0,0,.89,5.83,5.1,5.1,0,0,1-1.73-2.73,6.74,6.74,0,0,1,0-3.31A23.77,23.77,0,0,0,118.67,216.22Z"/><path class="cls-2" d="M76.94,219.3a.58.58,0,0,0-.49,1c2.4,2.35,7.77,6.81,13.52,6.4,7.4-.52,8.71-4.11,16.09-6a.74.74,0,0,0,.39-1.19c-1.64-2-6.07-6.46-12.15-5.45C87.14,215.23,83.35,220.17,76.94,219.3Z"/><path class="cls-2" d="M109.05,193.88a.49.49,0,0,1,.87-.34c1.82,2.19,5.22,7.05,4.48,11.89-1,6.23-4.1,7.09-6.22,13.21a.63.63,0,0,1-1,.24c-1.58-1.53-5.05-5.59-3.77-10.67C104.89,202.23,109.34,199.37,109.05,193.88Z"/><path class="cls-3" d="M88.36,222a34.89,34.89,0,0,0,4.6-.86,25.68,25.68,0,0,0,4.36-1.55,10.23,10.23,0,0,1,4.75-.94,8,8,0,0,1,4.48,1.61,10.08,10.08,0,0,0-4.49-.92,11.45,11.45,0,0,0-4.38,1.05A18.22,18.22,0,0,1,88.36,222Z"/><path class="cls-3" d="M109.12,206.77a10.17,10.17,0,0,1,0,3.21,11.71,11.71,0,0,1-1,3.1,7.42,7.42,0,0,0-.27,5.89,5.15,5.15,0,0,1-1.17-3,6.85,6.85,0,0,1,.63-3.25A23.4,23.4,0,0,0,109.12,206.77Z"/><path class="cls-2" d="M67.6,201.61a.58.58,0,0,0-.67.88c1.89,2.77,6.28,8.2,12,8.93,7.37.93,9.36-2.33,17-2.74a.74.74,0,0,0,.61-1.09c-1.22-2.29-4.68-7.53-10.85-7.73C78.4,199.63,73.72,203.73,67.6,201.61Z"/><path class="cls-2" d="M104.07,183a.49.49,0,0,1,.92-.16c1.35,2.5,3.74,7.93,2.06,12.53-2.17,5.93-5.41,6.16-8.69,11.74a.63.63,0,0,1-1.06,0c-1.25-1.82-3.85-6.47-1.6-11.21C98.35,190.36,103.28,188.42,104.07,183Z"/><path class="cls-3" d="M78.26,206.51a35,35,0,0,0,4.69.06,25.2,25.2,0,0,0,4.57-.67,10.2,10.2,0,0,1,4.85,0,8,8,0,0,1,4.08,2.44,10.1,10.1,0,0,0-4.23-1.77,11.37,11.37,0,0,0-4.5.17A18.27,18.27,0,0,1,78.26,206.51Z"/><path class="cls-3" d="M101.61,195.64a10,10,0,0,1-.67,3.14,11.56,11.56,0,0,1-1.54,2.85A7.46,7.46,0,0,0,98,207.35a5.12,5.12,0,0,1-.55-3.18,6.71,6.71,0,0,1,1.25-3.06A23.91,23.91,0,0,0,101.61,195.64Z"/><path class="cls-2" d="M61.9,182.44a.58.58,0,0,0-.83.73c1.31,3.08,4.55,9.27,10,11.1,7,2.36,9.63-.45,17.17.64a.74.74,0,0,0,.81-.95c-.75-2.48-3.11-8.3-9.12-9.7C72.88,182.61,67.49,185.71,61.9,182.44Z"/><path class="cls-2" d="M101.32,171.32a.49.49,0,0,1,.94,0c.83,2.72,2.1,8.51-.44,12.69-3.29,5.39-6.51,5-10.82,9.81a.63.63,0,0,1-1-.17c-.87-2-2.51-7.1.63-11.3C94.27,177.43,99.47,176.5,101.32,171.32Z"/><path class="cls-3" d="M71.4,189.33a33.66,33.66,0,0,0,4.58,1,25.52,25.52,0,0,0,4.62.25,10.25,10.25,0,0,1,4.75,1,8.09,8.09,0,0,1,3.52,3.2,10,10,0,0,0-3.8-2.56,11.2,11.2,0,0,0-4.44-.72A18.29,18.29,0,0,1,71.4,189.33Z"/><path class="cls-3" d="M96.43,183.25a10.23,10.23,0,0,1-1.27,2.94,11.53,11.53,0,0,1-2.07,2.49A7.47,7.47,0,0,0,90.57,194a5.11,5.11,0,0,1,.09-3.23A6.57,6.57,0,0,1,92.49,188,23.91,23.91,0,0,0,96.43,183.25Z"/><path class="cls-2" d="M60.08,162.52a.58.58,0,0,0-1,.56c.68,3.28,2.65,10,7.64,12.84,6.44,3.7,9.54,1.45,16.72,4a.74.74,0,0,0,1-.77c-.24-2.59-1.43-8.75-7-11.31C70.81,164.84,64.91,166.83,60.08,162.52Z"/><path class="cls-2" d="M100.91,159.34a.5.5,0,0,1,.92.2c.28,2.84.39,8.77-2.93,12.37-4.27,4.63-7.35,3.6-12.52,7.49a.63.63,0,0,1-1-.37c-.46-2.16-1.07-7.46,2.83-11C92.8,164,98.09,164.06,100.91,159.34Z"/><path class="cls-3" d="M68,171.14a34.38,34.38,0,0,0,4.3,1.85,24.13,24.13,0,0,0,4.48,1.14A10.28,10.28,0,0,1,81.29,176a7.91,7.91,0,0,1,2.82,3.82,9.94,9.94,0,0,0-3.22-3.26A11.3,11.3,0,0,0,76.68,175,18.37,18.37,0,0,1,68,171.14Z"/><path class="cls-3" d="M93.78,170.08A10.4,10.4,0,0,1,92,172.72a11.8,11.8,0,0,1-2.52,2,7.44,7.44,0,0,0-3.51,4.74,5,5,0,0,1,.72-3.15A6.72,6.72,0,0,1,89,174,23.75,23.75,0,0,0,93.78,170.08Z"/><path class="cls-2" d="M62.19,142.63a.58.58,0,0,0-1,.36c0,3.35.64,10.3,5,14.09,5.59,4.89,9.06,3.29,15.61,7.2a.75.75,0,0,0,1.12-.57c.26-2.58.31-8.86-4.7-12.46C72.27,147,66.09,147.8,62.19,142.63Z"/><path class="cls-2" d="M102.85,147.51a.5.5,0,0,1,.86.38c-.27,2.84-1.32,8.67-5.28,11.55-5.11,3.71-7.92,2.1-13.76,4.9a.63.63,0,0,1-.9-.56c0-2.21.41-7.52,4.92-10.19C94,150.45,99.16,151.59,102.85,147.51Z"/><path class="cls-3" d="M68.31,152.65a34.31,34.31,0,0,0,3.86,2.65,24.2,24.2,0,0,0,4.17,2,10.29,10.29,0,0,1,4,2.72,8,8,0,0,1,2,4.31,10,10,0,0,0-2.52-3.83A11.44,11.44,0,0,0,76,158.13,18.33,18.33,0,0,1,68.31,152.65Z"/><path class="cls-3" d="M93.75,156.65a10.14,10.14,0,0,1-2.3,2.23,11.55,11.55,0,0,1-2.87,1.5,7.46,7.46,0,0,0-4.37,4,5,5,0,0,1,1.32-3,6.82,6.82,0,0,1,2.74-1.84A23.66,23.66,0,0,0,93.75,156.65Z"/><path class="cls-2" d="M68.16,123.54a.58.58,0,0,0-1.09.15c-.63,3.29-1.39,10.22,2.12,14.79,4.52,5.89,8.24,5,13.89,10.12a.75.75,0,0,0,1.21-.34c.76-2.48,2-8.62-2.17-13.14C77.18,129.81,71,129.37,68.16,123.54Z"/><path class="cls-2" d="M107.08,136.3a.5.5,0,0,1,.77.54c-.83,2.72-3,8.24-7.45,10.29-5.73,2.64-8.18.5-14.45,2.11a.63.63,0,0,1-.77-.73c.4-2.17,1.87-7.3,6.82-9C97.82,137.44,102.66,139.57,107.08,136.3Z"/><path class="cls-3" d="M72.2,134.56a35.76,35.76,0,0,0,3.26,3.36,25,25,0,0,0,3.7,2.78,10.29,10.29,0,0,1,3.4,3.45,8,8,0,0,1,1.13,4.62A10,10,0,0,0,82,144.52a11.47,11.47,0,0,0-3.29-3.07A18.26,18.26,0,0,1,72.2,134.56Z"/><path class="cls-3" d="M96.37,143.47a10.23,10.23,0,0,1-2.7,1.74,11.69,11.69,0,0,1-3.11.91,7.43,7.43,0,0,0-5.06,3,5.13,5.13,0,0,1,1.87-2.64,6.8,6.8,0,0,1,3-1.26A23.6,23.6,0,0,0,96.37,143.47Z"/><path class="cls-2" d="M77.76,106a.58.58,0,0,0-1.1-.07c-1.26,3.1-3.37,9.76-.83,14.93,3.29,6.66,7.11,6.52,11.65,12.64a.75.75,0,0,0,1.25-.1c1.23-2.28,3.69-8,.45-13.31C85.38,113.91,79.37,112.26,77.76,106Z"/><path class="cls-2" d="M113.42,126.13a.5.5,0,0,1,.65.68c-1.35,2.51-4.56,7.5-9.32,8.63-6.14,1.47-8.12-1.11-14.58-.76a.64.64,0,0,1-.62-.87c.82-2,3.27-6.78,8.46-7.52C104.12,125.44,108.45,128.47,113.42,126.13Z"/><path class="cls-3" d="M79.56,117.59a35.78,35.78,0,0,0,2.54,3.94A25.15,25.15,0,0,0,85.18,125,10.29,10.29,0,0,1,87.84,129a8,8,0,0,1,.21,4.75,9.91,9.91,0,0,0-.86-4.5,11.33,11.33,0,0,0-2.62-3.67A18.29,18.29,0,0,1,79.56,117.59Z"/><path class="cls-3" d="M101.51,131.07a10.29,10.29,0,0,1-3,1.17,12,12,0,0,1-3.22.29,7.41,7.41,0,0,0-5.56,2,5.16,5.16,0,0,1,2.35-2.22,6.74,6.74,0,0,1,3.25-.64A24.06,24.06,0,0,0,101.51,131.07Z"/><path class="cls-2" d="M90.61,90.67a.58.58,0,0,0-1.06-.29c-1.85,2.79-5.22,8.91-3.74,14.47,1.91,7.18,5.69,7.79,8.94,14.68a.74.74,0,0,0,1.24.16c1.66-2,5.21-7.18,3.06-13C96.53,99.92,91,97.13,90.61,90.67Z"/><path class="cls-2" d="M121.64,117.4a.5.5,0,0,1,.5.8c-1.81,2.2-5.94,6.45-10.84,6.63-6.3.24-7.73-2.68-14.14-3.61a.63.63,0,0,1-.44-1c1.21-1.84,4.54-6,9.77-5.71C112.65,114.9,116.3,118.73,121.64,117.4Z"/><path class="cls-3" d="M90.11,102.39a33.72,33.72,0,0,0,1.71,4.36,25.22,25.22,0,0,0,2.35,4,10.3,10.3,0,0,1,1.81,4.5,8,8,0,0,1-.73,4.7,10,10,0,0,0,0-4.58,11.25,11.25,0,0,0-1.86-4.11A18.33,18.33,0,0,1,90.11,102.39Z"/><path class="cls-3" d="M109,119.91a10.3,10.3,0,0,1-3.16.56,11.25,11.25,0,0,1-3.22-.35,7.43,7.43,0,0,0-5.84.85,5.09,5.09,0,0,1,2.74-1.71,6.74,6.74,0,0,1,3.31,0A23.78,23.78,0,0,0,109,119.91Z"/><path class="cls-2" d="M106.22,78.16a.58.58,0,0,0-1-.5c-2.36,2.38-6.86,7.72-6.5,13.47.47,7.41,4,8.75,5.89,16.14a.74.74,0,0,0,1.19.4c2-1.63,6.51-6,5.54-12.12C110.21,88.39,105.3,84.56,106.22,78.16Z"/><path class="cls-2" d="M131.4,110.46a.49.49,0,0,1,.33.87c-2.2,1.8-7.08,5.17-11.92,4.39-6.23-1-7.06-4.15-13.16-6.32a.62.62,0,0,1-.24-1c1.55-1.57,5.63-5,10.7-3.69C123.08,106.24,125.91,110.71,131.4,110.46Z"/><path class="cls-3" d="M103.42,89.55a35,35,0,0,0,.83,4.61,24.84,24.84,0,0,0,1.52,4.37,10.14,10.14,0,0,1,.9,4.76,8,8,0,0,1-1.64,4.47,9.93,9.93,0,0,0,1-4.48,11.28,11.28,0,0,0-1-4.39A18.35,18.35,0,0,1,103.42,89.55Z"/><path class="cls-3" d="M118.51,110.43a10.48,10.48,0,0,1-3.21-.06,11.59,11.59,0,0,1-3.09-1,7.43,7.43,0,0,0-5.89-.31,5,5,0,0,1,3-1.14,6.69,6.69,0,0,1,3.24.65A23.8,23.8,0,0,0,118.51,110.43Z"/><path class="cls-2" d="M124,69a.59.59,0,0,0-.88-.68c-2.78,1.87-8.24,6.22-9,11.93-1,7.36,2.26,9.37,2.61,17a.74.74,0,0,0,1.09.62c2.3-1.2,7.56-4.62,7.81-10.79C125.88,79.76,121.82,75.05,124,69Z"/><path class="cls-2" d="M142.34,105.56a.49.49,0,0,1,.15.92c-2.51,1.33-8,3.68-12.55,2-5.91-2.21-6.11-5.45-11.67-8.77a.63.63,0,0,1,0-1.06c1.83-1.24,6.5-3.81,11.22-1.52C135,99.79,136.9,104.72,142.34,105.56Z"/><path class="cls-3" d="M119,79.58a34.89,34.89,0,0,0-.09,4.68,25.24,25.24,0,0,0,.63,4.58,10.29,10.29,0,0,1-.05,4.84A8,8,0,0,1,117,97.74a9.85,9.85,0,0,0,1.8-4.21,11.19,11.19,0,0,0-.13-4.5A18.34,18.34,0,0,1,119,79.58Z"/><path class="cls-3" d="M129.7,103a10.07,10.07,0,0,1-3.14-.7,11.51,11.51,0,0,1-2.83-1.56A7.47,7.47,0,0,0,118,99.29a5.13,5.13,0,0,1,3.19-.53,6.72,6.72,0,0,1,3,1.28A24.26,24.26,0,0,0,129.7,103Z"/><path class="cls-2" d="M142.19,93.21a19.48,19.48,0,0,0,2.44-1.6c3.68-2.89,4.4-6.24,8.23-9.94a.52.52,0,0,0-.42-.9c-5.3.6-8.34-1-12.91,0a17.93,17.93,0,0,0-2.78.85c-4.78,1.83-7.67,7-9.08,10.34-.07.18-.14.35-.2.52a.71.71,0,0,0,.43.93,5.22,5.22,0,0,0,.56.18C131.94,94.66,137.75,95.72,142.19,93.21Z"/><path class="cls-3" d="M141.68,86.38a59.88,59.88,0,0,1-6.91,3.74,58.92,58.92,0,0,1-7.28,2.94,70,70,0,0,1,14.19-6.68Z"/><path class="cls-2" d="M197.66,262.84a.58.58,0,0,1-.36,1.05c-3.35-.06-10.3-.72-14.06-5.09-4.84-5.62-3.22-9.08-7.07-15.66a.74.74,0,0,1,.57-1.11c2.58-.24,8.86-.25,12.43,4.79C193.36,252.74,192.53,258.9,197.66,262.84Z"/><path class="cls-2" d="M193.09,222.14a.49.49,0,0,0-.37-.86c-2.84.26-8.69,1.26-11.59,5.2-3.75,5.08-2.16,7.9-5,13.72a.63.63,0,0,0,.55.91c2.2,0,7.52-.36,10.23-4.85C190.09,231,189,225.81,193.09,222.14Z"/><path class="cls-3" d="M187.7,256.65a18.38,18.38,0,0,1-5.43-7.75,11.35,11.35,0,0,0-2.34-3.85,10,10,0,0,0-3.81-2.55,8,8,0,0,1,4.29,2.05,10.22,10.22,0,0,1,2.69,4,24.91,24.91,0,0,0,2,4.18A33.94,33.94,0,0,0,187.7,256.65Z"/><path class="cls-3" d="M183.89,231.17a24,24,0,0,0-2.95,5.46,6.86,6.86,0,0,1-1.86,2.74,5.09,5.09,0,0,1-3,1.29,7.43,7.43,0,0,0,4-4.34,12.12,12.12,0,0,1,1.53-2.86A10,10,0,0,1,183.89,231.17Z"/><path class="cls-2" d="M216.8,257a.59.59,0,0,1-.15,1.1c-3.3.61-10.24,1.31-14.79-2.23-5.85-4.57-4.93-8.28-10-14a.74.74,0,0,1,.34-1.2c2.48-.75,8.64-2,13.13,2.26C210.6,248,211,254.16,216.8,257Z"/><path class="cls-2" d="M204.33,218a.49.49,0,0,0-.53-.77c-2.73.81-8.27,2.94-10.35,7.37-2.68,5.71-.56,8.17-2.21,14.43a.63.63,0,0,0,.72.78c2.17-.39,7.31-1.82,9.08-6.75C203.12,227.25,201,222.4,204.33,218Z"/><path class="cls-3" d="M205.81,252.89a18.31,18.31,0,0,1-6.84-6.53,11.38,11.38,0,0,0-3.05-3.32,10,10,0,0,0-4.23-1.75,8.07,8.07,0,0,1,4.61,1.17,10.29,10.29,0,0,1,3.42,3.43,25.52,25.52,0,0,0,2.75,3.72A34.52,34.52,0,0,0,205.81,252.89Z"/><path class="cls-3" d="M197.08,228.66a24,24,0,0,0-1.82,5.93,6.84,6.84,0,0,1-1.29,3,5.14,5.14,0,0,1-2.65,1.85,7.45,7.45,0,0,0,3.07-5,11.56,11.56,0,0,1,.93-3.1A10.5,10.5,0,0,1,197.08,228.66Z"/><path class="cls-2" d="M234.42,247.55a.58.58,0,0,1,.07,1.1c-3.12,1.24-9.79,3.3-14.94.71-6.63-3.33-6.46-7.15-12.55-11.73a.75.75,0,0,1,.1-1.25c2.29-1.22,8.09-3.63,13.32-.36C226.56,239.87,228.16,245.89,234.42,247.55Z"/><path class="cls-2" d="M214.55,211.74a.5.5,0,0,0-.68-.66c-2.52,1.33-7.52,4.51-8.7,9.26-1.51,6.13,1.06,8.12.66,14.59a.63.63,0,0,0,.86.62c2.05-.81,6.81-3.22,7.58-8.41C215.18,221.05,212.17,216.69,214.55,211.74Z"/><path class="cls-3" d="M222.84,245.66a18.21,18.21,0,0,1-8-5.07,11.49,11.49,0,0,0-3.64-2.65,10,10,0,0,0-4.5-.88,7.89,7.89,0,0,1,4.75.24,10.12,10.12,0,0,1,4,2.69,25.21,25.21,0,0,0,3.43,3.1A34.82,34.82,0,0,0,222.84,245.66Z"/><path class="cls-3" d="M209.53,223.61a24.15,24.15,0,0,0-.63,6.17,6.81,6.81,0,0,1-.66,3.24,5.11,5.11,0,0,1-2.24,2.33,7.42,7.42,0,0,0,2-5.54,11.63,11.63,0,0,1,.31-3.22A9.92,9.92,0,0,1,209.53,223.61Z"/><path class="cls-2" d="M249.84,234.81a.58.58,0,0,1,.28,1.07c-2.81,1.83-8.94,5.15-14.5,3.63-7.16-2-7.74-5.75-14.61-9a.74.74,0,0,1-.14-1.25c2-1.64,7.21-5.14,13-3C240.64,228.82,243.38,234.41,249.84,234.81Z"/><path class="cls-2" d="M223.34,203.59a.5.5,0,0,0-.79-.51c-2.21,1.8-6.5,5.89-6.72,10.78-.28,6.31,2.62,7.76,3.5,14.18a.63.63,0,0,0,1,.44c1.85-1.19,6-4.49,5.79-9.73C225.78,212.6,222,208.92,223.34,203.59Z"/><path class="cls-3" d="M238.11,235.23a18.32,18.32,0,0,1-8.82-3.4,11.48,11.48,0,0,0-4.09-1.89,10.12,10.12,0,0,0-4.58,0,8,8,0,0,1,4.7-.69,10.19,10.19,0,0,1,4.48,1.85,25.24,25.24,0,0,0,4,2.37A34.21,34.21,0,0,0,238.11,235.23Z"/><path class="cls-3" d="M220.74,216.22a23.77,23.77,0,0,0,.6,6.17,6.86,6.86,0,0,1,0,3.31,5.16,5.16,0,0,1-1.73,2.73,7.46,7.46,0,0,0,.89-5.83,11.71,11.71,0,0,1-.33-3.23A10.21,10.21,0,0,1,220.74,216.22Z"/><path class="cls-2" d="M262.47,219.3a.58.58,0,0,1,.49,1c-2.4,2.35-7.77,6.81-13.52,6.4-7.4-.52-8.71-4.11-16.09-6a.74.74,0,0,1-.39-1.19c1.64-2,6.06-6.46,12.15-5.45C252.27,215.23,256.06,220.17,262.47,219.3Z"/><path class="cls-2" d="M230.36,193.88a.49.49,0,0,0-.87-.34c-1.82,2.19-5.22,7.05-4.48,11.89,1,6.23,4.1,7.09,6.22,13.21a.63.63,0,0,0,1,.24c1.58-1.53,5.05-5.59,3.77-10.67C234.52,202.23,230.07,199.37,230.36,193.88Z"/><path class="cls-3" d="M251.05,222a18.2,18.2,0,0,1-9.32-1.61,11.45,11.45,0,0,0-4.38-1.05,10.08,10.08,0,0,0-4.49.92,8,8,0,0,1,4.48-1.61,10.23,10.23,0,0,1,4.75.94,25.68,25.68,0,0,0,4.36,1.55A34.89,34.89,0,0,0,251.05,222Z"/><path class="cls-3" d="M230.29,206.77a23.4,23.4,0,0,0,1.8,5.94,6.85,6.85,0,0,1,.63,3.25,5.15,5.15,0,0,1-1.17,3,7.42,7.42,0,0,0-.27-5.89,11.71,11.71,0,0,1-.95-3.1A10.17,10.17,0,0,1,230.29,206.77Z"/><path class="cls-2" d="M271.81,201.61a.58.58,0,0,1,.67.88c-1.89,2.77-6.28,8.2-12,8.93-7.37.93-9.36-2.33-17-2.74a.74.74,0,0,1-.61-1.09c1.22-2.29,4.68-7.53,10.85-7.73C261,199.63,265.69,203.73,271.81,201.61Z"/><path class="cls-2" d="M235.34,183a.49.49,0,0,0-.92-.16c-1.35,2.5-3.74,7.93-2.06,12.53,2.17,5.93,5.41,6.16,8.68,11.74a.64.64,0,0,0,1.07,0c1.25-1.82,3.85-6.47,1.6-11.21C241.06,190.36,236.13,188.42,235.34,183Z"/><path class="cls-3" d="M261.15,206.51a18.27,18.27,0,0,1-9.46.25,11.37,11.37,0,0,0-4.5-.17,10.1,10.1,0,0,0-4.23,1.77,8,8,0,0,1,4.08-2.44,10.2,10.2,0,0,1,4.85,0,25.2,25.2,0,0,0,4.57.67A35,35,0,0,0,261.15,206.51Z"/><path class="cls-3" d="M237.8,195.64a24.28,24.28,0,0,0,2.92,5.47,6.61,6.61,0,0,1,1.26,3.06,5.12,5.12,0,0,1-.55,3.18,7.46,7.46,0,0,0-1.42-5.72,11.56,11.56,0,0,1-1.54-2.85A10,10,0,0,1,237.8,195.64Z"/><path class="cls-2" d="M277.51,182.44a.58.58,0,0,1,.83.73c-1.32,3.08-4.56,9.27-10,11.1-7,2.36-9.63-.45-17.17.64a.74.74,0,0,1-.81-.95c.74-2.48,3.11-8.3,9.12-9.7C266.52,182.61,271.92,185.71,277.51,182.44Z"/><path class="cls-2" d="M238.09,171.32a.49.49,0,0,0-.94,0c-.83,2.72-2.1,8.51.44,12.69,3.29,5.39,6.51,5,10.82,9.81a.63.63,0,0,0,1.05-.17c.87-2,2.51-7.1-.63-11.3C245.14,177.43,239.93,176.5,238.09,171.32Z"/><path class="cls-3" d="M268,189.33a18.29,18.29,0,0,1-9.23,2.1,11.2,11.2,0,0,0-4.44.72,10,10,0,0,0-3.8,2.56,8.09,8.09,0,0,1,3.52-3.2,10.25,10.25,0,0,1,4.75-1,25.52,25.52,0,0,0,4.62-.25A33.66,33.66,0,0,0,268,189.33Z"/><path class="cls-3" d="M243,183.25a23.91,23.91,0,0,0,3.94,4.79,6.66,6.66,0,0,1,1.83,2.75,5,5,0,0,1,.08,3.23,7.42,7.42,0,0,0-2.51-5.34,11.53,11.53,0,0,1-2.07-2.49A10.23,10.23,0,0,1,243,183.25Z"/><path class="cls-2" d="M279.33,162.52a.59.59,0,0,1,1,.56c-.68,3.28-2.65,10-7.65,12.84-6.44,3.7-9.53,1.45-16.71,4a.74.74,0,0,1-1-.77c.24-2.59,1.43-8.75,7-11.31C268.6,164.84,274.5,166.83,279.33,162.52Z"/><path class="cls-2" d="M238.5,159.34a.5.5,0,0,0-.92.2c-.28,2.84-.39,8.77,2.93,12.37,4.27,4.63,7.35,3.6,12.52,7.49a.63.63,0,0,0,1-.37c.46-2.16,1.07-7.46-2.83-11C246.61,164,241.32,164.06,238.5,159.34Z"/><path class="cls-3" d="M271.37,171.14a18.37,18.37,0,0,1-8.64,3.87,11.41,11.41,0,0,0-4.22,1.57,9.91,9.91,0,0,0-3.21,3.26,7.91,7.91,0,0,1,2.82-3.82,10.28,10.28,0,0,1,4.47-1.89,23.84,23.84,0,0,0,4.47-1.14A33.89,33.89,0,0,0,271.37,171.14Z"/><path class="cls-3" d="M245.63,170.08a23.75,23.75,0,0,0,4.81,3.92,6.72,6.72,0,0,1,2.33,2.35,5.11,5.11,0,0,1,.72,3.15,7.47,7.47,0,0,0-3.51-4.74,11.8,11.8,0,0,1-2.52-2A10.15,10.15,0,0,1,245.63,170.08Z"/><path class="cls-2" d="M277.22,142.63a.58.58,0,0,1,1,.36c0,3.35-.65,10.3-5,14.09-5.59,4.89-9.07,3.29-15.61,7.2a.75.75,0,0,1-1.12-.57c-.26-2.58-.31-8.86,4.7-12.46C267.14,147,273.32,147.8,277.22,142.63Z"/><path class="cls-2" d="M236.56,147.51a.5.5,0,0,0-.86.38c.27,2.84,1.32,8.67,5.28,11.55,5.11,3.71,7.92,2.1,13.76,4.9a.63.63,0,0,0,.9-.56c0-2.21-.41-7.52-4.92-10.19C245.41,150.45,240.25,151.59,236.56,147.51Z"/><path class="cls-3" d="M271.1,152.65a18.39,18.39,0,0,1-7.71,5.48,11.34,11.34,0,0,0-3.83,2.37,10,10,0,0,0-2.52,3.83,8,8,0,0,1,2-4.31,10.22,10.22,0,0,1,4-2.72,24.2,24.2,0,0,0,4.17-2A34.31,34.31,0,0,0,271.1,152.65Z"/><path class="cls-3" d="M245.65,156.65a23.87,23.87,0,0,0,5.48,2.9,6.78,6.78,0,0,1,2.75,1.84,5,5,0,0,1,1.32,3,7.46,7.46,0,0,0-4.37-4,11.55,11.55,0,0,1-2.87-1.5A10.4,10.4,0,0,1,245.65,156.65Z"/><path class="cls-2" d="M271.24,123.54a.58.58,0,0,1,1.1.15c.63,3.29,1.39,10.22-2.12,14.79-4.52,5.89-8.24,5-13.89,10.12a.75.75,0,0,1-1.21-.34c-.76-2.48-2-8.62,2.16-13.14C262.22,129.81,268.44,129.37,271.24,123.54Z"/><path class="cls-2" d="M232.33,136.3a.5.5,0,0,0-.77.54c.83,2.72,3,8.24,7.45,10.29,5.73,2.64,8.18.5,14.45,2.11a.63.63,0,0,0,.77-.73c-.4-2.17-1.87-7.3-6.82-9C241.59,137.44,236.75,139.57,232.33,136.3Z"/><path class="cls-3" d="M267.21,134.56a18.26,18.26,0,0,1-6.49,6.89,11.47,11.47,0,0,0-3.29,3.07,10,10,0,0,0-1.72,4.25,8.08,8.08,0,0,1,1.14-4.62,10.29,10.29,0,0,1,3.4-3.45,25,25,0,0,0,3.7-2.78A35.76,35.76,0,0,0,267.21,134.56Z"/><path class="cls-3" d="M243,143.47a23.6,23.6,0,0,0,6,1.78,6.8,6.8,0,0,1,3,1.26,5.13,5.13,0,0,1,1.87,2.64,7.43,7.43,0,0,0-5.06-3,11.69,11.69,0,0,1-3.11-.91A10.23,10.23,0,0,1,243,143.47Z"/><path class="cls-2" d="M261.65,106a.58.58,0,0,1,1.1-.07c1.26,3.1,3.37,9.76.82,14.93-3.28,6.66-7.1,6.52-11.64,12.64a.75.75,0,0,1-1.25-.1c-1.23-2.28-3.69-8-.45-13.31C254,113.91,260,112.26,261.65,106Z"/><path class="cls-2" d="M226,126.13a.49.49,0,0,0-.65.68c1.34,2.51,4.56,7.5,9.32,8.63,6.14,1.47,8.12-1.11,14.58-.76a.64.64,0,0,0,.62-.87c-.83-2-3.27-6.78-8.47-7.52C235.29,125.44,231,128.47,226,126.13Z"/><path class="cls-3" d="M259.85,117.59a18.29,18.29,0,0,1-5,8,11.51,11.51,0,0,0-2.63,3.67,10,10,0,0,0-.85,4.5,8,8,0,0,1,.21-4.75,10.29,10.29,0,0,1,2.66-4.06,25.15,25.15,0,0,0,3.08-3.44A35.78,35.78,0,0,0,259.85,117.59Z"/><path class="cls-3" d="M237.9,131.07a24.06,24.06,0,0,0,6.17.57,6.74,6.74,0,0,1,3.25.64,5.16,5.16,0,0,1,2.35,2.22,7.41,7.41,0,0,0-5.56-2,12,12,0,0,1-3.22-.29A10.18,10.18,0,0,1,237.9,131.07Z"/><path class="cls-2" d="M248.79,90.67a.58.58,0,0,1,1.07-.29c1.85,2.79,5.22,8.91,3.74,14.47-1.92,7.18-5.69,7.79-8.94,14.68a.74.74,0,0,1-1.24.16c-1.66-2-5.21-7.18-3.06-13C242.88,99.92,248.44,97.13,248.79,90.67Z"/><path class="cls-2" d="M217.77,117.4a.5.5,0,0,0-.5.8c1.81,2.2,5.94,6.45,10.83,6.63,6.31.24,7.74-2.68,14.15-3.61a.63.63,0,0,0,.44-1c-1.21-1.84-4.54-6-9.77-5.71C226.76,114.9,223.11,118.73,217.77,117.4Z"/><path class="cls-3" d="M249.3,102.39a18.25,18.25,0,0,1-3.34,8.85,11.4,11.4,0,0,0-1.85,4.11,10,10,0,0,0,0,4.58,8,8,0,0,1-.73-4.7,10.3,10.3,0,0,1,1.81-4.5,25.22,25.22,0,0,0,2.35-4A35.23,35.23,0,0,0,249.3,102.39Z"/><path class="cls-3" d="M230.42,119.91a23.78,23.78,0,0,0,6.17-.65,6.74,6.74,0,0,1,3.31,0,5.09,5.09,0,0,1,2.74,1.71,7.43,7.43,0,0,0-5.84-.85,11.25,11.25,0,0,1-3.22.35A10.25,10.25,0,0,1,230.42,119.91Z"/><path class="cls-2" d="M233.19,78.16a.58.58,0,0,1,1-.5c2.36,2.38,6.86,7.72,6.5,13.47-.47,7.41-4.05,8.75-5.89,16.14a.74.74,0,0,1-1.19.4c-2-1.63-6.51-6-5.54-12.12C229.2,88.39,234.11,84.56,233.19,78.16Z"/><path class="cls-2" d="M208,110.46a.49.49,0,0,0-.34.87c2.21,1.8,7.09,5.17,11.93,4.39,6.22-1,7.06-4.15,13.16-6.32a.62.62,0,0,0,.24-1c-1.55-1.57-5.63-5-10.7-3.69C216.33,106.24,213.5,110.71,208,110.46Z"/><path class="cls-3" d="M236,89.55a18.24,18.24,0,0,1-1.53,9.34,11.28,11.28,0,0,0-1,4.39,9.93,9.93,0,0,0,.95,4.48,8,8,0,0,1-1.64-4.47,10.14,10.14,0,0,1,.9-4.76,24.81,24.81,0,0,0,1.51-4.37A32,32,0,0,0,236,89.55Z"/><path class="cls-3" d="M220.9,110.43a23.93,23.93,0,0,0,5.93-1.84,6.69,6.69,0,0,1,3.24-.65,5,5,0,0,1,3,1.14,7.43,7.43,0,0,0-5.89.31,11.59,11.59,0,0,1-3.09,1A10.48,10.48,0,0,1,220.9,110.43Z"/><path class="cls-2" d="M215.43,69a.59.59,0,0,1,.88-.68c2.78,1.87,8.24,6.22,9,11.93,1,7.36-2.26,9.37-2.61,17a.74.74,0,0,1-1.09.62c-2.3-1.2-7.56-4.62-7.81-10.79C213.52,79.76,217.59,75.05,215.43,69Z"/><path class="cls-2" d="M197.07,105.56a.49.49,0,0,0-.15.92c2.51,1.33,8,3.68,12.55,2,5.91-2.21,6.11-5.45,11.67-8.77a.63.63,0,0,0,0-1.06c-1.83-1.24-6.5-3.81-11.22-1.52C204.41,99.79,202.51,104.72,197.07,105.56Z"/><path class="cls-3" d="M220.41,79.58a18.34,18.34,0,0,1,.32,9.45,11.37,11.37,0,0,0-.14,4.5,9.86,9.86,0,0,0,1.81,4.21,7.92,7.92,0,0,1-2.48-4.06,10.42,10.42,0,0,1-.06-4.84,25.26,25.26,0,0,0,.64-4.58A34.89,34.89,0,0,0,220.41,79.58Z"/><path class="cls-3" d="M209.71,103a24.48,24.48,0,0,0,5.45-3,6.67,6.67,0,0,1,3.05-1.28,5.13,5.13,0,0,1,3.19.53,7.47,7.47,0,0,0-5.72,1.46,11.39,11.39,0,0,1-2.84,1.56A9.94,9.94,0,0,1,209.71,103Z"/><path class="cls-2" d="M197.21,93.21a20.08,20.08,0,0,1-2.43-1.6c-3.68-2.89-4.4-6.24-8.23-9.94a.52.52,0,0,1,.42-.9c5.29.6,8.34-1,12.91,0a18.26,18.26,0,0,1,2.78.85c4.78,1.83,7.67,7,9.07,10.34.08.18.15.35.21.52a.71.71,0,0,1-.43.93c-.19.07-.37.13-.56.18C207.47,94.66,201.66,95.72,197.21,93.21Z"/><path class="cls-3" d="M197.73,86.38a70,70,0,0,1,14.19,6.68,59.69,59.69,0,0,1-7.29-2.94A59.75,59.75,0,0,1,197.73,86.38Z"/><path class="cls-4" d="M169.7,247.93a79,79,0,0,1,0,17.75,79,79,0,0,1,0-17.75Z"/><path class="cls-5" d="M3.87,369.37l-.79-34.23-.65-34.23c-.35-22.83-.79-45.65-1-68.47S.77,186.8.6,164L0,95.51l0-2.26,2-1.12L43.36,69.31,84.71,46.52,167.54,1.18,169.69,0l2.15,1.18,82.85,45.34c13.82,7.53,27.57,15.18,41.36,22.78l41.34,22.82,2,1.12,0,2.27L338.82,164c-.18,22.83-.52,45.65-.79,68.47s-.69,45.64-1,68.47l-.66,34.23-.79,34.23-.79-34.23-.66-34.23c-.34-22.83-.79-45.65-1-68.47s-.61-45.64-.78-68.47l-.59-68.46,2,3.39L292.11,76.53c-13.86-7.47-27.74-14.88-41.57-22.41l-83-45h4.3l-83,45L47.29,76.52,5.71,98.89l2-3.38L7.13,164c-.17,22.83-.52,45.65-.79,68.47s-.69,45.64-1,68.47l-.66,34.23Z"/><path class="cls-5" d="M107.29,351.12c-.64,4.24-3,14.4-4,18.25H44.94v-1.54c11.32-1.54,12.09-2.44,12.09-13V301.11c0-11.06-.39-11.83-10.42-13.76v-1.54H83c11.06,0,14.92,0,17.36-.26,0,4.5.51,13.76.9,17.49l-1.8.25a50.91,50.91,0,0,0-4-10.15c-2.45-3.6-4-3.86-11.58-3.86h-14c-3.47,0-3.73.39-3.73,4v29.82H82.09c8.75,0,9.9-1.67,11.45-10.28h1.67V337H93.54c-2.19-9-3.09-10.29-11.19-10.29H66.15v30.47c0,8.61,3.48,8.87,10.67,8.87H89.55c6.17,0,8-1.16,11.19-6a53.13,53.13,0,0,0,4.88-9.26Z"/><path class="cls-5" d="M153.89,369.37v-1.54c10.16-1.8,11.19-3,11.19-12.86V300.34c0-10.67-.9-11.32-11.19-13v-1.54h31.63v1.54c-10.42,1.42-11.32,2.32-11.32,13V355c0,9.77.9,10.93,11.32,12.86v1.54Z"/><path class="cls-5" d="M306.44,369.37c-1,0-4.11,0-5-.13-10.8-.64-13.37-1.92-18.52-8.87-4.24-5.91-10.41-16.2-14.91-23.91-3.34-5.65-4.76-6.43-11.31-6.43h-5.4v24.43c0,9.9,1,11.31,11.31,12.73v1.54H231v-1.54c10-1.55,11.18-2.57,11.18-12.73V299.18c0-9.9-.9-10.93-11.18-12.47v-1.54H261.7c8.74,0,15.69,1.41,20.31,4.75,4.63,3.09,7.85,8.87,7.85,15.82,0,10.54-7.07,17.87-16.46,22,2.44,4.37,8.36,14.14,12.21,19.93,4.38,6.68,7.72,11.57,10.67,14.78,3.22,3.47,5.4,4.5,10.55,5.4Zm-47.31-41.91c6.43,0,10-.25,13.63-2.83,5.14-3.59,6.81-8.87,6.81-16.58,0-14-7.71-20.31-18.64-20.31-4.76,0-7.07.51-8.1,1.16s-1.54,1.92-1.54,6v32.52Z"/></g></g></svg>