<svg xmlns="http://www.w3.org/2000/svg" viewBox="0 0 183.91 190.56"><defs><style>.cls-1{fill:#f4c416;}.cls-2{fill:#52a470;}.cls-3{fill:#316243;}.cls-4{fill:#ab890f;}.cls-5{fill:#a09e9e;}</style></defs><title>Prison Laurel</title><g id="Layer_2" data-name="Layer 2"><g id="Layer_1-2" data-name="Layer 1"><path class="cls-1" d="M92.83,170.83a10.75,10.75,0,0,0,.41,1.75c.88,2.75,2.67,3.88,4,6.9a.32.32,0,0,0,.61-.06c.79-3.2,2.35-4.62,2.74-7.48a11.15,11.15,0,0,0,.1-1.8c0-3.16-2.43-5.94-4.06-7.46l-.26-.24a.45.45,0,0,0-.63.06l-.22.28C94.17,164.58,92.32,167.72,92.83,170.83Z"/><path class="cls-2" d="M81.26,172.88a.36.36,0,0,0,.28.62c2.06-.21,6.3-1,8.38-3.88,2.68-3.73,1.49-5.77,3.51-10a.47.47,0,0,0-.42-.66c-1.6,0-5.46.33-7.38,3.62C83.36,166.43,84.21,170.18,81.26,172.88Z"/><path class="cls-2" d="M81.88,147.59a.3.3,0,0,1,.18-.55c1.76,0,5.41.31,7.42,2.58,2.58,2.92,1.75,4.74,3.81,8.17a.38.38,0,0,1-.29.58c-1.35.15-4.65.19-6.55-2.43C84.2,152.87,84.6,149.62,81.88,147.59Z"/><path class="cls-3" d="M87.06,168.53A20.3,20.3,0,0,0,88.47,166a15.09,15.09,0,0,0,1-2.68,6.31,6.31,0,0,1,1.44-2.62,5,5,0,0,1,2.53-1.5A6.3,6.3,0,0,0,91.21,161a7.3,7.3,0,0,0-1.23,2.5A11.31,11.31,0,0,1,87.06,168.53Z"/><path class="cls-3" d="M88,152.65a7,7,0,0,1,2.6,3,4.87,4.87,0,0,0,1.07,1.48,4.36,4.36,0,0,0,1.62,1,3.15,3.15,0,0,1-1.89-.64,4.14,4.14,0,0,1-1.29-1.58,11.7,11.7,0,0,0-.94-1.65A18.52,18.52,0,0,0,88,152.65Z"/><path class="cls-2" d="M69.18,170.33a.35.35,0,0,0,.15.66c2.06.2,6.37.26,9-2.17,3.36-3.12,2.6-5.36,5.41-9.13a.46.46,0,0,0-.28-.72c-1.57-.33-5.42-.75-8,2.1C72.5,164.41,72.6,168.26,69.18,170.33Z"/><path class="cls-2" d="M74.74,145.65a.3.3,0,0,1,.29-.5c1.72.35,5.24,1.36,6.76,4,2,3.37.79,5,2.14,8.76a.39.39,0,0,1-.4.52c-1.36-.12-4.6-.72-6-3.66C76,151.28,77,148.18,74.74,145.65Z"/><path class="cls-3" d="M75.72,167.2a21.54,21.54,0,0,0,1.87-2.2,16.09,16.09,0,0,0,1.49-2.44A6.28,6.28,0,0,1,81,160.27a4.92,4.92,0,0,1,2.77-1,6,6,0,0,0-2.51,1.3,7.07,7.07,0,0,0-1.7,2.21A11.35,11.35,0,0,1,75.72,167.2Z"/><path class="cls-3" d="M79.78,151.82a7.12,7.12,0,0,1,2,3.41,5,5,0,0,0,.75,1.67,4.39,4.39,0,0,0,1.4,1.27,3.19,3.19,0,0,1-1.72-1,4,4,0,0,1-1-1.8,12,12,0,0,0-.6-1.81A18.48,18.48,0,0,0,79.78,151.82Z"/><path class="cls-2" d="M57.83,165.46a.36.36,0,0,0,0,.68c2,.59,6.2,1.5,9.23-.37,3.9-2.41,3.59-4.75,7.09-7.9a.46.46,0,0,0-.13-.76c-1.48-.63-5.17-1.8-8.21.5C62.24,160.31,61.58,164.1,57.83,165.46Z"/><path class="cls-2" d="M68.11,142.35a.31.31,0,0,1,.39-.44c1.62.68,4.87,2.36,5.85,5.23,1.26,3.68-.21,5.05.38,9a.39.39,0,0,1-.49.43c-1.31-.39-4.37-1.62-5.12-4.77C68.23,148.11,69.85,145.27,68.11,142.35Z"/><path class="cls-3" d="M64.85,163.67a19.86,19.86,0,0,0,2.27-1.79,15.43,15.43,0,0,0,1.94-2.1,6.29,6.29,0,0,1,2.34-1.87,5,5,0,0,1,2.9-.41,6.14,6.14,0,0,0-2.71.79,7.08,7.08,0,0,0-2.1,1.83A11.3,11.3,0,0,1,64.85,163.67Z"/><path class="cls-3" d="M71.85,149.38a7.07,7.07,0,0,1,1.26,3.74,5,5,0,0,0,.41,1.78,4.38,4.38,0,0,0,1.13,1.52,3.2,3.2,0,0,1-1.5-1.32,4.19,4.19,0,0,1-.59-1.95,12,12,0,0,0-.22-1.89C72.21,150.63,72,150,71.85,149.38Z"/><path class="cls-2" d="M47.65,158.45a.36.36,0,0,0-.12.68c1.83,1,5.79,2.68,9.12,1.44,4.3-1.59,4.45-3.95,8.5-6.35a.46.46,0,0,0,0-.78c-1.32-.9-4.71-2.77-8.15-1.12C53,154.27,51.6,157.86,47.65,158.45Z"/><path class="cls-2" d="M62.27,137.81a.3.3,0,0,1,.46-.35c1.45,1,4.31,3.27,4.71,6.27.51,3.86-1.19,4.91-1.39,8.91a.39.39,0,0,1-.57.32c-1.2-.63-4-2.43-4.08-5.67C61.25,143.49,63.39,141,62.27,137.81Z"/><path class="cls-3" d="M54.89,158.08a23.11,23.11,0,0,0,2.58-1.31,15.84,15.84,0,0,0,2.31-1.68,6.21,6.21,0,0,1,2.66-1.37,4.8,4.8,0,0,1,2.93.17,6.09,6.09,0,0,0-2.82.23,7.14,7.14,0,0,0-2.42,1.39A11.42,11.42,0,0,1,54.89,158.08Z"/><path class="cls-3" d="M64.55,145.44a7,7,0,0,1,.5,3.91,4.9,4.9,0,0,0,.06,1.83,4.48,4.48,0,0,0,.81,1.71,3.14,3.14,0,0,1-1.21-1.58,4.17,4.17,0,0,1-.2-2,11.94,11.94,0,0,0,.15-1.89C64.66,146.74,64.61,146.1,64.55,145.44Z"/><path class="cls-2" d="M39,149.59a.36.36,0,0,0-.24.64c1.6,1.31,5.14,3.77,8.65,3.21,4.53-.73,5.15-3,9.58-4.57a.47.47,0,0,0,.18-.76c-1.12-1.14-4.08-3.64-7.77-2.69C45.1,146.54,43,149.78,39,149.59Z"/><path class="cls-2" d="M57.42,132.22a.31.31,0,0,1,.52-.26c1.24,1.25,3.59,4,3.4,7.07-.26,3.89-2.14,4.59-3.11,8.47a.4.4,0,0,1-.63.2c-1.05-.86-3.4-3.16-2.89-6.36C55.32,137.58,57.9,135.58,57.42,132.22Z"/><path class="cls-3" d="M46.21,150.64a19.82,19.82,0,0,0,2.79-.78,15.54,15.54,0,0,0,2.59-1.19,6.22,6.22,0,0,1,2.88-.82,4.85,4.85,0,0,1,2.84.74,6.16,6.16,0,0,0-2.81-.33,7.31,7.31,0,0,0-2.64.89A11.39,11.39,0,0,1,46.21,150.64Z"/><path class="cls-3" d="M58.16,140.15a6.87,6.87,0,0,1-.27,3.93,4.85,4.85,0,0,0-.3,1.81,4.34,4.34,0,0,0,.46,1.83,3.14,3.14,0,0,1-.88-1.79,4.17,4.17,0,0,1,.21-2,11.43,11.43,0,0,0,.51-1.82A17.39,17.39,0,0,0,58.16,140.15Z"/><path class="cls-2" d="M32.34,139.21a.36.36,0,0,0-.37.58c1.31,1.6,4.31,4.7,7.86,4.84,4.59.18,5.63-1.93,10.29-2.6a.45.45,0,0,0,.32-.7c-.87-1.34-3.29-4.38-7.09-4.17C38.88,137.41,36.22,140.18,32.34,139.21Z"/><path class="cls-2" d="M53.77,125.78a.3.3,0,0,1,.56-.15c1,1.47,2.73,4.68,1.94,7.6-1,3.76-3,4.08-4.71,7.69a.39.39,0,0,1-.65.08c-.87-1.05-2.72-3.77-1.59-6.81C50.65,130.63,53.58,129.17,53.77,125.78Z"/><path class="cls-3" d="M39.16,141.65a19.76,19.76,0,0,0,2.89-.22,15.62,15.62,0,0,0,2.78-.66,6.28,6.28,0,0,1,3-.24,4.94,4.94,0,0,1,2.64,1.28,6.14,6.14,0,0,0-2.69-.87,7.14,7.14,0,0,0-2.76.35A11.38,11.38,0,0,1,39.16,141.65Z"/><path class="cls-3" d="M52.94,133.7a6.94,6.94,0,0,1-1,3.8,5.06,5.06,0,0,0-.65,1.72,4.45,4.45,0,0,0,.09,1.88,3.22,3.22,0,0,1-.51-1.93,4.1,4.1,0,0,1,.61-1.95,11.67,11.67,0,0,0,.86-1.69A18,18,0,0,0,52.94,133.7Z"/><path class="cls-2" d="M27.8,127.73a.35.35,0,0,0-.47.49c1,1.83,3.3,5.45,6.76,6.29,4.46,1.07,5.9-.8,10.6-.54a.46.46,0,0,0,.45-.62c-.6-1.49-2.37-4.94-6.14-5.48C34.56,127.23,31.41,129.44,27.8,127.73Z"/><path class="cls-2" d="M51.45,118.75a.31.31,0,0,1,.58,0c.66,1.63,1.75,5.13.41,7.84-1.73,3.49-3.73,3.41-6.12,6.62a.39.39,0,0,1-.66,0c-.64-1.2-1.93-4.23-.22-7C47.44,122.89,50.59,122,51.45,118.75Z"/><path class="cls-3" d="M34,131.45a21.79,21.79,0,0,0,2.88.36,16,16,0,0,0,2.85-.11,6.26,6.26,0,0,1,3,.34,4.9,4.9,0,0,1,2.34,1.78,6.12,6.12,0,0,0-2.47-1.38,7.24,7.24,0,0,0-2.78-.2A11.33,11.33,0,0,1,34,131.45Z"/><path class="cls-3" d="M49.08,126.36a6.93,6.93,0,0,1-1.76,3.52,4.93,4.93,0,0,0-1,1.55,4.35,4.35,0,0,0-.29,1.87,3.21,3.21,0,0,1-.12-2,4,4,0,0,1,1-1.79A14,14,0,0,0,48.1,128C48.45,127.5,48.77,126.94,49.08,126.36Z"/><path class="cls-2" d="M25.6,115.57A.36.36,0,0,0,25,116c.6,2,2.17,6,5.4,7.49,4.16,1.93,5.94.38,10.5,1.56a.46.46,0,0,0,.56-.53c-.29-1.58-1.35-5.31-5-6.57C32.33,116.41,28.81,118,25.6,115.57Z"/><path class="cls-2" d="M50.55,111.41a.3.3,0,0,1,.57.07c.33,1.73.72,5.37-1.13,7.76-2.38,3.09-4.33,2.62-7.3,5.29a.38.38,0,0,1-.63-.17c-.4-1.3-1.06-4.53,1.15-6.9C45.81,114.68,49.07,114.46,50.55,111.41Z"/><path class="cls-3" d="M31,120.44a20.12,20.12,0,0,0,2.75.91,15.8,15.8,0,0,0,2.82.46,6.27,6.27,0,0,1,2.85.92,4.92,4.92,0,0,1,1.94,2.2,6.11,6.11,0,0,0-2.15-1.84,7.39,7.39,0,0,0-2.68-.74A11.29,11.29,0,0,1,31,120.44Z"/><path class="cls-3" d="M46.74,118.4a7,7,0,0,1-2.42,3.11,5,5,0,0,0-1.26,1.33,4.32,4.32,0,0,0-.64,1.78,3.17,3.17,0,0,1,.27-2A4.07,4.07,0,0,1,44,121.07a12,12,0,0,0,1.44-1.23A18,18,0,0,0,46.74,118.4Z"/><path class="cls-2" d="M25.83,103.22a.36.36,0,0,0-.63.27c.2,2.06.95,6.31,3.82,8.41,3.71,2.7,5.76,1.53,10,3.58a.46.46,0,0,0,.66-.41c0-1.6-.28-5.47-3.56-7.41C32.26,105.37,28.5,106.19,25.83,103.22Z"/><path class="cls-2" d="M51.11,104a.31.31,0,0,1,.55.19c0,1.76-.35,5.41-2.63,7.39-2.94,2.56-4.76,1.72-8.2,3.76a.39.39,0,0,1-.59-.3c-.13-1.35-.15-4.65,2.48-6.53C45.82,106.31,49.06,106.73,51.11,104Z"/><path class="cls-3" d="M30.13,109.05a21.71,21.71,0,0,0,2.52,1.43,15.89,15.89,0,0,0,2.67,1,6.15,6.15,0,0,1,2.61,1.46,4.86,4.86,0,0,1,1.48,2.54,6.21,6.21,0,0,0-1.75-2.23A7.3,7.3,0,0,0,35.17,112,11.3,11.3,0,0,1,30.13,109.05Z"/><path class="cls-3" d="M46,110.14a7,7,0,0,1-3,2.57,5.11,5.11,0,0,0-1.5,1.06,4.57,4.57,0,0,0-1,1.62,3.23,3.23,0,0,1,.66-1.89,4.14,4.14,0,0,1,1.59-1.28,12.26,12.26,0,0,0,1.66-.92C45,111,45.49,110.55,46,110.14Z"/><path class="cls-2" d="M28.47,91.15a.36.36,0,0,0-.67.15c-.21,2.06-.3,6.37,2.1,9,3.11,3.38,5.35,2.63,9.1,5.47a.45.45,0,0,0,.72-.27c.34-1.57.79-5.42-2-8C34.36,94.52,30.51,94.59,28.47,91.15Z"/><path class="cls-2" d="M53.1,96.9a.3.3,0,0,1,.5.29c-.36,1.72-1.4,5.23-4,6.73-3.39,1.93-5,.75-8.78,2.08a.4.4,0,0,1-.52-.41c.14-1.35.77-4.59,3.72-5.92C47.47,98.1,50.56,99.15,53.1,96.9Z"/><path class="cls-3" d="M31.55,97.71a23,23,0,0,0,2.18,1.9,16.05,16.05,0,0,0,2.43,1.5,6.23,6.23,0,0,1,2.28,2,5,5,0,0,1,1,2.77,6.17,6.17,0,0,0-1.29-2.52,7,7,0,0,0-2.19-1.71A11.37,11.37,0,0,1,31.55,97.71Z"/><path class="cls-3" d="M46.9,101.89a7,7,0,0,1-3.43,1.94,5,5,0,0,0-1.68.75A4.36,4.36,0,0,0,40.52,106a3.11,3.11,0,0,1,1-1.72,4.06,4.06,0,0,1,1.81-1,11.9,11.9,0,0,0,1.81-.58A18.53,18.53,0,0,0,46.9,101.89Z"/><path class="cls-2" d="M33.43,79.83a.37.37,0,0,0-.69,0c-.61,2-1.54,6.18.3,9.23,2.38,3.92,4.72,3.62,7.85,7.14a.45.45,0,0,0,.76-.12c.64-1.47,1.84-5.16-.44-8.21C38.54,84.29,34.76,83.6,33.43,79.83Z"/><path class="cls-2" d="M56.45,90.3a.31.31,0,0,1,.44.38c-.69,1.62-2.4,4.86-5.27,5.82-3.7,1.23-5-.25-9,.31a.39.39,0,0,1-.43-.5c.4-1.3,1.65-4.35,4.8-5.08C50.69,90.37,53.52,92,56.45,90.3Z"/><path class="cls-3" d="M35.16,86.87a21.12,21.12,0,0,0,1.77,2.29,16,16,0,0,0,2.09,2,6.35,6.35,0,0,1,1.85,2.35,4.9,4.9,0,0,1,.38,2.91,6.06,6.06,0,0,0-.76-2.72,7.05,7.05,0,0,0-1.81-2.11A11.24,11.24,0,0,1,35.16,86.87Z"/><path class="cls-3" d="M49.39,94a7,7,0,0,1-3.74,1.23,5.24,5.24,0,0,0-1.79.4,4.23,4.23,0,0,0-1.52,1.12,3.13,3.13,0,0,1,1.32-1.49,4,4,0,0,1,2-.57,12,12,0,0,0,1.89-.22A18.44,18.44,0,0,0,49.39,94Z"/><path class="cls-2" d="M40.51,69.71a.36.36,0,0,0-.68-.12c-1,1.82-2.73,5.76-1.51,9.11,1.56,4.31,3.92,4.48,6.29,8.54a.45.45,0,0,0,.77,0c.92-1.31,2.82-4.69,1.18-8.14C44.65,75.08,41.07,73.67,40.51,69.71Z"/><path class="cls-2" d="M61,84.49a.3.3,0,0,1,.35.46c-1,1.45-3.31,4.29-6.31,4.66-3.87.49-4.91-1.23-8.9-1.45a.4.4,0,0,1-.32-.58c.65-1.2,2.47-3.94,5.71-4C55.37,83.43,57.82,85.59,61,84.49Z"/><path class="cls-3" d="M40.83,77a19.53,19.53,0,0,0,1.29,2.59,15.28,15.28,0,0,0,1.66,2.32,6.44,6.44,0,0,1,1.35,2.67,4.87,4.87,0,0,1-.19,2.93,6,6,0,0,0-.22-2.82,7.07,7.07,0,0,0-1.36-2.42A11.4,11.4,0,0,1,40.83,77Z"/><path class="cls-3" d="M53.39,86.71a7,7,0,0,1-3.91.47,5.18,5.18,0,0,0-1.84,0,4.3,4.3,0,0,0-1.71.79,3.2,3.2,0,0,1,1.59-1.2,4.28,4.28,0,0,1,2-.18,12,12,0,0,0,1.89.17C52.09,86.81,52.73,86.77,53.39,86.71Z"/><path class="cls-2" d="M112.44,170.14a.37.37,0,0,1-.17.67c-2.07.14-6.38.11-8.93-2.37-3.28-3.2-2.47-5.42-5.19-9.26a.45.45,0,0,1,.29-.71c1.57-.29,5.44-.63,7.9,2.27C109.24,164.16,109.06,168,112.44,170.14Z"/><path class="cls-2" d="M107.42,145.35a.3.3,0,0,0-.27-.51c-1.73.31-5.28,1.25-6.85,3.83-2,3.32-.9,5-2.34,8.71a.39.39,0,0,0,.39.52c1.36-.09,4.61-.62,6-3.53C106.05,151,105.1,147.83,107.42,145.35Z"/><path class="cls-3" d="M106,166.87a11.38,11.38,0,0,1-3.76-4.48,7.24,7.24,0,0,0-1.64-2.24,6.31,6.31,0,0,0-2.49-1.36,4.91,4.91,0,0,1,2.75,1,6.18,6.18,0,0,1,1.88,2.33,16,16,0,0,0,1.43,2.47A21.56,21.56,0,0,0,106,166.87Z"/><path class="cls-3" d="M102.25,151.4c-.33.58-.63,1.15-.89,1.73a12.67,12.67,0,0,0-.63,1.79,4,4,0,0,1-1,1.78,3.18,3.18,0,0,1-1.75,1,4.39,4.39,0,0,0,1.43-1.23,4.89,4.89,0,0,0,.79-1.66A7.09,7.09,0,0,1,102.25,151.4Z"/><path class="cls-2" d="M123.89,165.52a.36.36,0,0,1,0,.69c-2,.55-6.23,1.36-9.22-.58-3.85-2.49-3.48-4.82-6.91-8a.46.46,0,0,1,.15-.76c1.49-.59,5.21-1.68,8.2.68C119.59,160.28,120.16,164.08,123.89,165.52Z"/><path class="cls-2" d="M114.12,142.2a.31.31,0,0,0-.37-.45c-1.64.64-4.93,2.25-6,5.09-1.34,3.66.1,5.06-.58,9a.38.38,0,0,0,.48.44c1.32-.35,4.4-1.51,5.22-4.65C113.87,148,112.32,145.08,114.12,142.2Z"/><path class="cls-3" d="M116.91,163.58a11.33,11.33,0,0,1-4.56-3.65,7.21,7.21,0,0,0-2-1.88,6.19,6.19,0,0,0-2.71-.84,4.88,4.88,0,0,1,2.9.47,6.39,6.39,0,0,1,2.3,1.92,14.77,14.77,0,0,0,1.89,2.14A21,21,0,0,0,116.91,163.58Z"/><path class="cls-3" d="M110.23,149.15a18.53,18.53,0,0,0-.53,1.86,13.3,13.3,0,0,0-.27,1.88,4.16,4.16,0,0,1-.63,1.94,3.15,3.15,0,0,1-1.53,1.29,4.34,4.34,0,0,0,1.16-1.49,5,5,0,0,0,.46-1.78A6.91,6.91,0,0,1,110.23,149.15Z"/><path class="cls-2" d="M134.22,158.75a.35.35,0,0,1,.1.67c-1.84.94-5.84,2.56-9.15,1.25-4.26-1.69-4.36-4-8.35-6.54a.46.46,0,0,1,0-.78c1.35-.87,4.78-2.67,8.18-.94C129,154.45,130.28,158.07,134.22,158.75Z"/><path class="cls-2" d="M120.06,137.79a.31.31,0,0,0-.45-.37c-1.47,1-4.39,3.18-4.85,6.17-.6,3.85,1.09,4.94,1.19,8.94a.39.39,0,0,0,.57.33c1.21-.6,4-2.34,4.21-5.58C121,143.48,118.87,141,120.06,137.79Z"/><path class="cls-3" d="M127,158.21a11.31,11.31,0,0,1-5.18-2.68,7,7,0,0,0-2.39-1.44,6.05,6.05,0,0,0-2.81-.3,4.88,4.88,0,0,1,2.93-.1,6.16,6.16,0,0,1,2.63,1.43,16.59,16.59,0,0,0,2.27,1.73A21.44,21.44,0,0,0,127,158.21Z"/><path class="cls-3" d="M117.61,145.37a18.11,18.11,0,0,0-.15,1.93,11,11,0,0,0,.11,1.9,4.21,4.21,0,0,1-.24,2,3.18,3.18,0,0,1-1.25,1.56,4.42,4.42,0,0,0,.85-1.69,5.11,5.11,0,0,0,.09-1.83A7,7,0,0,1,117.61,145.37Z"/><path class="cls-2" d="M143,150.08a.36.36,0,0,1,.24.64c-1.63,1.28-5.23,3.65-8.73,3-4.51-.83-5.08-3.12-9.48-4.78a.46.46,0,0,1-.16-.76c1.15-1.12,4.17-3.56,7.83-2.52C137,146.89,139,150.18,143,150.08Z"/><path class="cls-2" d="M125,132.3a.3.3,0,0,0-.51-.27c-1.26,1.23-3.68,4-3.55,7,.17,3.89,2,4.63,2.92,8.53a.39.39,0,0,0,.62.22c1.07-.83,3.47-3.09,3-6.3C127,137.71,124.48,135.65,125,132.3Z"/><path class="cls-3" d="M135.83,151a11.2,11.2,0,0,1-5.61-1.62,7.23,7.23,0,0,0-2.62-.94,6.17,6.17,0,0,0-2.82.26,5,5,0,0,1,2.86-.68,6.31,6.31,0,0,1,2.86.89,16,16,0,0,0,2.56,1.25A20.13,20.13,0,0,0,135.83,151Z"/><path class="cls-3" d="M124.11,140.21c0,.66.12,1.3.23,1.93a11.86,11.86,0,0,0,.48,1.84,4,4,0,0,1,.16,2,3.12,3.12,0,0,1-.91,1.77,4.42,4.42,0,0,0,.49-1.82,4.85,4.85,0,0,0-.26-1.81A7.06,7.06,0,0,1,124.11,140.21Z"/><path class="cls-2" d="M150,139.85a.36.36,0,0,1,.35.59c-1.35,1.57-4.41,4.6-8,4.67-4.59.07-5.59-2.07-10.23-2.83a.46.46,0,0,1-.3-.71c.9-1.33,3.38-4.31,7.18-4C143.46,137.9,146.06,140.74,150,139.85Z"/><path class="cls-2" d="M128.83,126a.31.31,0,0,0-.56-.17c-1,1.45-2.83,4.62-2.11,7.56.93,3.79,2.9,4.14,4.54,7.79a.39.39,0,0,0,.65.1c.89-1,2.8-3.71,1.74-6.77C131.84,130.86,129,129.34,128.83,126Z"/><path class="cls-3" d="M143.08,142.14a11.32,11.32,0,0,1-5.82-.49,7.21,7.21,0,0,0-2.76-.41,6.17,6.17,0,0,0-2.71.81,4.92,4.92,0,0,1,2.67-1.23,6.17,6.17,0,0,1,3,.32,16.23,16.23,0,0,0,2.76.72A21,21,0,0,0,143.08,142.14Z"/><path class="cls-3" d="M129.48,133.88c.18.64.37,1.25.6,1.85a12.25,12.25,0,0,0,.83,1.71,4.23,4.23,0,0,1,.56,2,3.14,3.14,0,0,1-.56,1.92,4.32,4.32,0,0,0,.14-1.88,5.05,5.05,0,0,0-.62-1.73A7.09,7.09,0,0,1,129.48,133.88Z"/><path class="cls-2" d="M154.75,128.47a.36.36,0,0,1,.46.5c-1,1.81-3.42,5.38-6.9,6.14-4.48,1-5.88-.93-10.58-.77a.46.46,0,0,1-.44-.64c.63-1.47,2.47-4.88,6.26-5.34C148,127.83,151.1,130.1,154.75,128.47Z"/><path class="cls-2" d="M131.3,119a.3.3,0,0,0-.57,0c-.7,1.62-1.87,5.09-.59,7.83,1.65,3.52,3.66,3.49,6,6.75a.39.39,0,0,0,.66,0c.67-1.18,2-4.19.38-7C135.22,123.2,132.08,122.28,131.3,119Z"/><path class="cls-3" d="M148.45,132.06a11.44,11.44,0,0,1-5.8.66,7,7,0,0,0-2.78.14,6.09,6.09,0,0,0-2.51,1.32,5,5,0,0,1,2.38-1.72,6.17,6.17,0,0,1,3-.28,16,16,0,0,0,2.85.17A21.62,21.62,0,0,0,148.45,132.06Z"/><path class="cls-3" d="M133.5,126.63a18.41,18.41,0,0,0,.95,1.69,12.19,12.19,0,0,0,1.14,1.51,4.07,4.07,0,0,1,.94,1.82,3.22,3.22,0,0,1-.17,2,4.38,4.38,0,0,0-.24-1.88,5,5,0,0,0-.94-1.57A7,7,0,0,1,133.5,126.63Z"/><path class="cls-2" d="M157.22,116.36a.36.36,0,0,1,.55.41c-.64,2-2.3,5.94-5.57,7.37-4.2,1.83-5.94.24-10.53,1.32a.46.46,0,0,1-.55-.54c.33-1.57,1.47-5.27,5.09-6.46C150.47,117.06,154,118.68,157.22,116.36Z"/><path class="cls-2" d="M132.37,111.65a.31.31,0,0,0-.58.06c-.37,1.72-.84,5.35,1,7.79,2.31,3.14,4.27,2.71,7.18,5.45a.39.39,0,0,0,.64-.16c.42-1.3,1.16-4.51-1-6.92C137,115,133.78,114.74,132.37,111.65Z"/><path class="cls-3" d="M151.74,121.12a11.43,11.43,0,0,1-5.56,1.79,7.25,7.25,0,0,0-2.7.67,6.18,6.18,0,0,0-2.19,1.79,4.86,4.86,0,0,1,2-2.15,6.19,6.19,0,0,1,2.87-.86A15.08,15.08,0,0,0,149,122,21.33,21.33,0,0,0,151.74,121.12Z"/><path class="cls-3" d="M136,118.72c.41.52.82,1,1.26,1.48a13,13,0,0,0,1.42,1.26,4,4,0,0,1,1.27,1.6,3.09,3.09,0,0,1,.23,2,4.32,4.32,0,0,0-.6-1.79,4.85,4.85,0,0,0-1.23-1.36A7,7,0,0,1,136,118.72Z"/><path class="cls-2" d="M157.26,104a.36.36,0,0,1,.62.29c-.24,2-1.09,6.28-4,8.32-3.76,2.62-5.78,1.4-10.06,3.36a.46.46,0,0,1-.65-.43c0-1.6.4-5.45,3.72-7.33C150.78,106,154.52,106.92,157.26,104Z"/><path class="cls-2" d="M132,104.26a.3.3,0,0,0-.55.17c0,1.76.23,5.41,2.46,7.45,2.88,2.62,4.72,1.82,8.11,3.94a.4.4,0,0,0,.6-.29c.16-1.35.25-4.64-2.34-6.59C137.21,106.66,134,107,132,104.26Z"/><path class="cls-3" d="M152.83,109.74a11.33,11.33,0,0,1-5.1,2.85,7.13,7.13,0,0,0-2.52,1.19,6.22,6.22,0,0,0-1.8,2.19,5,5,0,0,1,1.53-2.51,6.23,6.23,0,0,1,2.65-1.4,15.88,15.88,0,0,0,2.69-.94A21.69,21.69,0,0,0,152.83,109.74Z"/><path class="cls-3" d="M136.94,110.48a19.19,19.19,0,0,0,1.53,1.2,11.65,11.65,0,0,0,1.64.95,4.23,4.23,0,0,1,1.56,1.32,3.14,3.14,0,0,1,.61,1.9,4.51,4.51,0,0,0-.94-1.64,5.16,5.16,0,0,0-1.48-1.09A7,7,0,0,1,136.94,110.48Z"/><path class="cls-2" d="M154.89,91.89a.36.36,0,0,1,.66.16c.17,2.06.16,6.37-2.3,8.94-3.17,3.31-5.4,2.51-9.21,5.27a.46.46,0,0,1-.72-.29c-.3-1.57-.67-5.43,2.21-7.92C148.93,95.12,152.77,95.28,154.89,91.89Z"/><path class="cls-2" d="M130.13,97.09a.3.3,0,0,0-.5.28c.32,1.73,1.28,5.26,3.87,6.82,3.34,2,5,.86,8.73,2.27a.39.39,0,0,0,.53-.4c-.11-1.35-.66-4.6-3.58-6C135.74,98.41,132.63,99.39,130.13,97.09Z"/><path class="cls-3" d="M151.66,98.38a11.34,11.34,0,0,1-4.44,3.79,7.15,7.15,0,0,0-2.23,1.66,6,6,0,0,0-1.34,2.5,4.93,4.93,0,0,1,1-2.76,6.18,6.18,0,0,1,2.32-1.89,16.09,16.09,0,0,0,2.46-1.46A20.24,20.24,0,0,0,151.66,98.38Z"/><path class="cls-3" d="M136.23,102.22a17.49,17.49,0,0,0,1.73.87,12.63,12.63,0,0,0,1.79.62,4.09,4.09,0,0,1,1.79,1,3.11,3.11,0,0,1,1,1.74,4.36,4.36,0,0,0-1.24-1.42,5.06,5.06,0,0,0-1.66-.78A6.93,6.93,0,0,1,136.23,102.22Z"/><path class="cls-2" d="M150.18,80.46a.37.37,0,0,1,.69,0c.56,2,1.4,6.22-.51,9.22-2.46,3.87-4.8,3.52-8,7a.45.45,0,0,1-.76-.14c-.6-1.48-1.72-5.19.62-8.2C145,84.81,148.77,84.2,150.18,80.46Z"/><path class="cls-2" d="M126.93,90.42a.31.31,0,0,0-.45.37c.66,1.63,2.3,4.91,5.14,5.93,3.67,1.31,5.06-.14,9,.51a.38.38,0,0,0,.43-.49c-.36-1.31-1.54-4.38-4.68-5.18C132.69,90.62,129.82,92.19,126.93,90.42Z"/><path class="cls-3" d="M148.29,87.46a11.4,11.4,0,0,1-3.61,4.59,7.12,7.12,0,0,0-1.87,2.07,6.31,6.31,0,0,0-.82,2.71,5,5,0,0,1,.45-2.91,6.43,6.43,0,0,1,1.9-2.31,14.77,14.77,0,0,0,2.13-1.9A19.88,19.88,0,0,0,148.29,87.46Z"/><path class="cls-3" d="M133.91,94.25c.62.2,1.24.38,1.87.52a12,12,0,0,0,1.88.25,4.11,4.11,0,0,1,2,.62,3.2,3.2,0,0,1,1.29,1.51A4.34,4.34,0,0,0,139.4,96a4.76,4.76,0,0,0-1.78-.44A7,7,0,0,1,133.91,94.25Z"/><path class="cls-2" d="M143.33,70.19a.36.36,0,0,1,.67-.11c.95,1.84,2.6,5.82,1.32,9.14-1.66,4.28-4,4.39-6.48,8.4a.46.46,0,0,1-.78,0c-.88-1.34-2.7-4.76-1-8.17C139.07,75.47,142.68,74.13,143.33,70.19Z"/><path class="cls-2" d="M122.48,84.5a.31.31,0,0,0-.36.46c1,1.47,3.21,4.36,6.2,4.8,3.85.57,4.93-1.12,8.93-1.26a.39.39,0,0,0,.33-.56c-.62-1.22-2.38-4-5.61-4.17C128.16,83.57,125.66,85.68,122.48,84.5Z"/><path class="cls-3" d="M142.85,77.42a11.31,11.31,0,0,1-2.65,5.21A7.15,7.15,0,0,0,138.78,85a6.21,6.21,0,0,0-.28,2.82,5,5,0,0,1-.12-2.94,6.39,6.39,0,0,1,1.41-2.64A15.24,15.24,0,0,0,141.5,80,20.77,20.77,0,0,0,142.85,77.42Z"/><path class="cls-3" d="M130.07,86.9A18.41,18.41,0,0,0,132,87a11.92,11.92,0,0,0,1.89-.11,4,4,0,0,1,2,.22,3.16,3.16,0,0,1,1.57,1.23,4.45,4.45,0,0,0-1.69-.83,5,5,0,0,0-1.84-.08A7,7,0,0,1,130.07,86.9Z"/><path class="cls-2" d="M134.59,61.45a.37.37,0,0,1,.65-.24c1.28,1.62,3.69,5.2,3.07,8.71-.78,4.52-3.07,5.1-4.7,9.51a.46.46,0,0,1-.76.16c-1.13-1.13-3.59-4.13-2.58-7.81C131.45,67.46,134.73,65.45,134.59,61.45Z"/><path class="cls-2" d="M117,79.58a.3.3,0,0,0-.26.51c1.23,1.26,4,3.65,7,3.5,3.89-.2,4.62-2.07,8.51-3a.38.38,0,0,0,.21-.62c-.84-1.06-3.11-3.45-6.32-3C122.35,77.55,120.31,80.1,117,79.58Z"/><path class="cls-3" d="M135.54,68.64A11.32,11.32,0,0,1,134,74.26a7.24,7.24,0,0,0-.92,2.63,6.14,6.14,0,0,0,.28,2.81,4.92,4.92,0,0,1-.7-2.85,6.29,6.29,0,0,1,.87-2.86,15.26,15.26,0,0,0,1.23-2.58A21.55,21.55,0,0,0,135.54,68.64Z"/><path class="cls-3" d="M124.87,80.43a16.78,16.78,0,0,0,1.92-.24,11.6,11.6,0,0,0,1.84-.49,4.13,4.13,0,0,1,2-.18,3.15,3.15,0,0,1,1.78.91,4.46,4.46,0,0,0-1.82-.49,5,5,0,0,0-1.81.28A7,7,0,0,1,124.87,80.43Z"/><path class="cls-4" d="M96,162.34c.19.79.31,1.59.42,2.39s.2,1.61.28,2.41.13,1.61.15,2.42,0,1.62,0,2.43c-.18-.79-.3-1.59-.42-2.4s-.2-1.6-.27-2.4-.13-1.61-.15-2.42S96,163.15,96,162.34Z"/><path class="cls-2" d="M49.43,61.17a.35.35,0,0,0-.63-.25C47.47,62.51,45,66,45.53,69.56c.68,4.53,3,5.16,4.49,9.61a.46.46,0,0,0,.75.18c1.15-1.11,3.68-4.06,2.76-7.75C52.44,67.25,49.21,65.16,49.43,61.17Z"/><path class="cls-3" d="M48.33,68.33a21.76,21.76,0,0,0,.75,2.8,15.59,15.59,0,0,0,1.18,2.6,6.32,6.32,0,0,1,.8,2.88,4.94,4.94,0,0,1-.76,2.84,6.16,6.16,0,0,0,.34-2.81A7.12,7.12,0,0,0,49.78,74,11.26,11.26,0,0,1,48.33,68.33Z"/><path class="cls-5" d="M2.51,190.56Q2,173,1.58,155.36c-.22-11.73-.5-23.46-.67-35.2S.51,96.7.4,85L0,49.77l0-1.5,1.36-.71L45.93,24,90.59.7,91.94,0l1.35.7L138,24l44.58,23.51,1.36.72,0,1.5L183.51,85c-.11,11.73-.34,23.46-.51,35.19s-.45,23.47-.67,35.2-.57,23.47-.94,35.2q-.54-17.59-.93-35.2c-.22-11.73-.51-23.46-.67-35.2s-.4-23.46-.51-35.19l-.38-35.2L180.24,52,135.37,29,90.59,5.9h2.7L48.52,29,3.65,52,5,49.77,4.61,85c-.11,11.73-.34,23.46-.51,35.19s-.45,23.47-.67,35.2S2.87,178.83,2.51,190.56Z"/><polygon class="cls-5" points="26.71 40.16 23.78 190.56 20.85 40.16 26.71 40.16"/><polygon class="cls-5" points="49.43 27 46.5 190.56 43.58 27 49.43 27"/><polygon class="cls-5" points="72.16 15.8 69.23 190.56 66.3 15.8 72.16 15.8"/><polygon class="cls-5" points="94.88 3.94 91.95 190.56 89.02 3.94 94.88 3.94"/><polygon class="cls-5" points="117.6 15.78 114.67 190.56 111.75 15.78 117.6 15.78"/><polygon class="cls-5" points="140.33 27.38 137.4 190.56 134.47 27.38 140.33 27.38"/><polygon class="cls-5" points="163.05 40.16 160.12 190.56 157.19 40.16 163.05 40.16"/><path class="cls-2" d="M66.67,79.68a.31.31,0,0,1,.25.53c-1.26,1.22-4.08,3.56-7.1,3.34-3.88-.29-4.57-2.17-8.44-3.18a.39.39,0,0,1-.2-.62c.87-1,3.19-3.39,6.39-2.85C61.32,77.54,63.3,80.13,66.67,79.68Z"/><path class="cls-3" d="M58.73,80.37a7,7,0,0,1-3.93-.31,5,5,0,0,0-1.8-.31,4.32,4.32,0,0,0-1.84.44,3.14,3.14,0,0,1,1.8-.86,4,4,0,0,1,2,.22,12.78,12.78,0,0,0,1.83.53C57.44,80.21,58.08,80.3,58.73,80.37Z"/><path class="cls-2" d="M59.86,54.55a.36.36,0,0,0-.58-.37c-1.6,1.3-4.73,4.27-4.9,7.82-.21,4.58,1.9,5.65,2.53,10.31a.45.45,0,0,0,.7.32c1.35-.86,4.4-3.25,4.22-7.06C61.62,61.1,58.86,58.42,59.86,54.55Z"/><path class="cls-2" d="M73.13,76.08a.3.3,0,0,1,.15.56c-1.48,1-4.7,2.69-7.62,1.88-3.75-1-4-3-7.65-4.76a.39.39,0,0,1-.08-.65c1.06-.86,3.8-2.7,6.82-1.54C68.31,72.92,69.74,75.86,73.13,76.08Z"/><path class="cls-3" d="M57.37,61.35a21.25,21.25,0,0,0,.2,2.89A14.75,14.75,0,0,0,58.21,67a6.32,6.32,0,0,1,.22,3,4.94,4.94,0,0,1-1.3,2.63A6.15,6.15,0,0,0,58,70a7.17,7.17,0,0,0-.32-2.76A11.37,11.37,0,0,1,57.37,61.35Z"/><path class="cls-3" d="M65.22,75.19a7,7,0,0,1-3.8-1.06,4.8,4.8,0,0,0-1.7-.67,4.33,4.33,0,0,0-1.89.08,3.17,3.17,0,0,1,1.93-.5,4.11,4.11,0,0,1,2,.62,12.76,12.76,0,0,0,1.68.88A18,18,0,0,0,65.22,75.19Z"/><path class="cls-2" d="M72.38,68.49a12.63,12.63,0,0,0,1.41-1.12c2.11-2,2.37-4.07,4.53-6.56a.32.32,0,0,0-.31-.53c-3.23.65-5.18-.15-7.94.71a11.86,11.86,0,0,0-1.67.67c-2.84,1.39-4.34,4.73-5,6.86,0,.11-.07.22-.1.33a.44.44,0,0,0,.32.55l.35.08C66.14,69.93,69.78,70.28,72.38,68.49Z"/><path class="cls-3" d="M71.7,64.32c-.65.5-1.32,1-2,1.4s-1.37.86-2.06,1.27-1.41.8-2.13,1.17-1.44.73-2.2,1c.64-.5,1.31-1,2-1.4s1.37-.86,2.06-1.27,1.4-.8,2.13-1.17S70.94,64.63,71.7,64.32Z"/><path class="cls-2" d="M124.32,54.6a.36.36,0,0,1,.58-.36c1.58,1.34,4.64,4.37,4.72,7.93.12,4.59-2,5.6-2.75,10.25a.46.46,0,0,1-.71.31c-1.32-.89-4.32-3.35-4.06-7.15C122.41,61.11,125.23,58.49,124.32,54.6Z"/><path class="cls-2" d="M110.57,75.83a.31.31,0,0,0-.16.56c1.46,1,4.64,2.79,7.57,2,3.78-1,4.12-2.93,7.76-4.6a.39.39,0,0,0,.09-.65c-1-.88-3.73-2.77-6.78-1.69C115.46,72.78,114,75.69,110.57,75.83Z"/><path class="cls-3" d="M126.65,61.46a11.21,11.21,0,0,1-.44,5.82,7.19,7.19,0,0,0-.39,2.76,6.07,6.07,0,0,0,.83,2.71,4.92,4.92,0,0,1-1.25-2.66,6.41,6.41,0,0,1,.29-3,14.8,14.8,0,0,0,.7-2.77A19.76,19.76,0,0,0,126.65,61.46Z"/><path class="cls-3" d="M118.5,75.12a18.06,18.06,0,0,0,1.84-.62,11.29,11.29,0,0,0,1.71-.84,4.21,4.21,0,0,1,2-.57,3.17,3.17,0,0,1,1.92.54,4.36,4.36,0,0,0-1.89-.12,4.82,4.82,0,0,0-1.72.63A7.06,7.06,0,0,1,118.5,75.12Z"/><path class="cls-2" d="M112.89,49.89a.36.36,0,0,1,.51-.46c1.81,1,5.4,3.38,6.18,6.85,1,4.47-.88,5.89-.68,10.59a.46.46,0,0,1-.64.44c-1.48-.62-4.9-2.44-5.39-6.22C112.31,56.65,114.55,53.53,112.89,49.89Z"/><path class="cls-2" d="M103.58,73.4a.31.31,0,0,0,0,.58c1.62.69,5.1,1.83,7.83.53,3.51-1.68,3.46-3.68,6.7-6a.39.39,0,0,0,0-.66c-1.19-.66-4.21-2-7-.33C107.78,69.46,106.88,72.6,103.58,73.4Z"/><path class="cls-3" d="M116.53,56.16a11.34,11.34,0,0,1,.71,5.8,6.86,6.86,0,0,0,.16,2.78,6.05,6.05,0,0,0,1.34,2.49A4.86,4.86,0,0,1,117,64.87a6.18,6.18,0,0,1-.3-3,16,16,0,0,0,.14-2.85A20.12,20.12,0,0,0,116.53,56.16Z"/><path class="cls-3" d="M111.21,71.15a18.48,18.48,0,0,0,1.69-1A12.89,12.89,0,0,0,114.41,69a4.11,4.11,0,0,1,1.8-.94,3.21,3.21,0,0,1,2,.14,4.5,4.5,0,0,0-1.87.26,5,5,0,0,0-1.56,1A6.94,6.94,0,0,1,111.21,71.15Z"/><path class="cls-2" d="M103,65.8a12.25,12.25,0,0,1-1.59-.85c-2.42-1.58-3-3.6-5.6-5.67A.33.33,0,0,1,96,58.7c3.29.08,5.08-1.05,7.94-.69a11.22,11.22,0,0,1,1.76.38c3,.86,5.1,3.9,6.14,5.87.06.1.11.21.16.31a.44.44,0,0,1-.22.6l-.33.14C109.39,66.14,105.87,67.11,103,65.8Z"/><path class="cls-3" d="M102.94,61.57c.8.18,1.58.4,2.35.64s1.53.51,2.29.78,1.51.57,2.26.89,1.48.65,2.2,1c-.8-.18-1.58-.4-2.35-.64s-1.53-.51-2.29-.78-1.52-.57-2.26-.89S103.66,62,102.94,61.57Z"/></g></g></svg>