<svg xmlns="http://www.w3.org/2000/svg" xmlns:xlink="http://www.w3.org/1999/xlink" viewBox="0 0 284.85 269.44"><defs><style>.cls-1{fill:#f4c416;}.cls-2{fill:#52a470;}.cls-3{fill:#316243;}.cls-4{fill:#ab890f;}.cls-5{fill:url(#radial-gradient);}</style><radialGradient id="radial-gradient" cx="127.38" cy="257.95" r="120.49" gradientTransform="translate(-2.32 232.16) scale(1.14 0.1)" gradientUnits="userSpaceOnUse"><stop offset="0" stop-color="#f4c416"/><stop offset="0.03" stop-color="#f5c721"/><stop offset="0.18" stop-color="#f7d55b"/><stop offset="0.33" stop-color="#fae28d"/><stop offset="0.47" stop-color="#fcedb6"/><stop offset="0.62" stop-color="#fdf5d6"/><stop offset="0.76" stop-color="#fefaed"/><stop offset="0.89" stop-color="#fffefa"/><stop offset="1" stop-color="#fff"/></radialGradient></defs><title>Success Property</title><g id="Layer_2" data-name="Layer 2"><g id="Layer_1-2" data-name="Layer 1"><path class="cls-1" d="M134.23,220.7a24.53,24.53,0,0,0,.53,3.7c1.34,5.84,4.83,8.51,7,15a.67.67,0,0,0,1.27,0c2.2-6.47,5.7-9.14,7-15a25.79,25.79,0,0,0,.54-3.7c.48-6.54-3.95-12.72-7-16.17l-.49-.53a.92.92,0,0,0-1.32,0l-.51.55C138.15,208,133.74,214.17,134.23,220.7Z"/><path class="cls-2" d="M110.74,220.62a.66.66,0,0,0,.41,1.19c3.8-.06,11.67-.82,15.94-5.77,5.49-6.37,3.64-10.29,8-17.74a.84.84,0,0,0-.65-1.26c-2.92-.28-10-.28-14.08,5.42C115.61,209.17,116.56,216.16,110.74,220.62Z"/><path class="cls-2" d="M115.93,174.5a.56.56,0,0,1,.42-1c3.21.29,9.84,1.43,13.13,5.9,4.25,5.75,2.44,9,5.67,15.54a.72.72,0,0,1-.63,1c-2.5,0-8.53-.4-11.59-5.49C119.33,184.51,120.58,178.65,115.93,174.5Z"/><path class="cls-3" d="M122,213.6a41.34,41.34,0,0,0,3-4.39,28.8,28.8,0,0,0,2.22-4.74,11.72,11.72,0,0,1,3-4.57,9.1,9.1,0,0,1,4.87-2.33,11.31,11.31,0,0,0-4.32,2.89,12.87,12.87,0,0,0-2.66,4.36A20.71,20.71,0,0,1,122,213.6Z"/><path class="cls-3" d="M126.36,184.73a11.61,11.61,0,0,1,2.54,2.6,13,13,0,0,1,1.73,3.24,8.45,8.45,0,0,0,4.53,4.92A5.85,5.85,0,0,1,131.8,194a7.8,7.8,0,0,1-2.11-3.1A27.31,27.31,0,0,0,126.36,184.73Z"/><path class="cls-2" d="M89.06,214a.66.66,0,0,0,.17,1.24c3.73.69,11.6,1.49,16.75-2.53,6.64-5.17,5.6-9.38,11.34-15.83a.84.84,0,0,0-.39-1.36c-2.81-.85-9.79-2.25-14.87,2.56C96.08,203.74,95.64,210.78,89.06,214Z"/><path class="cls-2" d="M103.18,169.81a.56.56,0,0,1,.61-.88c3.09.92,9.36,3.33,11.72,8.35,3,6.48.64,9.27,2.51,16.36a.71.71,0,0,1-.82.88c-2.46-.44-8.28-2.06-10.29-7.65C104.55,180.29,106.93,174.79,103.18,169.81Z"/><path class="cls-3" d="M101.51,209.35a39.18,39.18,0,0,0,3.78-3.73,28.48,28.48,0,0,0,3.12-4.21,11.61,11.61,0,0,1,3.88-3.88,9,9,0,0,1,5.23-1.33,11.29,11.29,0,0,0-4.8,2,12.8,12.8,0,0,0-3.46,3.76A20.86,20.86,0,0,1,101.51,209.35Z"/><path class="cls-3" d="M111.4,181.89a11.25,11.25,0,0,1,2,3,13,13,0,0,1,1.06,3.52,8.43,8.43,0,0,0,3.48,5.7,5.69,5.69,0,0,1-3-2.09,7.7,7.7,0,0,1-1.47-3.45A26.71,26.71,0,0,0,111.4,181.89Z"/><path class="cls-2" d="M69.09,203.29a.66.66,0,0,0-.08,1.25c3.53,1.41,11.09,3.74,16.93.81,7.52-3.78,7.32-8.11,14.22-13.3a.85.85,0,0,0-.11-1.42c-2.6-1.38-9.17-4.12-15.1-.4C78,194.59,76.18,201.41,69.09,203.29Z"/><path class="cls-2" d="M91.6,162.71a.56.56,0,0,1,.77-.74c2.85,1.5,8.53,5.1,9.86,10.49,1.71,6.94-1.19,9.2-.75,16.53a.7.7,0,0,1-1,.7c-2.33-.91-7.72-3.64-8.59-9.52C90.89,173.26,94.3,168.32,91.6,162.71Z"/><path class="cls-3" d="M82.21,201.15a37.31,37.31,0,0,0,4.44-2.91,27.59,27.59,0,0,0,3.88-3.52,11.55,11.55,0,0,1,4.57-3,9,9,0,0,1,5.39-.28,11.3,11.3,0,0,0-5.1,1,12.89,12.89,0,0,0-4.13,3A20.73,20.73,0,0,1,82.21,201.15Z"/><path class="cls-3" d="M97.3,176.16a11.4,11.4,0,0,1,1.35,3.38,12.82,12.82,0,0,1,.35,3.65,8.45,8.45,0,0,0,2.29,6.28,5.78,5.78,0,0,1-2.53-2.64,7.65,7.65,0,0,1-.76-3.67A27,27,0,0,0,97.3,176.16Z"/><path class="cls-2" d="M51.61,188.86a.66.66,0,0,0-.32,1.21c3.18,2.07,10.14,5.84,16.44,4.11,8.11-2.23,8.77-6.51,16.55-10.26a.84.84,0,0,0,.17-1.41c-2.28-1.86-8.18-5.83-14.72-3.35C62,182.07,58.93,188.4,51.61,188.86Z"/><path class="cls-2" d="M81.64,153.47a.56.56,0,0,1,.9-.57c2.5,2,7.37,6.67,7.61,12.22.32,7.14-3,8.79-4,16.06a.71.71,0,0,1-1.09.5c-2.1-1.35-6.86-5.09-6.56-11C78.88,163.68,83.19,159.51,81.64,153.47Z"/><path class="cls-3" d="M64.9,189.33a37.72,37.72,0,0,0,4.92-2,28.78,28.78,0,0,0,4.5-2.69,11.5,11.5,0,0,1,5.08-2.09,9,9,0,0,1,5.33.78,11.24,11.24,0,0,0-5.19,0,13,13,0,0,0-4.64,2.13A20.68,20.68,0,0,1,64.9,189.33Z"/><path class="cls-3" d="M84.59,167.79a11.34,11.34,0,0,1,.66,3.57,12.8,12.8,0,0,1-.37,3.65,8.48,8.48,0,0,0,1,6.61,5.78,5.78,0,0,1-2-3.09,7.68,7.68,0,0,1,0-3.75A27.39,27.39,0,0,0,84.59,167.79Z"/><path class="cls-2" d="M37.3,171.28a.66.66,0,0,0-.55,1.12c2.71,2.66,8.8,7.71,15.31,7.25,8.39-.59,9.88-4.66,18.24-6.81a.84.84,0,0,0,.44-1.35c-1.86-2.27-6.87-7.32-13.77-6.17C48.86,166.67,44.56,172.27,37.3,171.28Z"/><path class="cls-2" d="M73.68,142.47a.57.57,0,0,1,1-.39c2,2.49,5.91,8,5.07,13.47-1.09,7.07-4.64,8-7,15a.71.71,0,0,1-1.17.27c-1.79-1.73-5.72-6.33-4.27-12.09C69,151.94,74,148.69,73.68,142.47Z"/><path class="cls-3" d="M50.24,174.35a39.25,39.25,0,0,0,5.21-1,27.65,27.65,0,0,0,4.94-1.76,11.63,11.63,0,0,1,5.39-1.05,9,9,0,0,1,5.08,1.81,11.36,11.36,0,0,0-5.09-1,12.77,12.77,0,0,0-5,1.19A20.74,20.74,0,0,1,50.24,174.35Z"/><path class="cls-3" d="M73.77,157.08a11.7,11.7,0,0,1,0,3.64,13.21,13.21,0,0,1-1.08,3.51,8.39,8.39,0,0,0-.3,6.67A5.72,5.72,0,0,1,71,167.49a7.65,7.65,0,0,1,.71-3.68A27,27,0,0,0,73.77,157.08Z"/><path class="cls-2" d="M26.71,151.23a.66.66,0,0,0-.76,1c2.14,3.13,7.12,9.29,13.59,10.11,8.35,1.06,10.61-2.64,19.23-3.1a.84.84,0,0,0,.69-1.24c-1.38-2.59-5.3-8.53-12.29-8.75C39,149,33.64,153.63,26.71,151.23Z"/><path class="cls-2" d="M68,130.12a.56.56,0,0,1,1-.19c1.53,2.84,4.23,9,2.33,14.21-2.46,6.71-6.13,7-9.84,13.3a.72.72,0,0,1-1.21,0c-1.42-2.06-4.37-7.33-1.81-12.7C61.56,138.48,67.14,136.28,68,130.12Z"/><path class="cls-3" d="M38.8,156.78a37.56,37.56,0,0,0,5.3.06,28.36,28.36,0,0,0,5.19-.75,11.58,11.58,0,0,1,5.49,0,9,9,0,0,1,4.62,2.77,11.37,11.37,0,0,0-4.79-2,13.08,13.08,0,0,0-5.1.19A20.57,20.57,0,0,1,38.8,156.78Z"/><path class="cls-3" d="M65.26,144.46A11.8,11.8,0,0,1,64.5,148a13.48,13.48,0,0,1-1.75,3.23,8.43,8.43,0,0,0-1.61,6.48,5.71,5.71,0,0,1-.62-3.6,7.58,7.58,0,0,1,1.42-3.47A27.08,27.08,0,0,0,65.26,144.46Z"/><path class="cls-2" d="M20.26,129.5a.67.67,0,0,0-1,.83c1.49,3.5,5.16,10.5,11.35,12.58,8,2.68,10.92-.51,19.46.73a.85.85,0,0,0,.93-1.08c-.85-2.81-3.53-9.4-10.34-11C32.7,129.69,26.59,133.21,20.26,129.5Z"/><path class="cls-2" d="M64.92,116.9a.56.56,0,0,1,1.07,0c.94,3.09,2.39,9.65-.5,14.39-3.72,6.1-7.38,5.64-12.26,11.11a.71.71,0,0,1-1.19-.19c-1-2.3-2.85-8,.71-12.81C56.93,123.83,62.84,122.77,64.92,116.9Z"/><path class="cls-3" d="M31,137.31a39.7,39.7,0,0,0,5.19,1.11,28.73,28.73,0,0,0,5.24.27,11.63,11.63,0,0,1,5.38,1.1,9,9,0,0,1,4,3.62,11.36,11.36,0,0,0-4.31-2.91,12.89,12.89,0,0,0-5-.81A20.65,20.65,0,0,1,31,137.31Z"/><path class="cls-3" d="M59.38,130.42a11.5,11.5,0,0,1-1.44,3.34,13.21,13.21,0,0,1-2.34,2.82,8.43,8.43,0,0,0-2.85,6,5.81,5.81,0,0,1,.09-3.66,7.69,7.69,0,0,1,2.08-3.13A26.81,26.81,0,0,0,59.38,130.42Z"/><path class="cls-2" d="M18.19,106.93a.66.66,0,0,0-1.09.63c.78,3.72,3,11.31,8.67,14.56,7.29,4.19,10.8,1.64,18.94,4.52a.83.83,0,0,0,1.11-.87c-.28-2.93-1.62-9.91-8-12.81C30.35,109.56,23.67,111.81,18.19,106.93Z"/><path class="cls-2" d="M64.46,103.32a.56.56,0,0,1,1,.24c.32,3.21.45,9.93-3.31,14-4.85,5.26-8.34,4.09-14.2,8.5a.71.71,0,0,1-1.13-.42c-.52-2.45-1.21-8.45,3.21-12.42C55.27,108.55,61.26,108.67,64.46,103.32Z"/><path class="cls-3" d="M27.21,116.7a40.08,40.08,0,0,0,4.88,2.1,28.66,28.66,0,0,0,5.08,1.29,11.65,11.65,0,0,1,5.06,2.13,9.11,9.11,0,0,1,3.2,4.34,11.33,11.33,0,0,0-3.65-3.7A13,13,0,0,0,37,121.08,20.82,20.82,0,0,1,27.21,116.7Z"/><path class="cls-3" d="M56.38,115.5a11.77,11.77,0,0,1-2.07,3,13.24,13.24,0,0,1-2.86,2.31,8.4,8.4,0,0,0-4,5.37,5.74,5.74,0,0,1,.81-3.57,7.73,7.73,0,0,1,2.64-2.66A26.92,26.92,0,0,0,56.38,115.5Z"/><path class="cls-2" d="M20.58,84.39a.65.65,0,0,0-1.18.4c0,3.8.72,11.68,5.64,16,6.33,5.54,10.27,3.73,17.68,8.15a.85.85,0,0,0,1.27-.64c.3-2.92.36-10-5.32-14.13C32,89.35,25,90.25,20.58,84.39Z"/><path class="cls-2" d="M66.66,89.92a.56.56,0,0,1,1,.43c-.32,3.21-1.51,9.83-6,13.09-5.79,4.21-9,2.37-15.59,5.55a.71.71,0,0,1-1-.64c0-2.49.46-8.52,5.58-11.54C56.63,93.25,62.48,94.54,66.66,89.92Z"/><path class="cls-3" d="M27.52,95.74a37.7,37.7,0,0,0,4.37,3A27.64,27.64,0,0,0,36.61,101a11.74,11.74,0,0,1,4.55,3.09A9,9,0,0,1,43.45,109a11.27,11.27,0,0,0-2.86-4.34A12.82,12.82,0,0,0,36.26,102,20.7,20.7,0,0,1,27.52,95.74Z"/><path class="cls-3" d="M56.35,100.27a11.2,11.2,0,0,1-2.61,2.53,13.47,13.47,0,0,1-3.25,1.71,8.42,8.42,0,0,0-5,4.48A5.76,5.76,0,0,1,47,105.65a7.56,7.56,0,0,1,3.11-2.08A26.92,26.92,0,0,0,56.35,100.27Z"/><path class="cls-2" d="M27.35,62.76a.66.66,0,0,0-1.24.16c-.72,3.73-1.58,11.59,2.4,16.77,5.12,6.67,9.34,5.67,15.74,11.46a.84.84,0,0,0,1.37-.38c.87-2.81,2.32-9.77-2.45-14.9C37.57,69.86,30.54,69.36,27.35,62.76Z"/><path class="cls-2" d="M71.45,77.21a.57.57,0,0,1,.88.62c-.94,3.08-3.41,9.34-8.45,11.66-6.49,3-9.26.56-16.37,2.38a.71.71,0,0,1-.88-.82c.46-2.46,2.13-8.27,7.74-10.23C61,78.51,66.45,80.92,71.45,77.21Z"/><path class="cls-3" d="M31.93,75.24a39.13,39.13,0,0,0,3.69,3.81,28.51,28.51,0,0,0,4.19,3.15,11.64,11.64,0,0,1,3.86,3.91A9,9,0,0,1,45,91.35,11.36,11.36,0,0,0,43,86.53a13,13,0,0,0-3.73-3.48A20.71,20.71,0,0,1,31.93,75.24Z"/><path class="cls-3" d="M59.31,85.34a11.06,11.06,0,0,1-3.06,2,13.46,13.46,0,0,1-3.52,1A8.44,8.44,0,0,0,47,91.77a5.82,5.82,0,0,1,2.11-3,7.6,7.6,0,0,1,3.47-1.43A26.79,26.79,0,0,0,59.31,85.34Z"/><path class="cls-2" d="M38.23,42.87A.66.66,0,0,0,37,42.78C35.55,46.3,33.16,53.84,36,59.7c3.72,7.55,8.05,7.39,13.2,14.32a.83.83,0,0,0,1.41-.1c1.4-2.58,4.19-9.13.52-15.09C46.86,51.83,40.06,50,38.23,42.87Z"/><path class="cls-2" d="M78.64,65.69a.56.56,0,0,1,.74.77c-1.53,2.85-5.17,8.5-10.57,9.78-7,1.66-9.19-1.26-16.52-.87a.71.71,0,0,1-.7-1c.93-2.32,3.71-7.69,9.59-8.52C68.1,64.9,73,68.35,78.64,65.69Z"/><path class="cls-3" d="M40.27,56a38.17,38.17,0,0,0,2.88,4.46,28.12,28.12,0,0,0,3.49,3.91,11.59,11.59,0,0,1,3,4.59,9,9,0,0,1,.23,5.39,11.34,11.34,0,0,0-1-5.11,13.11,13.11,0,0,0-3-4.15A20.66,20.66,0,0,1,40.27,56Z"/><path class="cls-3" d="M65.14,71.28a11.35,11.35,0,0,1-3.38,1.33,13.25,13.25,0,0,1-3.66.33,8.44,8.44,0,0,0-6.3,2.23,5.81,5.81,0,0,1,2.67-2.51,7.62,7.62,0,0,1,3.67-.72A27.37,27.37,0,0,0,65.14,71.28Z"/><path class="cls-2" d="M52.79,25.5a.66.66,0,0,0-1.21-.33c-2.09,3.17-5.91,10.1-4.23,16.41,2.17,8.13,6.45,8.82,10.13,16.63a.84.84,0,0,0,1.41.17c1.88-2.26,5.9-8.13,3.47-14.69C59.5,36,53.19,32.82,52.79,25.5Z"/><path class="cls-2" d="M88,55.8a.56.56,0,0,1,.57.9c-2,2.49-6.73,7.32-12.28,7.52-7.14.26-8.77-3-16-4.09a.71.71,0,0,1-.49-1.1c1.37-2.09,5.14-6.81,11.07-6.47C77.76,53,81.9,57.3,88,55.8Z"/><path class="cls-3" d="M52.22,38.79a39.74,39.74,0,0,0,1.94,4.93,29.27,29.27,0,0,0,2.66,4.52,11.57,11.57,0,0,1,2,5.09,9,9,0,0,1-.82,5.33,11.24,11.24,0,0,0,.05-5.19A12.72,12.72,0,0,0,56,48.82,20.85,20.85,0,0,1,52.22,38.79Z"/><path class="cls-3" d="M73.62,58.64a11.78,11.78,0,0,1-3.58.64,13.19,13.19,0,0,1-3.65-.4,8.41,8.41,0,0,0-6.62,1,5.75,5.75,0,0,1,3.11-1.94,7.56,7.56,0,0,1,3.75,0A26.91,26.91,0,0,0,73.62,58.64Z"/><path class="cls-2" d="M70.48,11.32a.66.66,0,0,0-1.12-.56C66.69,13.46,61.58,19.5,62,26c.53,8.4,4.59,9.91,6.68,18.29a.83.83,0,0,0,1.34.45c2.29-1.85,7.38-6.82,6.28-13.73C75,22.92,69.44,18.58,70.48,11.32Z"/><path class="cls-2" d="M99,47.92a.56.56,0,0,1,.38,1c-2.51,2-8,5.85-13.52,5-7-1.15-8-4.7-14.91-7.16a.71.71,0,0,1-.27-1.17c1.75-1.78,6.37-5.68,12.12-4.18C89.58,43.14,92.79,48.21,99,47.92Z"/><path class="cls-3" d="M67.31,24.24a39,39,0,0,0,.94,5.22A28.71,28.71,0,0,0,70,34.41a11.67,11.67,0,0,1,1,5.4,9,9,0,0,1-1.86,5.06,11.21,11.21,0,0,0,1.08-5.08,13.18,13.18,0,0,0-1.15-5A20.63,20.63,0,0,1,67.31,24.24Z"/><path class="cls-3" d="M84.4,47.9a11.34,11.34,0,0,1-3.63-.08,13,13,0,0,1-3.5-1.1,8.45,8.45,0,0,0-6.68-.36A5.75,5.75,0,0,1,74,45.07a7.63,7.63,0,0,1,3.67.74A27.17,27.17,0,0,0,84.4,47.9Z"/><path class="cls-2" d="M90.6.88a.65.65,0,0,0-1-.76c-3.15,2.12-9.34,7-10.21,13.51C78.27,22,82,24.26,82.36,32.88a.84.84,0,0,0,1.23.71c2.6-1.37,8.57-5.24,8.85-12.23C92.77,13.14,88.16,7.8,90.6.88Z"/><path class="cls-2" d="M111.41,42.37a.56.56,0,0,1,.18,1.05c-2.85,1.51-9,4.17-14.23,2.23-6.69-2.51-6.92-6.18-13.22-9.95a.71.71,0,0,1,0-1.2c2.07-1.4,7.37-4.31,12.72-1.72C103.1,35.83,105.25,41.43,111.41,42.37Z"/><path class="cls-3" d="M85,12.93a39.29,39.29,0,0,0-.1,5.31,28.44,28.44,0,0,0,.72,5.19,11.71,11.71,0,0,1-.06,5.49,9.08,9.08,0,0,1-2.81,4.6,11.28,11.28,0,0,0,2-4.77,12.93,12.93,0,0,0-.15-5.11A20.79,20.79,0,0,1,85,12.93Z"/><path class="cls-3" d="M97.09,39.48a11.41,11.41,0,0,1-3.55-.78,13.15,13.15,0,0,1-3.22-1.78,8.42,8.42,0,0,0-6.47-1.65,5.79,5.79,0,0,1,3.61-.6,7.56,7.56,0,0,1,3.45,1.45A27.06,27.06,0,0,0,97.09,39.48Z"/><path class="cls-2" d="M111.25,28.38A21.3,21.3,0,0,0,114,26.56c4.16-3.27,5-7.06,9.33-11.26a.59.59,0,0,0-.48-1c-6,.68-9.45-1.11-14.63,0a22.44,22.44,0,0,0-3.15,1c-5.42,2.08-8.69,8-10.29,11.73-.08.19-.16.4-.23.59a.8.8,0,0,0,.49,1.05l.64.21C99.62,30,106.21,31.23,111.25,28.38Z"/><path class="cls-3" d="M110.67,20.64a68.9,68.9,0,0,1-7.83,4.24,68.84,68.84,0,0,1-8.26,3.33A69.69,69.69,0,0,1,102.41,24,70.6,70.6,0,0,1,110.67,20.64Z"/><path class="cls-2" d="M174.11,220.62a.66.66,0,0,1-.41,1.19c-3.8-.06-11.67-.82-15.93-5.77-5.49-6.37-3.65-10.29-8-17.74a.84.84,0,0,1,.65-1.26c2.93-.28,10-.28,14.09,5.42C169.24,209.17,168.29,216.16,174.11,220.62Z"/><path class="cls-2" d="M168.93,174.5a.56.56,0,0,0-.43-1c-3.21.29-9.83,1.43-13.13,5.9-4.25,5.75-2.44,9-5.67,15.54a.72.72,0,0,0,.63,1c2.5,0,8.53-.4,11.59-5.49C165.53,184.51,164.28,178.65,168.93,174.5Z"/><path class="cls-3" d="M162.82,213.6a20.73,20.73,0,0,1-6.15-8.78,12.87,12.87,0,0,0-2.66-4.36,11.35,11.35,0,0,0-4.31-2.89,9.07,9.07,0,0,1,4.86,2.33,11.61,11.61,0,0,1,3.05,4.57,28.05,28.05,0,0,0,2.23,4.74A38.54,38.54,0,0,0,162.82,213.6Z"/><path class="cls-3" d="M158.5,184.73a27,27,0,0,0-3.34,6.19,7.69,7.69,0,0,1-2.11,3.1,5.82,5.82,0,0,1-3.35,1.47,8.46,8.46,0,0,0,4.52-4.92,13,13,0,0,1,1.73-3.24A11.44,11.44,0,0,1,158.5,184.73Z"/><path class="cls-2" d="M195.8,214a.66.66,0,0,1-.17,1.24c-3.74.69-11.61,1.49-16.76-2.53-6.63-5.17-5.59-9.38-11.34-15.83a.84.84,0,0,1,.39-1.36c2.82-.85,9.79-2.25,14.88,2.56C188.77,203.74,189.21,210.78,195.8,214Z"/><path class="cls-2" d="M181.67,169.81a.56.56,0,0,0-.6-.88c-3.1.92-9.37,3.33-11.73,8.35-3,6.48-.63,9.27-2.51,16.36a.71.71,0,0,0,.82.88c2.46-.44,8.28-2.06,10.29-7.65C180.3,180.29,177.93,174.79,181.67,169.81Z"/><path class="cls-3" d="M183.34,209.35a20.76,20.76,0,0,1-7.74-7.41,13.08,13.08,0,0,0-3.46-3.76,11.29,11.29,0,0,0-4.8-2,9,9,0,0,1,5.22,1.33,11.64,11.64,0,0,1,3.89,3.88,27.73,27.73,0,0,0,3.11,4.21A39.18,39.18,0,0,0,183.34,209.35Z"/><path class="cls-3" d="M173.45,181.89a27.13,27.13,0,0,0-2.06,6.72,7.68,7.68,0,0,1-1.46,3.45,5.77,5.77,0,0,1-3,2.09,8.42,8.42,0,0,0,3.47-5.7,13,13,0,0,1,1.06-3.52A11.25,11.25,0,0,1,173.45,181.89Z"/><path class="cls-2" d="M215.77,203.29a.66.66,0,0,1,.07,1.25c-3.53,1.41-11.09,3.74-16.92.81-7.52-3.78-7.33-8.11-14.23-13.3a.84.84,0,0,1,.12-1.42c2.59-1.38,9.16-4.12,15.09-.4C206.87,194.59,208.68,201.41,215.77,203.29Z"/><path class="cls-2" d="M193.25,162.71a.56.56,0,0,0-.77-.74c-2.85,1.5-8.53,5.1-9.86,10.49-1.71,6.94,1.2,9.2.75,16.53a.71.71,0,0,0,1,.7c2.33-.91,7.72-3.64,8.59-9.52C194,173.26,190.55,168.32,193.25,162.71Z"/><path class="cls-3" d="M202.64,201.15a20.73,20.73,0,0,1-9-5.74,12.78,12.78,0,0,0-4.13-3,11.28,11.28,0,0,0-5.09-1,9,9,0,0,1,5.38.28,11.55,11.55,0,0,1,4.57,3,28.16,28.16,0,0,0,3.88,3.52A38.14,38.14,0,0,0,202.64,201.15Z"/><path class="cls-3" d="M187.56,176.16a27,27,0,0,0-.71,7,7.65,7.65,0,0,1-.76,3.67,5.73,5.73,0,0,1-2.53,2.64,8.41,8.41,0,0,0,2.29-6.28,13.19,13.19,0,0,1,.35-3.65A11.69,11.69,0,0,1,187.56,176.16Z"/><path class="cls-2" d="M233.25,188.86a.66.66,0,0,1,.32,1.21c-3.19,2.07-10.15,5.84-16.44,4.11-8.12-2.23-8.78-6.51-16.56-10.26a.84.84,0,0,1-.16-1.41c2.27-1.86,8.17-5.83,14.71-3.35C222.81,182.07,225.92,188.4,233.25,188.86Z"/><path class="cls-2" d="M203.21,153.47a.56.56,0,0,0-.9-.57c-2.5,2-7.36,6.67-7.61,12.22-.32,7.14,3,8.79,4,16.06a.71.71,0,0,0,1.1.5c2.1-1.35,6.85-5.09,6.55-11C206,163.68,201.67,159.51,203.21,153.47Z"/><path class="cls-3" d="M220,189.33a20.68,20.68,0,0,1-10-3.86,13,13,0,0,0-4.63-2.13,11.28,11.28,0,0,0-5.2,0,9,9,0,0,1,5.34-.78,11.59,11.59,0,0,1,5.08,2.09,28.69,28.69,0,0,0,4.49,2.69A37.72,37.72,0,0,0,220,189.33Z"/><path class="cls-3" d="M200.26,167.79a27.39,27.39,0,0,0,.68,7,7.56,7.56,0,0,1,0,3.75,5.72,5.72,0,0,1-2,3.09,8.44,8.44,0,0,0,1-6.61,13.17,13.17,0,0,1-.37-3.65A11.63,11.63,0,0,1,200.26,167.79Z"/><path class="cls-2" d="M247.56,171.28a.66.66,0,0,1,.55,1.12c-2.72,2.66-8.8,7.71-15.32,7.25-8.39-.59-9.88-4.66-18.24-6.81a.84.84,0,0,1-.44-1.35c1.87-2.27,6.88-7.32,13.78-6.17C236,166.67,240.29,172.27,247.56,171.28Z"/><path class="cls-2" d="M211.17,142.47a.56.56,0,0,0-1-.39c-2.06,2.49-5.92,8-5.07,13.47,1.09,7.07,4.64,8,7,15a.71.71,0,0,0,1.17.27c1.8-1.73,5.72-6.33,4.27-12.09C215.88,151.94,210.84,148.69,211.17,142.47Z"/><path class="cls-3" d="M234.62,174.35a20.76,20.76,0,0,1-10.57-1.82,12.72,12.72,0,0,0-5-1.19,11.33,11.33,0,0,0-5.09,1,9,9,0,0,1,5.07-1.81,11.63,11.63,0,0,1,5.39,1.05,27.93,27.93,0,0,0,4.94,1.76A39.09,39.09,0,0,0,234.62,174.35Z"/><path class="cls-3" d="M211.08,157.08a27.37,27.37,0,0,0,2,6.73,7.77,7.77,0,0,1,.72,3.68,5.85,5.85,0,0,1-1.32,3.41,8.43,8.43,0,0,0-.31-6.67,13.21,13.21,0,0,1-1.08-3.51A11.7,11.7,0,0,1,211.08,157.08Z"/><path class="cls-2" d="M258.14,151.23a.66.66,0,0,1,.77,1c-2.15,3.13-7.12,9.29-13.6,10.11-8.35,1.06-10.6-2.64-19.23-3.1a.84.84,0,0,1-.69-1.24c1.38-2.59,5.31-8.53,12.3-8.75C245.9,149,251.21,153.63,258.14,151.23Z"/><path class="cls-2" d="M216.81,130.12a.55.55,0,0,0-1-.19c-1.53,2.84-4.24,9-2.33,14.21,2.45,6.71,6.12,7,9.84,13.3a.71.71,0,0,0,1.2,0c1.42-2.06,4.37-7.33,1.81-12.7C223.29,138.48,217.71,136.28,216.81,130.12Z"/><path class="cls-3" d="M246.06,156.78a20.62,20.62,0,0,1-10.72.28,13.08,13.08,0,0,0-5.1-.19,11.37,11.37,0,0,0-4.79,2,9,9,0,0,1,4.62-2.77,11.62,11.62,0,0,1,5.5,0,28.13,28.13,0,0,0,5.18.75A37.72,37.72,0,0,0,246.06,156.78Z"/><path class="cls-3" d="M219.6,144.46a27,27,0,0,0,3.31,6.2,7.58,7.58,0,0,1,1.42,3.47,5.71,5.71,0,0,1-.62,3.6,8.43,8.43,0,0,0-1.61-6.48,13.45,13.45,0,0,1-1.74-3.23A11.23,11.23,0,0,1,219.6,144.46Z"/><path class="cls-2" d="M264.6,129.5a.66.66,0,0,1,.94.83c-1.49,3.5-5.16,10.5-11.35,12.58-8,2.68-10.91-.51-19.46.73a.85.85,0,0,1-.93-1.08c.85-2.81,3.54-9.4,10.35-11C252.15,129.69,258.27,133.21,264.6,129.5Z"/><path class="cls-2" d="M219.93,116.9a.56.56,0,0,0-1.07,0c-.94,3.09-2.38,9.65.5,14.39,3.73,6.1,7.38,5.64,12.26,11.11a.71.71,0,0,0,1.19-.19c1-2.3,2.85-8-.71-12.81C227.92,123.83,222,122.77,219.93,116.9Z"/><path class="cls-3" d="M253.83,137.31a20.65,20.65,0,0,1-10.45,2.38,12.89,12.89,0,0,0-5,.81,11.33,11.33,0,0,0-4.3,2.91,9,9,0,0,1,4-3.62,11.6,11.6,0,0,1,5.38-1.1,28.57,28.57,0,0,0,5.23-.27A39.35,39.35,0,0,0,253.83,137.31Z"/><path class="cls-3" d="M225.47,130.42a26.85,26.85,0,0,0,4.47,5.42A7.67,7.67,0,0,1,232,139a5.67,5.67,0,0,1,.09,3.66,8.42,8.42,0,0,0-2.84-6,13,13,0,0,1-2.35-2.82A11.5,11.5,0,0,1,225.47,130.42Z"/><path class="cls-2" d="M266.67,106.93a.66.66,0,0,1,1.08.63c-.77,3.72-3,11.31-8.66,14.56-7.3,4.19-10.8,1.64-18.94,4.52a.84.84,0,0,1-1.12-.87c.28-2.93,1.62-9.91,8-12.81C254.5,109.56,261.19,111.81,266.67,106.93Z"/><path class="cls-2" d="M220.39,103.32a.56.56,0,0,0-1,.24c-.32,3.21-.45,9.93,3.31,14,4.85,5.26,8.34,4.09,14.2,8.5a.71.71,0,0,0,1.13-.42c.52-2.45,1.22-8.45-3.21-12.42C229.59,108.55,223.59,108.67,220.39,103.32Z"/><path class="cls-3" d="M257.64,116.7a20.74,20.74,0,0,1-9.78,4.38,13,13,0,0,0-4.79,1.78,11.39,11.39,0,0,0-3.64,3.7,9,9,0,0,1,3.2-4.34,11.55,11.55,0,0,1,5.06-2.13,28.56,28.56,0,0,0,5.07-1.29A39.42,39.42,0,0,0,257.64,116.7Z"/><path class="cls-3" d="M228.48,115.5a26.86,26.86,0,0,0,5.44,4.44,7.84,7.84,0,0,1,2.65,2.66,5.81,5.81,0,0,1,.81,3.57,8.45,8.45,0,0,0-4-5.37,13,13,0,0,1-2.85-2.31A11.52,11.52,0,0,1,228.48,115.5Z"/><path class="cls-2" d="M264.27,84.39a.66.66,0,0,1,1.19.4c0,3.8-.73,11.68-5.64,16-6.34,5.54-10.27,3.73-17.69,8.15a.85.85,0,0,1-1.27-.64c-.3-2.92-.35-10,5.32-14.13C252.85,89.35,259.85,90.25,264.27,84.39Z"/><path class="cls-2" d="M218.19,89.92a.56.56,0,0,0-1,.43c.32,3.21,1.51,9.83,6,13.09,5.78,4.21,9,2.37,15.58,5.55a.72.72,0,0,0,1-.64c0-2.49-.47-8.52-5.58-11.54C228.23,93.25,222.37,94.54,218.19,89.92Z"/><path class="cls-3" d="M257.33,95.74A20.73,20.73,0,0,1,248.6,102a12.86,12.86,0,0,0-4.34,2.69,11.25,11.25,0,0,0-2.85,4.34,9.05,9.05,0,0,1,2.28-4.88,11.74,11.74,0,0,1,4.55-3.09A27.64,27.64,0,0,0,253,98.75,37.7,37.7,0,0,0,257.33,95.74Z"/><path class="cls-3" d="M228.5,100.27a26.92,26.92,0,0,0,6.21,3.3,7.66,7.66,0,0,1,3.12,2.08,5.82,5.82,0,0,1,1.49,3.34,8.45,8.45,0,0,0-4.95-4.48,13.11,13.11,0,0,1-3.25-1.71A11.24,11.24,0,0,1,228.5,100.27Z"/><path class="cls-2" d="M257.5,62.76a.66.66,0,0,1,1.25.16c.71,3.73,1.57,11.59-2.41,16.77-5.12,6.67-9.34,5.67-15.74,11.46a.84.84,0,0,1-1.37-.38c-.86-2.81-2.31-9.77,2.45-14.9C247.28,69.86,254.32,69.36,257.5,62.76Z"/><path class="cls-2" d="M213.4,77.21a.56.56,0,0,0-.87.62c.94,3.08,3.4,9.34,8.44,11.66,6.49,3,9.26.56,16.37,2.38a.71.71,0,0,0,.88-.82c-.46-2.46-2.13-8.27-7.73-10.23C223.89,78.51,218.41,80.92,213.4,77.21Z"/><path class="cls-3" d="M252.93,75.24a20.79,20.79,0,0,1-7.35,7.81,12.9,12.9,0,0,0-3.73,3.48,11.38,11.38,0,0,0-1.95,4.82,9.06,9.06,0,0,1,1.29-5.24A11.61,11.61,0,0,1,245,82.2a28.51,28.51,0,0,0,4.19-3.15A39.22,39.22,0,0,0,252.93,75.24Z"/><path class="cls-3" d="M225.54,85.34a26.92,26.92,0,0,0,6.73,2,7.6,7.6,0,0,1,3.47,1.43,5.78,5.78,0,0,1,2.12,3,8.48,8.48,0,0,0-5.74-3.42,13.46,13.46,0,0,1-3.52-1A11.21,11.21,0,0,1,225.54,85.34Z"/><path class="cls-2" d="M246.62,42.87a.67.67,0,0,1,1.26-.09c1.43,3.52,3.81,11.06.93,16.92-3.72,7.55-8.05,7.39-13.2,14.32a.83.83,0,0,1-1.41-.1c-1.4-2.58-4.19-9.13-.52-15.09C238,51.83,244.8,50,246.62,42.87Z"/><path class="cls-2" d="M206.21,65.69a.56.56,0,0,0-.73.77C207,69.31,210.64,75,216,76.24c7,1.66,9.2-1.26,16.52-.87a.71.71,0,0,0,.7-1c-.93-2.32-3.7-7.69-9.59-8.52C216.76,64.9,211.85,68.35,206.21,65.69Z"/><path class="cls-3" d="M244.58,56a20.73,20.73,0,0,1-5.67,9.09,13,13,0,0,0-3,4.15,11.48,11.48,0,0,0-1,5.11,9,9,0,0,1,.24-5.39,11.48,11.48,0,0,1,3-4.59,29.46,29.46,0,0,0,3.49-3.91A38.1,38.1,0,0,0,244.58,56Z"/><path class="cls-3" d="M219.71,71.28a27.41,27.41,0,0,0,7,.66,7.68,7.68,0,0,1,3.68.72,5.83,5.83,0,0,1,2.66,2.51,8.43,8.43,0,0,0-6.3-2.23,13.18,13.18,0,0,1-3.65-.33A11.41,11.41,0,0,1,219.71,71.28Z"/><path class="cls-2" d="M232.06,25.5a.66.66,0,0,1,1.21-.33c2.09,3.17,5.91,10.1,4.23,16.41-2.17,8.13-6.44,8.82-10.13,16.63a.84.84,0,0,1-1.41.17c-1.88-2.26-5.89-8.13-3.46-14.69C225.35,36,231.66,32.82,232.06,25.5Z"/><path class="cls-2" d="M196.9,55.8a.56.56,0,0,0-.57.9c2.06,2.49,6.74,7.32,12.28,7.52,7.15.26,8.77-3,16-4.09a.72.72,0,0,0,.5-1.1c-1.37-2.09-5.14-6.81-11.08-6.47C207.09,53,203,57.3,196.9,55.8Z"/><path class="cls-3" d="M232.64,38.79a20.77,20.77,0,0,1-3.79,10,12.88,12.88,0,0,0-2.1,4.65,11.24,11.24,0,0,0,.05,5.19,9.08,9.08,0,0,1-.82-5.33A11.69,11.69,0,0,1,228,48.24a28.49,28.49,0,0,0,2.66-4.52A41.42,41.42,0,0,0,232.64,38.79Z"/><path class="cls-3" d="M211.24,58.64a27,27,0,0,0,7-.73,7.56,7.56,0,0,1,3.75,0,5.76,5.76,0,0,1,3.1,1.94,8.39,8.39,0,0,0-6.61-1,13.19,13.19,0,0,1-3.65.4A11.72,11.72,0,0,1,211.24,58.64Z"/><path class="cls-2" d="M214.37,11.32a.66.66,0,0,1,1.12-.56c2.68,2.7,7.78,8.74,7.37,15.26-.53,8.4-4.59,9.91-6.67,18.29a.84.84,0,0,1-1.35.45c-2.29-1.85-7.38-6.82-6.28-13.73C209.85,22.92,215.42,18.58,214.37,11.32Z"/><path class="cls-2" d="M185.84,47.92a.56.56,0,0,0-.38,1c2.5,2,8,5.85,13.51,5,7.06-1.15,8-4.7,14.92-7.16a.71.71,0,0,0,.27-1.17c-1.76-1.78-6.38-5.68-12.13-4.18C195.27,43.14,192.06,48.21,185.84,47.92Z"/><path class="cls-3" d="M217.54,24.24a20.72,20.72,0,0,1-1.74,10.57,12.81,12.81,0,0,0-1.15,5,11.33,11.33,0,0,0,1.07,5.08,9,9,0,0,1-1.85-5.06,11.54,11.54,0,0,1,1-5.4,28.71,28.71,0,0,0,1.72-4.95A39,39,0,0,0,217.54,24.24Z"/><path class="cls-3" d="M200.45,47.9a27.17,27.17,0,0,0,6.71-2.09,7.65,7.65,0,0,1,3.68-.74,5.72,5.72,0,0,1,3.42,1.29,8.43,8.43,0,0,0-6.67.36,13.08,13.08,0,0,1-3.5,1.1A11.41,11.41,0,0,1,200.45,47.9Z"/><path class="cls-2" d="M194.25.88a.66.66,0,0,1,1-.76c3.15,2.12,9.34,7,10.21,13.51,1.13,8.34-2.55,10.63-2.95,19.25a.85.85,0,0,1-1.24.71c-2.6-1.37-8.57-5.24-8.84-12.23C192.09,13.14,196.7,7.8,194.25.88Z"/><path class="cls-2" d="M173.44,42.37a.56.56,0,0,0-.17,1.05c2.85,1.51,9,4.17,14.22,2.23,6.7-2.51,6.93-6.18,13.23-9.95a.71.71,0,0,0,0-1.2c-2.07-1.4-7.37-4.31-12.71-1.72C181.75,35.83,179.6,41.43,173.44,42.37Z"/><path class="cls-3" d="M199.89,12.93a20.68,20.68,0,0,1,.36,10.71,12.93,12.93,0,0,0-.15,5.11,11.3,11.3,0,0,0,2.05,4.77,9,9,0,0,1-2.81-4.6,11.58,11.58,0,0,1-.07-5.49,28.44,28.44,0,0,0,.72-5.19A39.29,39.29,0,0,0,199.89,12.93Z"/><path class="cls-3" d="M187.77,39.48a27,27,0,0,0,6.17-3.36,7.55,7.55,0,0,1,3.46-1.45,5.82,5.82,0,0,1,3.61.6,8.44,8.44,0,0,0-6.48,1.65,13.09,13.09,0,0,1-3.21,1.78A11.48,11.48,0,0,1,187.77,39.48Z"/><path class="cls-2" d="M173.6,28.38a20.49,20.49,0,0,1-2.75-1.82c-4.17-3.27-5-7.06-9.34-11.26a.59.59,0,0,1,.48-1c6,.68,9.45-1.11,14.63,0a23,23,0,0,1,3.16,1c5.41,2.08,8.69,8,10.28,11.73l.24.59a.81.81,0,0,1-.5,1.05l-.63.21C185.23,30,178.64,31.23,173.6,28.38Z"/><path class="cls-3" d="M174.18,20.64A70.6,70.6,0,0,1,182.44,24a68.83,68.83,0,0,1,7.83,4.23A68.84,68.84,0,0,1,182,24.88,69.77,69.77,0,0,1,174.18,20.64Z"/><path class="cls-4" d="M142.43,203.72a80.88,80.88,0,0,1,.56,10.06,77.21,77.21,0,0,1-.56,10.06,89.06,89.06,0,0,1,0-20.12Z"/><ellipse class="cls-5" cx="142.43" cy="257.95" rx="142.43" ry="11.49"/><path class="cls-1" d="M107,145.12c-.25-4.87-.45-9.75-.64-14.63s-.35-9.75-.46-14.62-.27-9.76-.35-14.63l-.26-14.63v-1l.9-.51L115,80.18l8.81-4.91,17.68-9.73.95-.52,1,.52,17.68,9.72c3,1.61,5.88,3.28,8.82,4.91l8.8,4.93.91.51,0,1-.25,14.63c-.08,4.87-.23,9.75-.36,14.63s-.3,9.75-.46,14.62-.39,9.76-.64,14.63q-.37-7.31-.64-14.63c-.16-4.87-.35-9.75-.47-14.62s-.27-9.76-.35-14.63l-.26-14.63.9,1.5-8.92-4.72c-3-1.58-6-3.14-8.9-4.75l-17.75-9.59h1.91l-17.75,9.59-8.91,4.74-8.91,4.73.89-1.5-.26,14.63c-.07,4.87-.23,9.75-.35,14.63s-.3,9.75-.46,14.62S107.24,140.25,107,145.12Z"/></g></g></svg>